<?xml version="1.0" encoding="UTF-8"?>
<svg version="1.1" xmlns="http://www.w3.org/2000/svg" width="512" height="512">
<path d="M0 0 C0.82269046 -0.00750224 1.64538092 -0.01500447 2.4930014 -0.02273405 C5.22966045 -0.04394237 7.96588661 -0.04395099 10.70262146 -0.04379272 C12.67272094 -0.05441399 14.64281421 -0.06624556 16.61289978 -0.07919312 C21.94952097 -0.10989884 27.28600808 -0.12110604 32.62270856 -0.12683535 C35.95827516 -0.13119512 39.29380721 -0.13957384 42.62936211 -0.14933395 C54.26952259 -0.18304717 65.90958189 -0.2002123 77.54978943 -0.20297241 C88.39616458 -0.20601058 99.24197114 -0.24650729 110.08818108 -0.30412066 C119.40729273 -0.35187757 128.72621638 -0.37270445 138.04544967 -0.37276304 C143.60864811 -0.37330124 149.17128863 -0.38490436 154.73436165 -0.42393875 C159.96397933 -0.45976735 165.19255558 -0.4621051 170.42223358 -0.43876648 C172.3398767 -0.43590387 174.25758087 -0.44498077 176.17510033 -0.46694565 C190.64120991 -0.62236589 190.64120991 -0.62236589 195.07183647 1.89516068 C196.8604357 3.64622138 198.12398662 5.29860288 199.45433044 7.40786743 C200.50118496 8.62978041 201.56240091 9.83963335 202.64183044 11.03286743 C203.21546326 11.69802368 203.78909607 12.36317993 204.38011169 13.04849243 C206.9806214 16.006511 209.65164063 18.89479368 212.32933044 21.78286743 C216.65197977 26.4471304 220.93249802 31.14481028 225.17698669 35.88052368 C227.7524282 38.73868947 230.35118808 41.57497005 232.95433044 44.40786743 C237.04602252 48.8611936 241.10256021 53.34446631 245.14183044 57.84536743 C248.19792505 61.23185065 251.28418656 64.59031557 254.37059021 67.9491272 C257.23035249 71.06419868 260.06948403 74.19638418 262.89183044 77.34536743 C266.37881417 81.23157648 269.90778261 85.07617002 273.45433044 88.90786743 C278.5019585 94.36441725 283.54793041 99.82342363 288.45433044 105.40786743 C289.30770493 106.24226349 290.16107941 107.07665955 291.04031372 107.93634033 C294.42364699 112.03964779 294.16218451 116.13968183 294.11375427 121.26870728 C294.12423798 122.24494049 294.13472168 123.22117371 294.14552307 124.22698975 C294.17423482 127.44125298 294.16798583 130.65443662 294.16136169 133.86880493 C294.17447901 136.10226794 294.18978333 138.33571909 294.20718384 140.56915283 C294.24704228 146.43818416 294.2572249 152.3069052 294.26121521 158.17605591 C294.27054494 164.1687868 294.30795758 170.16133526 294.34300232 176.15396118 C294.40758698 187.90525474 294.44081995 199.65641193 294.45433044 211.40786743 C295.14683899 211.46899719 295.83934753 211.53012695 296.55284119 211.59310913 C297.91076782 211.71942719 297.91076782 211.71942719 299.29612732 211.84829712 C300.19488586 211.93005188 301.09364441 212.01180664 302.01963806 212.09603882 C304.79672734 212.45172067 306.61708885 213.11825591 308.95433044 214.65786743 C309.78190857 215.19927368 310.60948669 215.74067993 311.46214294 216.29849243 C316.85436638 220.09979877 322.20758559 223.95174397 327.53636169 227.84146118 C332.48691347 231.44663587 337.49411392 234.96669982 342.51683044 238.47036743 C343.34779236 239.05117065 344.17875427 239.63197388 345.03489685 240.2303772 C348.30782246 242.51720859 351.58184277 244.80238116 354.86204529 247.07876587 C359.75886782 250.47739026 364.63085688 253.9057801 369.45433044 257.40786743 C370.34249451 258.05110962 371.23065857 258.69435181 372.14573669 259.35708618 C378.34826771 264.25742836 380.93542014 270.18245498 381.89183044 277.97036743 C380.94617667 285.40050424 379.06247352 290.85326122 373.40354919 295.96646118 C367.61645975 300.24589205 361.51247568 301.15404916 354.45433044 300.40786743 C351.72200707 299.8759509 349.13221356 299.18688797 346.45433044 298.40786743 C344.91735021 300.31336339 343.40041791 302.23010336 341.89183044 304.15786743 C341.23537537 304.96610962 341.23537537 304.96610962 340.56565857 305.79067993 C338.09884191 308.77572452 338.09884191 308.77572452 337.65208435 312.45010376 C339.05111406 315.86423014 342.39269865 317.41551585 345.39183044 319.34536743 C346.8646177 320.32368219 348.33591838 321.30423777 349.80589294 322.28677368 C350.5732074 322.79740356 351.34052185 323.30803345 352.13108826 323.83413696 C355.90893307 326.3931941 359.58399325 329.08972172 363.26683044 331.78286743 C369.48578199 336.31106677 375.77611122 340.7135929 382.14183044 345.03286743 C388.41528204 349.29134461 394.58797461 353.64929486 400.67503357 358.16958618 C405.92840228 362.05764088 411.27731958 365.80014505 416.64183044 369.53286743 C442.23288272 387.39590477 442.23288272 387.39590477 445.45433044 395.40786743 C446.28627638 403.26298488 446.50337747 410.96759693 441.45433044 417.40786743 C435.48420004 423.37799784 429.56607926 425.69316195 421.27464294 425.90396118 C413.78155742 424.58592536 407.54806695 420.39565771 401.51683044 415.97036743 C400.79157166 415.44886108 400.06631287 414.92735474 399.31907654 414.39004517 C397.02470461 412.73759507 394.73883498 411.07392569 392.45433044 409.40786743 C389.49757304 407.25985679 386.53879409 405.11464753 383.57933044 402.97036743 C382.83844177 402.43242554 382.0975531 401.89448364 381.33421326 401.34024048 C375.87525914 397.39184788 370.34087287 393.56661633 364.76683044 389.78286743 C358.42365474 385.47664435 352.18098472 381.06872803 346.02049255 376.50552368 C339.25669994 371.50109909 332.38010729 366.66021782 325.48802185 361.83462524 C323.50788017 360.44543581 321.53342457 359.04848068 319.55979919 357.65005493 C318.37901265 356.81903719 317.19803446 355.98829168 316.01683044 355.15786743 C314.98686951 354.43083618 313.95690857 353.70380493 312.89573669 352.95474243 C310.65445892 351.22946315 310.65445892 351.22946315 308.45433044 351.40786743 C306.82755953 353.54557361 305.314534 355.67542084 303.82933044 357.90786743 C303.40909607 358.52790649 302.98886169 359.14794556 302.55589294 359.78677368 C301.51595877 361.32304007 300.48435989 362.86494267 299.45433044 364.40786743 C300.6720627 366.93616355 301.93770276 369.12560208 303.51683044 371.47036743 C307.25731321 377.14142195 307.04167182 382.80447226 306.45433044 389.40786743 C304.75877432 395.56702613 300.83139778 400.06283135 295.45433044 403.40786743 C292.50696505 404.65158054 289.54985401 405.60766406 286.45433044 406.40786743 C286.78433044 407.48036743 287.11433044 408.55286743 287.45433044 409.65786743 C288.45433044 413.40786743 288.45433044 413.40786743 288.45433044 417.40786743 C289.02280701 417.55482056 289.59128357 417.70177368 290.17698669 417.85317993 C298.21615543 420.18843095 303.12880559 423.73595569 307.32933044 431.03286743 C311.09160357 438.13384651 310.67372205 445.18897652 310.69456482 453.0519104 C310.704268 455.26860111 310.73531427 457.48436286 310.76683044 459.70083618 C310.77336179 461.12140363 310.77861175 462.54197767 310.78245544 463.96255493 C310.79180115 465.24630005 310.80114685 466.53004517 310.81077576 467.85269165 C310.2929059 473.01791142 308.73634614 476.25092644 304.89183044 479.72036743 C301.16388759 482.30125094 299.225161 482.53572249 294.70474243 482.54830933 C293.48075241 482.55401947 292.25676239 482.55972961 290.99568176 482.56561279 C289.63188182 482.56685821 288.26808175 482.56798329 286.90428162 482.56900024 C285.47369254 482.57362755 284.0431047 482.57865209 282.61251831 482.58404541 C278.71986366 482.59718063 274.82722626 482.60361665 270.93455291 482.60805607 C268.50326476 482.61098524 266.07198134 482.61508978 263.64069557 482.61956024 C256.03584222 482.63323869 248.43099966 482.6429034 240.82613486 482.64676213 C232.04372842 482.65124262 223.26147763 482.66878856 214.47911853 482.69776273 C207.69349033 482.71937315 200.90790595 482.72946609 194.1222437 482.73080325 C190.0682533 482.73185183 186.01440915 482.73777057 181.96045494 482.75562286 C178.14618975 482.77209237 174.3321809 482.77426462 170.51789284 482.76548386 C169.11867207 482.76471285 167.71943758 482.76906463 166.32025146 482.77894211 C164.40849927 482.79164537 162.49664427 482.78399897 160.58486938 482.77536011 C159.51542178 482.77682667 158.44597418 482.77829323 157.34411907 482.77980423 C152.2009673 482.11784322 148.79858285 479.22987018 145.45433044 475.40786743 C144.24231268 471.77181415 144.29209876 468.42063645 144.28636169 464.63442993 C144.28303329 463.87367157 144.2797049 463.11291321 144.27627563 462.32910156 C144.27121577 460.72027185 144.26886702 459.11143166 144.26902771 457.50259399 C144.26684477 455.04896613 144.24868926 452.59579056 144.22972107 450.14224243 C144.22678619 448.5771398 144.22480203 447.01203503 144.22386169 445.44692993 C144.21667618 444.71656525 144.20949066 443.98620056 144.2020874 443.23370361 C144.22040601 439.12140201 144.8270918 436.15318128 146.45433044 432.40786743 C145.68810018 432.4115546 144.92186991 432.41524178 144.13242054 432.41904068 C125.44299577 432.50758074 106.75361316 432.57366871 88.06402302 432.61511612 C79.02567296 432.63569525 69.98746336 432.66372636 60.94920349 432.70962524 C53.06662035 432.74963601 45.18413899 432.77533399 37.30145711 432.78422141 C33.13197831 432.78941219 28.96279056 432.80151403 24.79340553 432.83078766 C20.85927936 432.85818256 16.92556077 432.86626454 12.99134827 432.86029816 C11.55677249 432.86138775 10.12218136 432.86919729 8.68768883 432.88468933 C-3.56169487 433.01035432 -15.05327406 431.56717288 -24.61598206 423.31802368 C-32.96520444 415.05330759 -36.9187655 406.18988998 -37.0749962 394.3875148 C-37.08086081 392.27018377 -37.06740059 390.1534508 -37.05360413 388.03616333 C-37.05821898 386.48785362 -37.06457581 384.93954829 -37.0725131 383.39125204 C-37.08914942 379.15744103 -37.08098617 374.92399253 -37.06856823 370.69018054 C-37.05949663 366.11613735 -37.07349792 361.54215533 -37.08448792 356.96812439 C-37.10225522 348.01582313 -37.09844112 339.06365618 -37.08683735 330.1113497 C-37.07779627 322.83429783 -37.07658195 315.55728354 -37.08093262 308.28022766 C-37.08154555 307.24370932 -37.08215848 306.20719099 -37.08278999 305.139263 C-37.08406892 303.03346065 -37.08536577 300.9276583 -37.08668035 298.82185596 C-37.09808091 279.08526295 -37.08498066 259.3487443 -37.06347889 239.61216348 C-37.04560839 222.68481532 -37.04871265 205.75757689 -37.06715393 188.83023071 C-37.08856988 169.16327118 -37.09698233 149.49637679 -37.08470488 129.82940722 C-37.08343071 127.73144055 -37.08217322 125.63347388 -37.08093262 123.5355072 C-37.08031552 122.50332285 -37.07969841 121.4711385 -37.07906261 120.40767583 C-37.07561189 113.14109677 -37.08143207 105.8745591 -37.09085083 98.60798645 C-37.10208023 89.74996416 -37.09901094 80.89208362 -37.07772785 72.03407753 C-37.06723014 67.51634539 -37.06307378 62.99884943 -37.07632446 58.48111916 C-37.08828073 54.34205061 -37.08163285 50.2034362 -37.06041425 46.0644086 C-37.05596185 44.57060054 -37.05818376 43.07675378 -37.06791741 41.5829708 C-37.14032918 29.54261385 -35.20058404 19.32168961 -26.54566956 10.40786743 C-18.43052287 3.6270905 -10.56044557 -0.05551475 0 0 Z M-17.54566956 20.40786743 C-25.54676339 29.47966725 -24.83879262 41.66574731 -24.79963684 53.06498718 C-24.8019446 54.535634 -24.80512323 56.00627966 -24.80909133 57.47692293 C-24.81740461 61.49594591 -24.81332991 65.51487334 -24.80711889 69.53389657 C-24.80258121 73.87681658 -24.80958466 78.21972053 -24.81507874 82.56263733 C-24.82396011 91.06137601 -24.82205638 99.56007931 -24.81625345 108.05881936 C-24.81173233 114.96687839 -24.81112601 121.87492751 -24.81330109 128.78298759 C-24.81360755 129.76706279 -24.81391402 130.75113799 -24.81422977 131.76503364 C-24.81486924 133.76429873 -24.81551766 135.7635638 -24.81617495 137.76282888 C-24.82187449 156.49837192 -24.8153261 175.23389538 -24.80457422 193.96943521 C-24.79563766 210.03917307 -24.79719235 226.10888204 -24.80641174 242.17861938 C-24.81711861 260.84976519 -24.82132667 279.52089384 -24.81518722 298.19204229 C-24.81455013 300.1835492 -24.81392139 302.17505612 -24.81330109 304.16656303 C-24.81299254 305.14637 -24.81268398 306.12617697 -24.81236608 307.13567506 C-24.8106405 314.03452124 -24.81355128 320.93335652 -24.81826019 327.832201 C-24.82387358 336.2407921 -24.82234286 344.64934586 -24.8116987 353.05793268 C-24.8064484 357.34662736 -24.80437436 361.63525982 -24.81099701 365.92395401 C-24.81697173 369.85251729 -24.81365628 373.78096088 -24.80304191 377.70951336 C-24.80081435 379.12793735 -24.80192965 380.54637152 -24.80679348 381.96478892 C-24.8413864 392.89434142 -24.7334563 403.55940554 -17.04566956 412.06802368 C-8.33552005 420.27411361 2.14418799 419.84019936 13.45140076 419.78018188 C15.06036107 419.78261321 16.66931987 419.78633583 18.27827454 419.79124451 C22.62512769 419.80060746 26.97175387 419.79126856 31.31858921 419.77791238 C35.87529068 419.76655583 40.43198167 419.77070843 44.98869324 419.7726593 C52.63482858 419.77354059 60.28087497 419.76249347 67.92698669 419.74404907 C76.76406677 419.7228537 85.6010169 419.71937899 94.43811727 419.72561103 C102.94960954 419.73130574 111.46105612 419.72565971 119.97254181 419.71443748 C123.59124854 419.70979602 127.20992728 419.70891565 130.82863617 419.71102333 C135.08701016 419.71290727 139.3452519 419.70479424 143.60359573 419.68896294 C145.16567818 419.68472229 146.72777405 419.68386806 148.28985977 419.68665314 C150.42256672 419.68987871 152.55487937 419.68078421 154.68754578 419.66856384 C155.88063984 419.66651097 157.0737339 419.6644581 158.30298233 419.66234303 C161.46302344 419.40716546 163.6629744 418.89695912 166.45433044 417.40786743 C167.45965892 414.89108381 167.45965892 414.89108381 167.82933044 411.90786743 C169.49488422 404.23343732 172.60545622 398.42929638 178.85276794 393.52505493 C188.00264946 387.69728424 196.66261879 387.09924036 207.26683044 386.99380493 C209.08102478 386.96475571 209.08102478 386.96475571 210.93186951 386.93511963 C214.77261939 386.87562004 218.61339973 386.82905675 222.45433044 386.78286743 C225.06762434 386.74466043 227.68090601 386.70560713 230.29417419 386.66567993 C236.68078394 386.56994285 243.06746809 386.4848095 249.45433044 386.40786743 C247.12395919 384.04834334 244.9166907 381.88370031 242.16136169 380.03286743 C241.53938904 379.61102173 240.91741638 379.18917603 240.27659607 378.75454712 C239.61337341 378.31014282 238.95015076 377.86573853 238.26683044 377.40786743 C236.83529332 376.43471406 235.40432327 375.46072608 233.97386169 374.48599243 C233.23345642 373.98261353 232.49305115 373.47923462 231.73020935 372.96060181 C204.80684513 354.59194739 204.80684513 354.59194739 201.45433044 346.40786743 C201.05589294 342.97036743 201.05589294 342.97036743 201.07933044 339.40786743 C201.07159607 338.23224243 201.06386169 337.05661743 201.05589294 335.84536743 C201.78876645 329.52253716 204.70446368 325.49496209 209.45433044 321.40786743 C213.97367682 318.71438879 217.2751599 318.02121975 222.51683044 318.09536743 C223.70405701 318.09923462 224.89128357 318.10310181 226.11448669 318.10708618 C229.31037572 318.39490309 231.57421626 319.04131042 234.45433044 320.40786743 C240.28658231 313.4559569 245.44205173 306.17216769 250.54026794 298.67739868 C253.4282589 294.43280942 256.36771423 290.22634077 259.32933044 286.03286743 C259.82022156 285.33741821 260.31111267 284.64196899 260.81687927 283.92544556 C263.49771982 280.13868779 266.20108462 276.3693573 268.92698669 272.61489868 C269.79444519 271.41969604 269.79444519 271.41969604 270.6794281 270.2003479 C271.78454899 268.68053094 272.89212073 267.16249166 274.00267029 265.64663696 C277.36879697 261.02234446 280.49029372 256.29971955 283.45433044 251.40786743 C282.69120544 250.74786743 281.92808044 250.08786743 281.14183044 249.40786743 C276.88781865 245.10551459 275.32918411 239.93632246 275.01683044 233.97036743 C275.17149392 229.02972854 276.86050746 223.00169042 280.45433044 219.40786743 C280.54964025 216.36384321 280.57984683 213.34255035 280.56785583 210.29824829 C280.56807487 208.86425438 280.56807487 208.86425438 280.56829834 207.40129089 C280.5675988 204.22507498 280.55980447 201.04891691 280.55198669 197.87271118 C280.55012266 195.6769565 280.54869869 193.48120141 280.54769897 191.28544617 C280.54387263 185.4936611 280.53404135 179.70190093 280.522995 173.91012573 C280.51278338 168.00507952 280.50820189 162.1000293 280.50315857 156.19497681 C280.49241919 144.59926271 280.47534138 133.00356714 280.45433044 121.40786743 C279.65634537 121.4042218 278.85836029 121.40057617 278.03619385 121.39682007 C270.46116389 121.35871958 262.88661385 121.30162121 255.31189442 121.22396469 C251.41900936 121.18470362 247.52634327 121.15241187 243.63328552 121.13687134 C239.86581477 121.12156193 236.0989469 121.08687028 232.33174706 121.03955841 C230.90513583 121.02488994 229.47843847 121.01683492 228.05175209 121.01598358 C215.31371136 121.00075905 203.04660775 119.49528804 193.45433044 110.40786743 C192.62481873 109.63829712 192.62481873 109.63829712 191.77854919 108.85317993 C182.37755836 99.10227629 182.85108143 86.46429597 182.84495544 73.83364868 C182.82994939 72.05573539 182.81321721 70.27783592 182.79484558 68.49995422 C182.75143176 63.8558279 182.73123104 59.21188954 182.71611023 54.56759644 C182.69644481 49.81437179 182.65448584 45.06134738 182.61448669 40.30825806 C182.53946642 31.00819001 182.489005 21.70816739 182.45433044 12.40786743 C158.87992367 12.36111877 135.30552386 12.32586452 111.73108006 12.30424309 C100.78472912 12.29393645 89.83840702 12.27988779 78.89207458 12.25698853 C69.34975777 12.23703594 59.80746183 12.22414654 50.26512474 12.21969044 C45.21390983 12.21708624 40.16275465 12.2109779 35.11155891 12.19640732 C30.35347121 12.18279393 25.59546762 12.17865239 20.83736229 12.18165207 C19.09473844 12.18110359 17.35211166 12.17714859 15.6095047 12.16945648 C-2.23145724 11.99743507 -2.23145724 11.99743507 -17.54566956 20.40786743 Z M195.45433044 24.40786743 C195.36137562 32.87497652 195.29043723 41.34187002 195.24708176 49.80936432 C195.22626618 53.74179698 195.19806037 57.67387882 195.15257263 61.60610962 C195.10889744 65.40572017 195.08514805 69.2049947 195.07482147 73.00483704 C195.0674687 74.4496438 195.05311076 75.89443357 195.03141022 77.33909607 C194.89941954 86.49579543 195.17249725 93.32543937 201.31370544 100.61489868 C201.93761169 101.14470337 202.56151794 101.67450806 203.20433044 102.22036743 C204.12472107 103.0344104 204.12472107 103.0344104 205.06370544 103.86489868 C212.72097751 108.80709225 219.83538824 108.81475049 228.70433044 108.70083618 C230.58511292 108.69446892 230.58511292 108.69446892 232.50389099 108.68797302 C235.81168831 108.67408912 239.11903427 108.64721097 242.42668152 108.61386108 C245.81214418 108.58298317 249.19767333 108.56943013 252.58323669 108.55435181 C259.207109 108.52137006 265.83068286 108.47123581 272.45433044 108.40786743 C271.51377057 107.30538396 270.57246029 106.20354067 269.63084412 105.10195923 C269.10673447 104.48830002 268.58262482 103.87464081 268.04263306 103.24238586 C265.67809416 100.51130039 263.22830381 97.86389632 260.76683044 95.22036743 C259.71457802 94.08510746 258.6624986 92.94968713 257.61058044 91.81411743 C257.08464294 91.24692993 256.55870544 90.67974243 256.01683044 90.09536743 C249.54386386 83.10456352 243.13024434 76.06102863 236.76683044 68.97036743 C234.17818041 66.10186334 231.56847899 63.25310093 228.95433044 60.40786743 C224.86515596 55.95721896 220.81063961 51.47708661 216.77464294 46.97817993 C213.67947323 43.54952392 210.55095963 40.15199658 207.4216156 36.75454712 C204.10475149 33.14408217 200.87074951 29.4721693 197.69651794 25.73599243 C197.28659607 25.29771118 196.87667419 24.85942993 196.45433044 24.40786743 C196.12433044 24.40786743 195.79433044 24.40786743 195.45433044 24.40786743 Z M288.57933044 229.15786743 C286.85432882 232.60787068 287.42766871 234.750385 288.45433044 238.40786743 C292.27943912 242.77734641 296.80915745 246.00869195 301.51683044 249.34536743 C302.30049988 249.90602905 303.08416931 250.46669067 303.8915863 251.04434204 C311.40322529 256.4049174 318.96606792 261.69309504 326.53636169 266.97036743 C329.77256149 269.22785461 332.99906506 271.49808135 336.21604919 273.78286743 C336.97329285 274.32032593 337.7305365 274.85778442 338.51072693 275.41152954 C339.91649301 276.41050744 341.32106504 277.41116904 342.72410583 278.41397095 C346.0120651 280.74863377 349.33049308 283.03481869 352.70433044 285.24380493 C353.33339294 285.65807739 353.96245544 286.07234985 354.61058044 286.49917603 C357.82979688 288.08576548 360.15363601 287.48694061 363.45433044 286.40786743 C366.41760038 284.30238616 367.28655372 282.93356784 368.39183044 279.47036743 C368.46915673 275.68137931 367.64617357 274.47000121 365.45433044 271.40786743 C362.85458291 269.03231091 362.85458291 269.03231091 359.76683044 266.78286743 C359.19867615 266.35538208 358.63052185 265.92789673 358.04515076 265.48745728 C352.35050455 261.24496125 346.48905352 257.24480913 340.61839294 253.25161743 C336.40950981 250.38633168 332.23908171 247.46890758 328.07933044 244.53286743 C327.38508972 244.04471558 326.690849 243.55656372 325.97557068 243.05361938 C322.14348114 240.34858913 318.35122435 237.59884789 314.59104919 234.79458618 C313.3823114 233.90005737 313.3823114 233.90005737 312.14915466 232.98745728 C310.5981906 231.83702913 309.05383885 230.67761477 307.51731873 229.50796509 C300.40145161 224.24544239 295.506412 222.69259131 288.57933044 229.15786743 Z M293.45433044 259.40786743 C292.72729919 260.43782837 292.00026794 261.46778931 291.25120544 262.52896118 C275.98558044 284.15526326 260.71995544 305.78156535 245.45433044 327.40786743 C249.57195765 331.87961057 254.15795549 335.11036826 259.20433044 338.47036743 C260.89389076 339.609869 262.58267514 340.75052178 264.27073669 341.89224243 C265.12683533 342.47038696 265.98293396 343.04853149 266.86497498 343.64419556 C270.99133528 346.45475815 275.0685608 349.33360969 279.14183044 352.22036743 C279.8782074 352.74187378 280.61458435 353.26338013 281.37327576 353.8006897 C283.0678021 355.00189614 284.76120552 356.20468647 286.45433044 357.40786743 C290.70278461 353.42445444 294.0295077 349.08922584 297.39183044 344.34536743 C297.95249207 343.561698 298.51315369 342.77802856 299.09080505 341.97061157 C304.45075643 334.45984695 309.73774644 326.89746375 315.01683044 319.32974243 C318.33488138 314.57411965 321.67170785 309.8319772 325.01683044 305.09536743 C325.4932196 304.42046265 325.96960876 303.74555786 326.46043396 303.05020142 C326.91345886 302.40897339 327.36648376 301.76774536 327.83323669 301.10708618 C328.26523376 300.49397583 328.69723083 299.88086548 329.14231873 299.24917603 C330.0514506 297.97327863 330.97257328 296.70587284 331.90306091 295.44546509 C334.5411834 292.26238653 334.5411834 292.26238653 335.45433044 288.40786743 C333.84495275 287.00743056 333.84495275 287.00743056 331.71214294 285.60708618 C330.90132263 285.04795532 330.09050232 284.48882446 329.25511169 283.91275024 C328.37210388 283.31301392 327.48909607 282.71327759 326.57933044 282.09536743 C324.74769483 280.83496494 322.91698601 279.57321468 321.08714294 278.31021118 C320.15160583 277.6655188 319.21606873 277.02082642 318.25218201 276.3565979 C313.17313623 272.81899377 308.18093835 269.16116767 303.19309998 265.49649048 C302.49555603 264.98771362 301.79801208 264.47893677 301.07933044 263.95474243 C300.47347107 263.5096936 299.86761169 263.06464478 299.24339294 262.60610962 C297.37959522 261.35781278 295.47948953 260.36803372 293.45433044 259.40786743 Z M327.45433044 323.40786743 C323.82433044 328.35786743 320.19433044 333.30786743 316.45433044 338.40786743 C327.11755357 346.93844593 338.10982821 354.95101962 349.39573669 362.63442993 C360.23778652 370.01970825 370.87472212 377.69891075 381.49485779 385.39810181 C389.61561939 391.27157552 397.82603624 397.01683488 406.05906677 402.7315979 C407.75994951 403.92192109 409.45160217 405.12548191 411.13670349 406.33804321 C412.01882507 406.96952271 412.90094666 407.6010022 413.80979919 408.25161743 C414.60797058 408.8284729 415.40614197 409.40532837 416.22850037 409.99966431 C419.35001863 411.97453733 421.77499672 412.55215503 425.45433044 412.40786743 C429.02820647 410.81947809 430.26522616 409.69152385 432.45433044 406.40786743 C433.06947885 403.10843507 433.31612118 401.53752852 432.45433044 398.40786743 C427.01575268 390.94563282 417.07624985 385.94092481 409.49729919 380.83755493 C404.70513434 377.599879 400.0053414 374.24800724 395.32933044 370.84536743 C389.56747107 366.65577912 383.78323014 362.50374165 377.95433044 358.40786743 C372.12541639 354.31198312 366.34181968 350.15910185 360.57933044 345.97036743 C354.16301549 341.31457949 347.68301815 336.7615696 341.14183044 332.28286743 C340.34728455 331.73831909 339.55273865 331.19377075 338.7341156 330.63272095 C335.02136246 328.10333293 331.31383959 325.72357292 327.45433044 323.40786743 Z M215.45433044 332.40786743 C213.42330745 335.45440192 212.44478528 337.6118052 212.75511169 341.32192993 C215.66952521 350.01632556 229.12898997 356.07451474 236.41136169 360.97817993 C241.20353448 364.21586122 245.90318298 367.5679047 250.57933044 370.97036743 C256.61838287 375.35823085 262.67340614 379.72070969 268.76683044 384.03286743 C269.46630798 384.52988159 270.16578552 385.02689575 270.88645935 385.53897095 C278.40357987 391.35497752 278.40357987 391.35497752 287.45433044 392.40786743 C290.15423706 390.60792969 291.99621694 389.32409443 293.45433044 386.40786743 C293.71572221 382.39986042 293.54103285 379.84067825 291.45433044 376.40786743 C289.94756851 374.99177507 289.94756851 374.99177507 288.13792419 373.81411743 C287.46503357 373.34747681 286.79214294 372.88083618 286.09886169 372.40005493 C285.37054138 371.90763306 284.64222107 371.41521118 283.89183044 370.90786743 C282.33828556 369.83518168 280.78490462 368.76225846 279.23167419 367.68911743 C278.4361615 367.14384399 277.6406488 366.59857056 276.82102966 366.03677368 C273.1750007 363.52735495 269.56562748 360.96688833 265.95433044 358.40786743 C264.54177811 357.41017692 263.12901683 356.41278218 261.71604919 355.41567993 C261.01528259 354.9210022 260.31451599 354.42632446 259.59251404 353.91665649 C257.42844658 352.38960273 255.26372928 350.86347413 253.09886169 349.33755493 C252.02269592 348.57813599 252.02269592 348.57813599 250.92478943 347.80337524 C249.49757857 346.79775592 248.0687277 345.79445973 246.63816833 344.79360962 C243.22656245 342.40036392 239.85894396 339.97275861 236.55589294 337.43130493 C235.93674011 336.96353638 235.31758728 336.49576782 234.67967224 336.01382446 C233.53094838 335.14259514 232.39320111 334.25659204 231.27000427 333.35269165 C226.12712071 329.48892938 220.94598568 328.74676394 215.45433044 332.40786743 Z M184.29808044 405.37271118 C183.85464294 406.02368774 183.41120544 406.67466431 182.95433044 407.34536743 C182.49026794 407.99376587 182.02620544 408.64216431 181.54808044 409.31021118 C180.1387415 411.77479607 180.1387415 411.77479607 179.45433044 416.40786743 C211.13433044 416.40786743 242.81433044 416.40786743 275.45433044 416.40786743 C273.10626639 409.20498522 273.10626639 409.20498522 268.64183044 404.53286743 C267.99601013 403.97857056 267.35018982 403.42427368 266.68479919 402.85317993 C262.07515282 399.86619366 257.546744 399.15560191 252.13279724 399.11734009 C250.90099228 399.10458038 249.66918732 399.09182068 248.40005493 399.07867432 C246.42178459 399.07533585 246.42178459 399.07533585 244.40354919 399.07192993 C243.02120835 399.06549331 241.63886884 399.05876432 240.25653076 399.05175781 C237.36417995 399.03981388 234.4719483 399.03607394 231.57957458 399.03726196 C227.89445746 399.03746487 224.210114 399.01018068 220.52517986 398.97571754 C217.67077201 398.9533505 214.81654739 398.94942741 211.96206093 398.95048141 C209.94979755 398.94700972 207.93759137 398.92540845 205.92544556 398.90338135 C197.65959037 398.94435736 190.60827093 399.62266442 184.29808044 405.37271118 Z M158.45433044 437.40786743 C157.31515827 440.82538396 157.34094564 443.4427468 157.35667419 447.04458618 C157.35989685 448.34331665 157.36311951 449.64204712 157.36643982 450.98013306 C157.37479513 452.35187851 157.38326008 453.7236233 157.39183044 455.09536743 C157.39684709 456.47882938 157.40140971 457.86229306 157.40550232 459.24575806 C157.41730515 462.63317138 157.43377026 466.02049776 157.45433044 469.40786743 C160.53870448 470.43599211 162.65012361 470.53606188 165.88206482 470.5415802 C167.00934998 470.54584518 168.13663513 470.55011017 169.29808044 470.55450439 C170.53558044 470.55405121 171.77308044 470.55359802 173.04808044 470.5531311 C174.3506781 470.55648972 175.65327576 470.55984833 176.99534607 470.56330872 C180.56964071 470.57214771 184.14391143 470.57448675 187.71821594 470.5751245 C190.70048018 470.57607366 193.68273883 470.57975191 196.66500092 470.5832966 C203.69894697 470.59144029 210.73288022 470.59388086 217.76683044 470.59317017 C225.02808427 470.59256895 232.28926392 470.6031297 239.55049896 470.61891383 C245.7815562 470.63197703 252.01258914 470.6373546 258.24365997 470.63671476 C261.96666064 470.63645947 265.68959535 470.6393278 269.4125824 470.64989281 C273.56196697 470.6613465 277.7111845 470.65683449 281.86058044 470.65078735 C283.09808044 470.65640686 284.33558044 470.66202637 285.61058044 470.66781616 C286.7378656 470.66362167 287.86515076 470.65942719 289.02659607 470.65510559 C290.49884644 470.65592274 290.49884644 470.65592274 292.00083923 470.6567564 C294.7102032 470.57520861 294.7102032 470.57520861 297.45433044 468.40786743 C298.16003938 464.0743222 297.96348314 459.66700628 297.95433044 455.28286743 C297.98268982 454.07114868 298.01104919 452.85942993 298.04026794 451.61099243 C298.05616649 444.3135582 297.50654137 438.9361932 292.45433044 433.40786743 C288.0933315 430.11052676 284.10891606 429.28692407 278.73049927 429.26742554 C277.78431732 429.26171539 276.83813538 429.25600525 275.86328125 429.25012207 C274.3163987 429.24844528 274.3163987 429.24844528 272.73826599 429.24673462 C271.64677246 429.24176971 270.55527893 429.23680481 269.43070984 429.23168945 C265.81748323 429.2170766 262.20430051 429.21026739 258.59104919 429.20474243 C256.08004759 429.19899043 253.56904601 429.1932327 251.05804443 429.18746948 C246.46449057 429.17830488 241.87094929 429.17200344 237.27738732 429.16897273 C230.52745879 429.16449415 223.77773298 429.14695204 217.02786607 429.11797214 C211.17166483 429.0937064 205.31553094 429.08602627 199.45928383 429.08429718 C196.97261768 429.08127142 194.48595238 429.0732455 191.99931908 429.060112 C188.51891633 429.04304139 185.03900621 429.04493451 181.55857849 429.05142212 C180.02080498 429.03759995 180.02080498 429.03759995 178.45196533 429.02349854 C169.88795405 429.07345896 164.23299608 430.60943727 158.45433044 437.40786743 Z " fill="#000000" transform="translate(51.54566955566406,14.592132568359375)"/>
<path d="M0 0 C2.1640625 0.05859375 2.1640625 0.05859375 4.0625 0.4375 C6.22821561 2.97661485 7.07609368 5.4714842 8.3125 8.5625 C10.14096471 11.5664063 11.52274961 12.78982878 14.84375 13.96484375 C21.96413253 15.4816858 28.99718919 15.3881819 35.3984375 11.7265625 C37.15821717 10.36335289 38.3108541 8.97643409 39.625 7.1875 C42.0625 4.4375 42.0625 4.4375 45.5 3.625 C49.93604548 4.63672967 50.87344907 6.2123268 53.5546875 9.6796875 C56.74490554 13.39885361 60.24676826 14.23714339 64.89453125 14.75 C71.17243375 15.00269545 77.22345393 14.86843375 82.0625 10.4375 C83.7953441 7.54774249 84.92778749 4.59802693 86.0625 1.4375 C87.95738952 -0.45738952 90.63389146 0.25730888 93.15234375 0.20703125 C95.0625 0.4375 95.0625 0.4375 97.0625 2.4375 C98.32245822 5.93755081 98.20729289 9.43679935 98.23046875 13.125 C98.23474884 13.7756543 98.23902893 14.42630859 98.24343872 15.09667969 C98.25344856 17.21035605 98.25348667 19.32380435 98.25 21.4375 C98.24906342 22.15824707 98.24812683 22.87899414 98.24716187 23.62158203 C98.1717292 50.3462987 95.66915222 76.56569012 77.0625 97.4375 C76.46953125 98.12328125 75.8765625 98.8090625 75.265625 99.515625 C68.05875155 107.31810783 57.78303426 114.05420526 47.0625 115.4375 C34.44872382 115.1119832 23.47011884 107.18654498 15.0625 98.4375 C0.15173573 82.44428461 -6.28942701 61.2189658 -6.203125 39.71484375 C-6.20503845 38.64754532 -6.2069519 37.58024689 -6.20892334 36.48060608 C-6.21027372 34.24789186 -6.2066583 32.01516947 -6.19824219 29.7824707 C-6.18743018 26.35285152 -6.1982253 22.92374479 -6.2109375 19.49414062 C-6.20961757 17.31770718 -6.20705864 15.14127404 -6.203125 12.96484375 C-6.20717346 11.93785873 -6.21122192 10.91087372 -6.21539307 9.85276794 C-6.20908875 8.90740677 -6.20278442 7.96204559 -6.19628906 6.98803711 C-6.19469788 6.15517685 -6.19310669 5.32231659 -6.19146729 4.46421814 C-5.68319702 0.40810294 -3.81412649 0.42379183 0 0 Z M42.58984375 22.30078125 C41.73519531 22.77902344 40.88054687 23.25726563 40 23.75 C34.41779326 26.81391799 30.21818184 27.61954585 23.875 27.625 C22.77961914 27.64336914 22.77961914 27.64336914 21.66210938 27.66210938 C16.47995641 27.67587949 12.04511699 26.86513545 7.0625 25.4375 C6.14172281 48.57025621 7.77926905 69.63786978 23.5 87.875 C29.6017264 94.25643202 36.73231616 100.91142205 45.9296875 101.67578125 C53.34545503 101.11173908 60.93206798 95.56793202 66.0625 90.4375 C81.71940767 71.22503959 85.75216784 49.61418929 85.0625 25.4375 C83.9075 25.7675 82.7525 26.0975 81.5625 26.4375 C70.41957262 28.86293214 59.40831625 28.39336303 49.0625 23.4375 C48.40894531 23.01597656 47.75539062 22.59445313 47.08203125 22.16015625 C44.98902618 21.17260078 44.98902618 21.17260078 42.58984375 22.30078125 Z " fill="#000000" transform="translate(84.9375,59.5625)"/>
<path d="M0 0 C0.97262976 -0.0055344 1.94525951 -0.01106879 2.9473629 -0.0167709 C6.20947118 -0.03039406 9.4708166 -0.01539871 12.73291016 -0.00050354 C15.07033616 -0.0042861 17.40775992 -0.00978561 19.74517822 -0.01687622 C26.09635001 -0.03085623 32.44725167 -0.01964297 38.79840851 -0.00316501 C44.7669086 0.00926703 50.73538098 0.00507612 56.70388961 0.00170528 C68.53066526 -0.00417292 80.35733444 0.00999664 92.18408203 0.03465271 C103.65938305 0.05857339 115.13454181 0.06565694 126.60986328 0.05516052 C139.10661056 0.04375029 151.60329204 0.04182254 164.10003853 0.05625862 C170.71488336 0.06380513 177.32967126 0.06768926 183.94451904 0.06175423 C190.16287685 0.05698771 196.38103734 0.0670729 202.5993576 0.08870888 C204.88386113 0.09428131 207.1683836 0.09473789 209.45288849 0.08975601 C212.56679428 0.08381623 215.68009417 0.09628372 218.79394531 0.11352539 C219.7020162 0.10751535 220.61008709 0.1015053 221.54567528 0.09531313 C226.28891001 0.14320363 229.5781881 0.34853575 233.39697266 3.50120544 C234.27412984 6.41544476 233.79088623 8.39913607 233.39697266 11.50120544 C230.32656705 13.54814252 229.71516802 13.75182157 226.25680542 13.75847435 C224.98614825 13.76814769 224.98614825 13.76814769 223.68982124 13.77801645 C222.75899664 13.77491924 221.82817204 13.77182204 220.86914062 13.76863098 C219.88047438 13.77316209 218.89180813 13.77769321 217.8731823 13.78236163 C214.54512802 13.7950684 211.21723607 13.79338122 207.88916016 13.79173279 C205.50937691 13.79771403 203.12959562 13.80451864 200.74981689 13.81208801 C194.94791064 13.82795352 189.14605404 13.83419806 183.34412718 13.83531277 C178.62978251 13.8362625 173.91545126 13.84036904 169.20111084 13.84671402 C155.84234358 13.86432827 142.48360848 13.87355239 129.12482953 13.87205307 C128.40446098 13.87197316 127.68409243 13.87189325 126.94189453 13.87181091 C126.22064919 13.87172915 125.49940385 13.87164739 124.7563026 13.87156315 C113.06051837 13.87074979 101.36486278 13.88989964 89.66911578 13.91808765 C77.66713541 13.94678613 65.66521785 13.96062968 53.66320229 13.95890009 C46.92203973 13.95823523 40.18101209 13.96376983 33.43988037 13.9852562 C27.10334984 14.00454764 20.76710519 14.00482554 14.43056488 13.99022293 C12.10006038 13.98812254 9.7695384 13.99290822 7.43906403 14.00494385 C4.26730263 14.02026822 1.09654288 14.01117313 -2.07519531 13.99568176 C-3.47143222 14.01111245 -3.47143222 14.01111245 -4.89587593 14.02685487 C-11.09837407 13.95951014 -11.09837407 13.95951014 -13.66726685 11.62655067 C-14.86072154 8.91591772 -15.18822652 7.42720135 -14.60302734 4.50120544 C-10.23033292 -0.31047437 -6.07921425 -0.06430213 0 0 Z " fill="#000000" transform="translate(68.60302734375,254.49879455566406)"/>
<path d="M0 0 C0.85904731 -0.00706559 1.71809462 -0.01413118 2.60317367 -0.02141088 C3.55247491 -0.0189958 4.50177615 -0.01658071 5.47984409 -0.01409245 C6.98606314 -0.02194746 6.98606314 -0.02194746 8.52271086 -0.02996117 C11.90914204 -0.04504028 15.29542319 -0.04566805 18.68188572 -0.04633427 C21.10093029 -0.05395037 23.51997243 -0.06237691 25.93901157 -0.07155704 C32.52566398 -0.09356156 39.1122806 -0.1023301 45.69896102 -0.10738349 C49.80935348 -0.11063727 53.91973655 -0.11715776 58.03012371 -0.12438488 C69.40424232 -0.14395303 80.77835218 -0.16035631 92.15248871 -0.16326141 C92.88069615 -0.16344898 93.60890359 -0.16363655 94.35917792 -0.16382981 C95.83551188 -0.16419606 97.31184584 -0.16455976 98.78817981 -0.16492092 C99.52106174 -0.16510373 100.25394368 -0.16528654 101.00903416 -0.16547489 C102.10969411 -0.16574572 102.10969411 -0.16574572 103.23258961 -0.16602201 C115.12892562 -0.16956552 127.02508083 -0.19659786 138.92135411 -0.23397278 C151.12670558 -0.27201286 163.33196723 -0.29141857 175.53737932 -0.29172093 C182.39372806 -0.29230643 189.24986107 -0.30085777 196.10615444 -0.32971859 C202.55183486 -0.3567257 208.99719987 -0.35817403 215.44291973 -0.34206295 C217.81374256 -0.34023858 220.18458933 -0.34702731 222.55535984 -0.36288166 C225.78208772 -0.38315109 229.00728885 -0.37290277 232.23399448 -0.35466862 C233.65460026 -0.37446857 233.65460026 -0.37446857 235.10390514 -0.39466852 C237.48244488 -0.36378305 239.60843025 -0.29728891 241.92041111 0.26006222 C244.07268715 2.59535789 244.07268715 2.59535789 244.92041111 5.26006222 C243.72041111 10.46006222 243.72041111 10.46006222 241.92041111 12.26006222 C238.76704302 12.36703658 235.63530666 12.40784391 232.48123264 12.40723324 C230.97629523 12.41274827 230.97629523 12.41274827 229.44095504 12.41837472 C226.05145228 12.42946014 222.66198011 12.43326357 219.27246189 12.43706417 C216.85356644 12.44332507 214.43467195 12.44997153 212.01577854 12.45697689 C204.73692252 12.47624041 197.458069 12.48680997 190.17919523 12.49570468 C186.75465447 12.50008402 183.33011527 12.50545172 179.90557575 12.51069355 C168.52720873 12.52770763 157.14884269 12.54220305 145.7704649 12.54944229 C142.81605242 12.5513523 139.86163996 12.55327262 136.90722752 12.55522823 C135.80571931 12.55595384 135.80571931 12.55595384 134.68195842 12.55669411 C122.77912542 12.56499909 110.87639277 12.59034303 98.97360362 12.62280891 C86.76377145 12.6558418 74.55399034 12.67388761 62.34411323 12.67708653 C55.48442324 12.6792551 48.62487959 12.68805413 41.76523304 12.71354771 C35.31550256 12.73746194 28.8659644 12.74110413 22.41619587 12.73078632 C20.04376189 12.73028831 17.67131536 12.73668622 15.29892063 12.75034237 C12.07014383 12.767894 8.84233229 12.76103769 5.61355686 12.74780941 C4.66580423 12.75877866 3.71805159 12.7697479 2.74157917 12.78104955 C-3.55069199 12.71843205 -3.55069199 12.71843205 -6.19712925 10.42489052 C-7.44245944 7.36987709 -6.96437556 5.39084583 -6.07958889 2.26006222 C-3.70072294 -0.11880373 -3.23218855 0.00846518 0 0 Z " fill="#000000" transform="translate(61.079588890075684,207.7399377822876)"/>
<path d="M0 0 C1.13536057 -0.00724325 1.13536057 -0.00724325 2.29365772 -0.01463282 C4.82575829 -0.02588982 7.35684579 -0.008596 9.88890076 0.00863647 C11.7057879 0.00649027 13.52267369 0.00261207 15.33955383 -0.00286865 C20.27132249 -0.01256218 25.20272913 0.00274099 30.13445401 0.02303743 C35.29356046 0.0406032 40.45265564 0.03708346 45.61178589 0.03631592 C54.27469441 0.03818892 62.9374628 0.05555365 71.60032654 0.08285522 C81.61999588 0.11431591 91.63951179 0.12485107 101.65922695 0.12338412 C111.29411994 0.12216395 120.9289629 0.13237061 130.56384087 0.14896774 C134.6662275 0.15603376 138.76859643 0.15969429 142.87098885 0.16075516 C147.699749 0.16276244 152.52838006 0.17495906 157.35709763 0.19508743 C159.13083926 0.20093482 160.90459574 0.20338869 162.67834663 0.20223236 C165.09624905 0.20125248 167.5137887 0.21254677 169.93164062 0.22705078 C170.6364041 0.22395358 171.34116757 0.22085637 172.0672875 0.21766531 C175.65380933 0.25328641 178.40846085 0.41494591 181.40232849 2.49447632 C182.80167862 5.29317658 182.65498254 7.39946424 182.40232849 10.49447632 C181.35643768 12.16165257 181.35643768 12.16165257 179.40232849 13.49447632 C176.81737803 13.79126598 174.47244347 13.90360414 171.88658142 13.88215637 C171.11434345 13.88754191 170.34210547 13.89292745 169.54646635 13.89847618 C166.95073372 13.91281954 164.35550649 13.90563653 161.75975037 13.89852905 C159.90212594 13.90422926 158.04450501 13.91119215 156.18688965 13.91932678 C151.13532382 13.93731092 146.08393118 13.93608008 141.03234291 13.9303844 C136.81983096 13.92730046 132.60735266 13.93337604 128.39484549 13.93942314 C118.46029979 13.95348371 108.52584006 13.95189404 98.59129333 13.94052124 C88.33073536 13.92903504 78.07043861 13.94312068 67.80991507 13.96991771 C59.00986176 13.99204285 50.20989065 13.9987194 41.4098115 13.9928413 C36.14976149 13.98946329 30.88987901 13.99194274 25.62985229 14.00909233 C20.68531492 14.02450897 15.74116595 14.02066493 10.79664421 14.00178719 C8.97893793 13.99808677 7.1612032 14.00125178 5.34352303 14.01167297 C2.86791996 14.02478581 0.39362131 14.01342325 -2.08192444 13.99568176 C-3.16883096 14.01008927 -3.16883096 14.01008927 -4.27769518 14.02478784 C-7.51144887 13.97688184 -9.16185295 13.91603902 -11.5361557 11.61940098 C-12.88912498 8.91104962 -13.19472308 7.47973416 -12.59767151 4.49447632 C-8.69218736 0.45804365 -5.39013469 -0.07892728 0 0 Z " fill="#000000" transform="translate(66.59767150878906,302.5055236816406)"/>
<path d="M0 0 C0.6694436 -0.00382555 1.3388872 -0.00765109 2.02861696 -0.01159257 C4.27644599 -0.02192841 6.52401986 -0.0179294 8.77186584 -0.01396179 C10.38156369 -0.01830795 11.99125946 -0.02349078 13.60095215 -0.02944946 C17.97695981 -0.04286108 22.35288122 -0.04341574 26.72890544 -0.04088616 C30.37963324 -0.03981791 34.03034348 -0.04469607 37.68106753 -0.04949158 C46.29240163 -0.06059425 54.90369211 -0.06101991 63.51502991 -0.05497742 C72.40428929 -0.0489359 81.29339046 -0.06125139 90.18262285 -0.08254749 C97.80986922 -0.1001496 105.43706517 -0.10616705 113.06433111 -0.10290974 C117.62183879 -0.10109452 122.17923362 -0.10375684 126.73672295 -0.11762428 C131.02212943 -0.13017544 135.30728885 -0.12828438 139.59269142 -0.11521339 C141.16648313 -0.11284213 142.74029208 -0.11560195 144.31406403 -0.12383652 C146.46072271 -0.13425966 148.60654559 -0.12624004 150.75317383 -0.11352539 C152.55588698 -0.113777 152.55588698 -0.113777 154.39501858 -0.1140337 C157.72555009 0.29582699 159.1411094 0.83895306 161.44007874 3.26069641 C162.17509501 9.14082657 162.17509501 9.14082657 160.32789612 11.95521641 C157.50489024 13.90740615 155.20646585 13.64157271 151.79750061 13.64837646 C151.11918434 13.653762 150.44086807 13.65914754 149.74199677 13.66469628 C147.46409072 13.679029 145.18676144 13.67185943 142.90882874 13.66474915 C141.27780183 13.67044992 139.64677892 13.67741304 138.01576233 13.68554688 C133.58193836 13.70352476 129.14831179 13.70230138 124.71446228 13.69660449 C121.0164115 13.69351966 117.31839903 13.69959713 113.6203537 13.70564324 C104.89877146 13.71970173 96.17728714 13.71811586 87.45570374 13.70674133 C78.44935825 13.6952552 69.44331036 13.70934103 60.43700409 13.73613781 C52.71124926 13.75826631 44.98558805 13.76493874 37.25980377 13.7590614 C32.64249548 13.75568419 28.02537805 13.75815741 23.40809631 13.77531242 C19.06763125 13.79073451 14.72760854 13.78687917 10.38716125 13.76800728 C8.79198799 13.76430836 7.19678228 13.76746763 5.60163879 13.77789307 C3.42812875 13.79101673 1.25610192 13.77963504 -0.91734314 13.76190186 C-2.74356201 13.76158793 -2.74356201 13.76158793 -4.60667419 13.76126766 C-7.55992126 13.26069641 -7.55992126 13.26069641 -9.4828949 11.45593357 C-11.11788591 8.12343111 -10.47089507 5.77445251 -9.55992126 2.26069641 C-5.94446598 -0.14960711 -4.3023807 0.00735142 0 0 Z " fill="#000000" transform="translate(64.55992126464844,350.7393035888672)"/>
<path d="M0 0 C1.50889469 3.01778937 1.50026276 4.62322637 1 8 C-0.24389648 9.73022461 -0.24389648 9.73022461 -1.93359375 11.58984375 C-2.56958496 12.29044922 -3.20557617 12.99105469 -3.86083984 13.71289062 C-7.715945 17.83462369 -11.60609296 21.91271829 -15.5625 25.9375 C-16.38685547 26.79923828 -17.21121094 27.66097656 -18.06054688 28.54882812 C-18.86685547 29.36673828 -19.67316406 30.18464844 -20.50390625 31.02734375 C-21.22392822 31.76718506 -21.9439502 32.50702637 -22.68579102 33.26928711 C-25.50042916 35.37425281 -27.51803725 35.77774077 -31 36 C-35.36164926 34.1104035 -38.47258729 30.79883567 -41.75 27.4375 C-42.24371094 26.94314453 -42.73742187 26.44878906 -43.24609375 25.93945312 C-47.89504828 21.23318272 -47.89504828 21.23318272 -48.25 17.0625 C-48 14 -48 14 -46.9375 12.125 C-43.63352513 10.20656298 -41.76373735 10.32129326 -38 11 C-35.01291962 13.39697534 -32.49271547 16.09938564 -30 19 C-24.28074135 14.22661874 -19.07150616 9.12462821 -13.8984375 3.77148438 C-13.30804688 3.17013672 -12.71765625 2.56878906 -12.109375 1.94921875 C-11.58311523 1.40612061 -11.05685547 0.86302246 -10.51464844 0.3034668 C-6.82233041 -2.87404545 -4.13264379 -1.70696156 0 0 Z " fill="#000000" transform="translate(154,100)"/>
</svg>
