<?xml version="1.0" encoding="UTF-8"?>
<svg version="1.1" xmlns="http://www.w3.org/2000/svg" width="512" height="512">
<path d="M0 0 C0.78155624 -0.00523668 1.56311247 -0.01047336 2.36835223 -0.01586872 C4.97200528 -0.03080052 7.57546062 -0.03157237 10.17915344 -0.03224182 C12.05232065 -0.03986797 13.92548473 -0.04829625 15.79864502 -0.0574646 C20.87739274 -0.07937323 25.95608027 -0.08820378 31.03486991 -0.09329104 C34.2118302 -0.09693932 37.38877483 -0.10318188 40.56572914 -0.11029243 C51.6605104 -0.13477561 62.75524499 -0.1478361 73.85005188 -0.15138245 C84.17302934 -0.15501543 94.49570907 -0.18489682 104.81859559 -0.22678703 C113.69614349 -0.26154218 122.57359298 -0.2769318 131.45120841 -0.27762848 C136.74675839 -0.27841959 142.042005 -0.28708199 147.33748436 -0.31562614 C152.32235784 -0.34189588 157.30667834 -0.34396237 162.29158974 -0.3279705 C164.11359493 -0.32616301 165.93563258 -0.33278302 167.75756836 -0.34878922 C180.05001053 -0.45013434 191.67269443 0.21668607 201.0045929 9.39134216 C201.81122375 10.16961365 202.61785461 10.94788513 203.44892883 11.7497406 C204.2742511 12.58279724 205.09957336 13.41585388 205.9499054 14.27415466 C206.84483704 15.15619568 207.73976868 16.03823669 208.66181946 16.94700623 C211.48477441 19.74629687 214.28416672 22.5678445 217.0749054 25.39915466 C218.94942208 27.30071693 220.82752159 29.19849299 222.7077179 31.09446716 C223.52385559 31.92220642 224.33999329 32.74994568 225.18086243 33.60276794 C227.27258443 35.62072088 229.37520019 37.51901271 231.57775879 39.40795898 C236.11816039 43.36942519 240.40184107 47.55692619 244.67329407 51.80467224 C245.92120979 53.04032173 245.92120979 53.04032173 247.19433594 54.30093384 C249.92186615 57.0038302 252.64540333 59.71069399 255.36787415 62.41868591 C256.30309717 63.34858526 257.2383202 64.27848461 258.20188332 65.23656273 C262.13240573 69.1455162 266.06151031 73.0558857 269.98691845 76.96997547 C275.58000125 82.54681265 281.18141862 88.11496815 286.79475993 93.6714161 C290.76132765 97.59916269 294.7181507 101.53656148 298.66799146 105.48112792 C301.01885957 107.82836321 303.37486044 110.17000992 305.73892784 112.50396156 C308.37612711 115.10945143 310.99701926 117.73037421 313.61470032 120.35545349 C314.38831909 121.11266693 315.16193787 121.86988037 315.95899963 122.65003967 C323.98078179 130.76463908 328.01570721 138.93681732 328.15522766 150.33763123 C328.16512726 151.04047241 328.17502686 151.7433136 328.18522644 152.467453 C328.21673324 154.78319466 328.24155588 157.09895682 328.26631165 159.41477966 C328.28689053 161.02332584 328.30788725 162.63186672 328.32928467 164.24040222 C328.38440887 168.46865036 328.4338606 172.69694652 328.48213196 176.92527771 C328.53241756 181.2421342 328.58806674 185.55892118 328.64326477 189.87571716 C328.75072826 198.34180418 328.85219932 206.80794944 328.9499054 215.27415466 C329.89301575 214.95035828 330.8361261 214.62656189 331.80781555 214.29295349 C337.89464527 212.31934507 343.98135679 212.57666915 349.86951828 215.14748383 C356.60849174 218.79709539 362.11151268 225.28392388 367.49580383 230.65892029 C368.20255753 231.36070908 368.90931122 232.06249786 369.63748169 232.78555298 C371.94749347 235.08109648 374.25371711 237.3803938 376.5592804 239.68040466 C377.35232826 240.47062515 378.14537613 241.26084564 378.96245575 242.07501221 C383.15189581 246.24952899 387.33850335 250.42686132 391.5226593 254.60667419 C395.83550395 258.9140166 400.1575616 263.21198947 404.48182297 267.50786591 C407.81718199 270.82458697 411.14580035 274.14801087 414.4726181 277.47329712 C416.06329716 279.06095632 417.65646896 280.64612221 419.2522049 282.22869873 C421.48249344 284.44188871 423.70307673 286.6643991 425.92158508 288.88938904 C426.57723953 289.5358287 427.23289398 290.18226837 427.90841675 290.84829712 C433.82412908 296.81818094 438.01111714 302.8245922 438.1999054 311.46165466 C438.00570333 320.60409025 434.81086372 326.49397828 428.44599915 333.03196716 C423.26834292 337.68294474 419.10348007 340.37598242 411.9577179 340.14524841 C410.49670297 340.04348946 409.03576643 339.94059962 407.5749054 339.83665466 C402.54889029 339.49524817 399.18609145 339.64399688 395.18818665 342.92649841 C392.15843038 345.8229593 389.50979563 348.95961471 386.9499054 352.27415466 C390.7979515 356.26907276 394.88205807 359.79695018 399.1999054 363.27415466 C399.89664368 363.83811951 400.59338196 364.40208435 401.31123352 364.98313904 C406.98860799 369.55446558 412.76821018 373.98276259 418.5761261 378.38621521 C425.58666215 383.71872737 432.40362555 389.27656336 439.21504211 394.85960388 C441.60912147 396.81165789 444.02881389 398.73076308 446.4499054 400.64915466 C447.95151371 401.85548874 449.45162256 403.06369277 450.9499054 404.27415466 C452.04238586 405.14427185 452.04238586 405.14427185 453.15693665 406.03196716 C459.63027029 411.38838053 463.70577199 417.11456432 465.9499054 425.27415466 C467.03000312 437.28082242 465.66289946 446.53914218 458.3874054 456.39915466 C450.94749331 465.17797486 441.19706181 472.16676264 429.63349915 473.71946716 C419.30940376 474.24077165 411.62530384 471.50272715 403.8874054 464.66087341 C397.21026418 458.39687168 391.64314502 451.29706253 386.21064758 443.95823669 C384.02916903 441.04424773 381.76856843 438.19294991 379.5124054 435.33665466 C378.58653624 434.16094263 377.66075522 432.98516119 376.73506165 431.80931091 C376.27502747 431.22552673 375.81499329 430.64174255 375.34101868 430.04026794 C373.49913084 427.70186558 371.66014584 425.36119042 369.82148743 423.02024841 C368.90999064 421.85986661 367.99820856 420.69970885 367.08613586 419.53977966 C364.7273015 416.53961877 362.37257652 413.53635742 360.02412415 410.52806091 C355.44822426 404.67293494 350.86401984 398.85233862 345.9499054 393.27415466 C337.72209486 399.57820497 337.72209486 399.57820497 333.44599915 408.46165466 C333.7859944 411.52476249 333.7859944 411.52476249 334.4264679 414.51634216 C335.58346888 420.61218316 332.90515478 426.00610141 329.9499054 431.27415466 C329.6199054 431.60415466 329.2899054 431.93415466 328.9499054 432.27415466 C328.85259827 433.9751436 328.81786495 435.67978134 328.8092804 437.38352966 C328.54508945 455.19270937 326.81966957 467.36546795 314.5749054 480.89915466 C302.99111518 491.37972676 290.36586048 495.67707628 274.6999054 495.16868591 C272.42779051 494.94599283 270.19692205 494.67386436 267.9499054 494.27415466 C267.99631165 494.85423279 268.0427179 495.43431091 268.0905304 496.03196716 C268.35211612 501.69342953 267.77809917 504.80792859 263.9499054 509.27415466 C261.36091566 512.0541847 259.24257352 512.49318319 255.58552551 512.66856384 C253.75855474 512.69249773 251.93132098 512.699758 250.10420227 512.69407654 C249.10542557 512.70254608 248.10664886 512.71101562 247.0776062 512.71974182 C243.77449327 512.74315074 240.47184501 512.74413313 237.1686554 512.74290466 C234.87466748 512.75000318 232.58068136 512.75770172 230.28669739 512.76597595 C225.47825687 512.77942923 220.66998057 512.78098535 215.86152649 512.77513123 C209.69396479 512.76923032 203.52718895 512.79983976 197.35977936 512.84024811 C192.6226119 512.86607112 187.88563512 512.86900748 183.14840698 512.86535645 C180.87416608 512.86705233 178.59991681 512.87673957 176.32574463 512.89450073 C173.14849386 512.91658616 169.97285283 512.9070412 166.79560852 512.88938904 C165.38191734 512.90928391 165.38191734 512.90928391 163.93966675 512.92958069 C157.58095645 512.84731441 157.58095645 512.84731441 154.36579895 509.92710876 C152.63496286 506.6840481 152.33304541 504.89820706 152.9499054 501.27415466 C155.1819697 498.42634848 156.49983538 497.424178 159.9499054 496.27415466 C162.88663048 496.1825081 165.79919985 496.14820068 168.73579407 496.16062927 C170.08244392 496.16041023 170.08244392 496.16041023 171.45629883 496.16018677 C174.42684842 496.16088402 177.39733549 496.1686677 180.36787415 496.17649841 C182.42624884 496.17836326 184.48462397 496.17978685 186.54299927 496.18078613 C191.96321333 496.18460608 197.38340064 496.19443193 202.80360413 496.20549011 C208.33348733 496.21571545 213.86337484 496.22028616 219.39326477 496.22532654 C230.24549007 496.23605464 241.09769551 496.25312482 251.9499054 496.27415466 C251.67845444 494.66937277 251.39323527 493.06691585 251.10224915 491.46556091 C250.94490295 490.5729657 250.78755676 489.68037048 250.6254425 488.76072693 C249.65650093 485.1941675 247.85349268 483.46954993 244.9499054 481.27415466 C241.84212435 480.23822765 239.68764678 480.14341038 236.4284668 480.13371277 C235.28027466 480.12800262 234.13208252 480.12229248 232.94909668 480.1164093 C231.05783806 480.11473251 231.05783806 480.11473251 229.12837219 480.11302185 C227.78792687 480.10839281 226.44748287 480.10336804 225.10704041 480.09797668 C221.46436988 480.08485856 217.82171778 480.07840883 214.17902732 480.07396603 C211.90267231 480.07103423 209.62632234 480.06692921 207.34996986 480.06246185 C200.2261942 480.0487882 193.10243004 480.03912101 185.97864217 480.03525996 C177.75827618 480.03077998 169.53807653 480.01323439 161.31776112 479.98425937 C154.96181736 479.96263444 148.60592037 479.95255524 142.24994022 479.95121884 C138.45470555 479.95017135 134.65962728 479.94427563 130.86443138 479.92639923 C127.29309423 479.90990452 123.7220308 479.90776968 120.1506691 479.91653824 C118.21952574 479.91767412 116.28839142 479.90396736 114.3572998 479.88978577 C106.21293246 479.85724092 106.21293246 479.85724092 98.9499054 483.27415466 C96.48692599 486.24671602 95.79277394 488.7038032 95.37568665 492.44993591 C95.16492493 494.34292419 95.16492493 494.34292419 94.9499054 496.27415466 C95.89309631 496.26368103 96.83628723 496.2532074 97.80805969 496.24241638 C101.32110558 496.20824825 104.8339738 496.18321387 108.34712219 496.16429138 C109.86505426 496.15425921 111.38296712 496.14063028 112.90083313 496.12327576 C115.0878118 496.09890431 117.27453403 496.08764371 119.46162415 496.07884216 C120.77606506 496.06836853 122.09050598 496.0578949 123.44477844 496.04710388 C126.81545276 496.26544526 128.99977428 496.66669216 131.9499054 498.27415466 C134.29159303 501.78668612 134.44614217 503.13884822 133.9499054 507.27415466 C132.52558899 509.93016052 132.52558899 509.93016052 129.9499054 512.27415466 C126.75824765 513.01765078 123.62876977 512.95109685 120.3639679 512.90306091 C118.96215775 512.90667885 118.96215775 512.90667885 117.5320282 512.91036987 C115.55669409 512.90939122 113.58133262 512.89599324 111.6061554 512.87107849 C108.59217881 512.83685083 105.58114794 512.85039797 102.5670929 512.86985779 C100.64520547 512.86295677 98.7233256 512.85328208 96.8014679 512.84056091 C95.90441132 512.84552078 95.00735474 512.85048065 94.08311462 512.85559082 C88.58856539 512.75292344 85.23222211 512.05357623 80.9499054 508.27415466 C78.83118705 504.99371735 78.73305269 502.38196822 78.8249054 498.52415466 C78.84295227 497.53931091 78.86099915 496.55446716 78.8795929 495.53977966 C78.90279602 494.79212341 78.92599915 494.04446716 78.9499054 493.27415466 C77.89913818 493.28303711 76.84837097 493.29191956 75.76576233 493.30107117 C65.82144784 493.38246223 55.8772017 493.44226582 45.93262863 493.48140335 C40.82105787 493.5022014 35.70975788 493.53037557 30.5983429 493.57591248 C25.65756348 493.61964943 20.7170431 493.64335017 15.7760849 493.65366364 C13.89918699 493.66100533 12.02230187 493.67534081 10.14551544 493.69707489 C-6.55643535 493.88264744 -20.64677846 491.41060316 -33.3000946 479.52415466 C-44.03641636 468.1154572 -46.50885106 456.10201855 -46.44450378 440.84913635 C-46.44939995 439.40379644 -46.4555931 437.95846044 -46.46296167 436.51313102 C-46.47929062 432.56423819 -46.47705782 428.61554592 -46.4715867 424.66663122 C-46.46890799 420.39945396 -46.48346348 416.13232916 -46.49568176 411.86517334 C-46.51669759 403.51649985 -46.52127901 395.16789586 -46.51949388 386.81919904 C-46.51818512 380.0359961 -46.52199616 373.2528148 -46.52941895 366.46961594 C-46.53151815 364.51422719 -46.53361575 362.55883845 -46.53571177 360.6034497 C-46.53675529 359.63018489 -46.53779882 358.65692008 -46.53887397 357.65416239 C-46.5577584 339.26546825 -46.55673072 320.87681404 -46.54990464 302.48811422 C-46.54432178 285.65578815 -46.56518941 268.82361393 -46.59826511 251.99132337 C-46.63196712 234.70630467 -46.64717539 217.42135882 -46.64254808 200.13630664 C-46.64030099 190.43241466 -46.64558268 180.72866329 -46.67044067 171.02479935 C-46.69140792 162.76972024 -46.69509074 154.51485897 -46.67614108 146.25977106 C-46.66695757 142.04650568 -46.66591995 137.83364699 -46.68649673 133.62041283 C-46.70511116 129.76653122 -46.70081211 125.91339214 -46.67795092 122.05953966 C-46.67374106 120.66273659 -46.6780448 119.26587764 -46.69154686 117.86913349 C-46.70860877 115.9757816 -46.69207219 114.08221496 -46.67371368 112.1888752 C-46.67398607 111.13563564 -46.67425845 110.08239609 -46.67453909 108.99724019 C-46.0500946 106.27415466 -46.0500946 106.27415466 -43.73768091 103.90057838 C-41.0500946 102.27415466 -41.0500946 102.27415466 -37.4250946 102.33665466 C-33.04080436 103.55451306 -33.04080436 103.55451306 -31.0500946 106.27415466 C-30.67338842 108.80777073 -30.67338842 108.80777073 -30.67092037 111.90686035 C-30.66269723 113.08692091 -30.65447409 114.26698147 -30.64600176 115.48280144 C-30.65221357 116.78559107 -30.65842539 118.0883807 -30.66482544 119.4306488 C-30.66082064 120.82370996 -30.65549564 122.21676784 -30.6489597 123.60981941 C-30.63476209 127.44700482 -30.63925476 131.28397933 -30.64667284 135.12117553 C-30.65139971 139.2563629 -30.63886081 143.39150082 -30.62831116 147.52667236 C-30.6123104 154.69664313 -30.60706276 161.86655735 -30.60883904 169.0365448 C-30.61122027 179.41518327 -30.59524563 189.79373127 -30.57438648 200.17234612 C-30.54082993 217.0257744 -30.5191896 233.8791946 -30.50639343 250.73265076 C-30.50562394 251.74188725 -30.50485445 252.75112373 -30.50406165 253.79094315 C-30.50095967 257.87967156 -30.49787685 261.96839998 -30.4948216 266.05712843 C-30.48630168 277.2956509 -30.47539847 288.53417054 -30.46342468 299.77268982 C-30.46182265 301.28106566 -30.46182265 301.28106566 -30.46018826 302.81991374 C-30.44208197 319.59962858 -30.41607879 336.37932427 -30.38529354 353.15902042 C-30.36675581 363.50751851 -30.35582479 373.85597352 -30.35477162 384.20448846 C-30.35366626 391.30158572 -30.34569773 398.39865352 -30.33238798 405.49573833 C-30.32498508 409.58818005 -30.32086133 413.68055728 -30.32550621 417.77300453 C-30.32972368 421.52493258 -30.32470943 425.27673462 -30.31259836 429.02864444 C-30.3085514 431.01761411 -30.31428171 433.00659641 -30.32044405 434.99556065 C-30.2647253 446.91171118 -29.51937158 457.99801909 -21.29618835 467.24681091 C-10.73432372 477.29658514 1.20572315 476.92460732 14.93037415 476.94602966 C16.87229801 476.95890217 18.81421807 476.9723601 20.75613403 476.9863739 C24.80999248 477.01022399 28.86351112 477.0177447 32.91743469 477.0153656 C38.10311421 477.0149578 43.2866189 477.06974231 48.47178173 477.13845444 C52.47566696 477.18297791 56.47902589 477.19104155 60.48313332 477.1889267 C62.3949012 477.19363396 64.3066841 477.21125522 66.21820641 477.24225616 C76.36400116 477.81204572 76.36400116 477.81204572 85.56260681 474.48594666 C87.43454106 472.40246733 87.43454106 472.40246733 88.6859436 470.14433289 C90.27963113 467.78628715 91.56598952 467.451725 94.2624054 466.71165466 C96.38554003 465.94739092 96.38554003 465.94739092 97.9499054 464.27415466 C98.65040289 461.21642749 98.98615905 458.25083348 99.23774719 455.12767029 C99.90335769 447.71882364 102.57281367 442.6802343 107.7702179 437.43821716 C115.3531876 431.14465931 124.36642253 429.81738033 133.93843079 429.90184021 C135.35271111 429.89636421 135.35271111 429.89636421 136.79556274 429.89077759 C139.87975165 429.88274078 142.96340372 429.89622387 146.04756165 429.91087341 C148.20889282 429.9113928 150.37022447 429.91087206 152.53155518 429.90936279 C157.04778655 429.90945221 161.56383827 429.91981939 166.08003235 429.93797302 C171.85209959 429.96067245 177.62390506 429.96119836 183.39600468 429.95445538 C187.85454613 429.95110505 192.31302853 429.9577653 196.77155876 429.96758461 C198.89929838 429.97141752 201.02704459 429.9725928 203.15478706 429.97099876 C206.13357566 429.97062554 209.11203561 429.98331953 212.09077454 429.99949646 C213.3932312 429.99578033 213.3932312 429.99578033 214.72200012 429.99198914 C225.42795271 430.08420668 232.7512494 432.1721011 240.45381165 439.75462341 C245.73101313 445.63043282 246.98656318 450.25847294 247.0124054 457.89915466 C247.07678669 461.27528995 247.07678669 461.27528995 247.9499054 464.27415466 C250.3131449 466.21825357 252.50032664 467.09821722 255.36006165 468.16087341 C259.27387761 469.84328299 261.72633777 472.68571422 263.9499054 476.27415466 C263.9499054 476.93415466 263.9499054 477.59415466 263.9499054 478.27415466 C284.87232085 478.89374253 284.87232085 478.89374253 302.6999054 469.02415466 C309.6245459 461.54869048 311.12578652 453.1133413 312.9499054 443.27415466 C312.2899054 443.60415466 311.6299054 443.93415466 310.9499054 444.27415466 C308.6295929 444.51243591 308.6295929 444.51243591 305.8249054 444.58665466 C304.91482727 444.62403748 304.00474915 444.66142029 303.0670929 444.69993591 C294.64891331 443.55008432 289.26105628 438.16220209 283.5460968 432.37205505 C282.34947418 431.18353691 282.34947418 431.18353691 281.12867737 429.9710083 C278.50962206 427.36440202 275.90528146 424.7436359 273.3014679 422.12181091 C271.47989009 420.30038814 269.65764485 418.47963264 267.83476257 416.65951538 C264.02414287 412.85027784 260.22036172 409.03440462 256.42207336 405.21287537 C252.03585622 400.80000566 247.6372877 396.39975096 243.23186743 392.0060578 C238.98326365 387.76824251 234.74326707 383.52194043 230.50707626 379.27171135 C228.70779128 377.4679095 226.90641019 375.66619601 225.10290909 373.86660957 C222.58695377 371.35356155 220.08090792 368.83103642 217.5773468 366.3056488 C216.45684433 365.1918988 216.45684433 365.1918988 215.31370544 364.0556488 C214.63255676 363.36459549 213.95140808 362.67354218 213.24961853 361.96154785 C212.36092544 361.06920991 212.36092544 361.06920991 211.45427895 360.15884495 C207.3409912 355.00568771 207.40333371 349.32514827 207.51631165 342.98509216 C208.45959139 334.9119772 212.0452076 328.42537492 218.2624054 323.21165466 C225.72606537 318.0944296 232.9606478 316.46682928 241.9499054 317.27415466 C242.59481524 317.49170945 243.23972509 317.70926424 243.90417767 317.9334116 C244.57926782 318.04585681 245.25435797 318.15830202 245.9499054 318.27415466 C248.33683573 316.40424473 250.35877333 314.56847649 252.47846985 312.42430115 C253.1243959 311.79034927 253.77032196 311.1563974 254.43582153 310.50323486 C256.57467839 308.39667043 258.69441262 306.27199824 260.81318665 304.14524841 C262.28901324 302.6778646 263.76543616 301.21108032 265.24243164 299.74487305 C268.33842394 296.6653004 271.42464424 293.57631402 274.50483704 290.48094177 C278.45722407 286.51127366 282.43614843 282.56946846 286.42329121 278.63474941 C289.48012587 275.6109631 292.52059598 272.57113221 295.55652428 269.52636909 C297.01717883 268.06607514 298.48333096 266.61125913 299.95496559 265.16203117 C302.00991077 263.13424395 304.04137992 261.08550485 306.0683136 259.0297699 C306.68277344 258.43262177 307.29723328 257.83547363 307.93031311 257.2202301 C309.47345489 255.62965937 310.80334428 254.1704149 311.9499054 252.27415466 C311.91657646 249.36492917 311.91657646 249.36492917 310.9499054 246.27415466 C310.79669693 243.01875035 310.88152618 239.76320279 310.92817688 236.50511169 C310.9425882 235.05539223 310.9425882 235.05539223 310.95729065 233.5763855 C310.990164 230.39483587 311.03054058 227.21342861 311.07099915 224.03196716 C311.09531166 221.82094315 311.11915465 219.60991393 311.14254761 217.39888 C311.20527588 211.58903556 311.27437432 205.77928372 311.34480286 199.9695282 C311.41558809 194.03725896 311.48034403 188.10492425 311.54560852 182.17259216 C311.67447573 170.53970769 311.81007322 158.90691214 311.9499054 147.27415466 C310.6714122 147.28303711 309.39291901 147.29191956 308.07568359 147.30107117 C295.99720466 147.3823367 283.91878157 147.44220631 271.84009075 147.48140335 C265.63105517 147.50223274 259.4222412 147.53046571 253.21333313 147.57591248 C247.21569467 147.61953556 241.21826871 147.6433267 235.22048378 147.65366364 C232.93805919 147.66102546 230.65564555 147.6754011 228.373312 147.69707489 C225.16381024 147.72632721 221.95517438 147.7301015 218.74555969 147.72825623 C217.34616653 147.74982788 217.34616653 147.74982788 215.91850281 147.77183533 C205.09895511 147.70500379 196.84481471 144.11840033 189.1139679 136.64524841 C181.72941579 128.55423194 179.64132364 120.82808546 179.72285461 110.04612732 C179.72256256 109.03087982 179.72227051 108.01563232 179.7219696 106.96961975 C179.723359 103.62573088 179.73890201 100.28206694 179.7545929 96.93821716 C179.75832441 94.61508811 179.76117073 92.29195748 179.76316833 89.96882629 C179.77079387 83.86307915 179.7904332 77.75742759 179.81257629 71.65171814 C179.83305791 65.41780388 179.84217501 59.18387414 179.85224915 52.94993591 C179.87368002 40.72463357 179.90780303 28.49940207 179.9499054 16.27415466 C155.90565696 16.2645874 131.86165307 16.2892819 107.81748581 16.35443306 C96.65259173 16.38389272 85.48788754 16.402266 74.32295227 16.39427185 C64.58821176 16.38733015 54.85376531 16.40146325 45.11909699 16.44059074 C39.96762187 16.46056889 34.81660811 16.4702055 29.66510773 16.4545784 C24.80903007 16.44018113 19.95383109 16.45411749 15.09786606 16.48910713 C13.32265916 16.49702803 11.5473721 16.49489573 9.77219772 16.4815464 C-1.88761704 16.40133169 -11.43230714 17.29849372 -20.53447342 25.51747322 C-29.13624982 34.34094668 -30.02033595 43.82112757 -30.22587585 55.69602966 C-30.24387489 56.70324318 -30.24387489 56.70324318 -30.26223755 57.73080444 C-30.31099785 60.54296598 -30.35839982 63.35466732 -30.37602234 66.16722107 C-30.39149103 68.24002527 -30.43163074 70.31116611 -30.47587585 72.38352966 C-30.49045837 73.6103949 -30.50504089 74.83726013 -30.52006531 76.1013031 C-31.14580367 79.84708648 -32.01671066 81.0499219 -35.0500946 83.27415466 C-38.82787062 83.81383695 -41.01730245 83.96533895 -44.23344421 81.81297302 C-46.92969883 78.04488383 -46.64271196 74.68343164 -46.61650085 70.15306091 C-46.62269943 69.25731857 -46.62889801 68.36157623 -46.63528442 67.43869019 C-46.6423861 65.5398619 -46.63920248 63.64097139 -46.62651062 61.74217224 C-46.61278913 58.87726857 -46.64653341 56.01572821 -46.68486023 53.15110779 C-46.75410908 36.82502363 -43.63349339 25.10739997 -31.95243835 13.12181091 C-22.90408788 4.55220914 -12.54183597 -0.04215748 0 0 Z M195.9499054 28.27415466 C195.88036184 39.77465022 195.82707189 51.27509565 195.79446888 62.77575874 C195.77882022 68.11611998 195.75759634 73.45633723 195.72358704 78.7966156 C195.69096537 83.95132231 195.67304636 89.10589062 195.66527367 94.2606926 C195.65973522 96.22626295 195.64891998 98.19182583 195.63271523 100.15733719 C195.61090377 102.91275082 195.60794004 105.66759422 195.60932922 108.42308044 C195.5985434 109.23372452 195.58775757 110.04436859 195.5766449 110.87957764 C195.60755456 116.55416076 196.67523057 120.75152951 200.5983429 125.10227966 C201.16810852 125.57149841 201.73787415 126.04071716 202.3249054 126.52415466 C202.88951477 127.00368591 203.45412415 127.48321716 204.0358429 127.97727966 C209.05067853 131.37508667 213.77758347 131.55339554 219.68745422 131.50120544 C220.55625214 131.5014975 221.42505005 131.50178955 222.32017517 131.50209045 C225.18253174 131.50070074 228.04462573 131.48515636 230.90693665 131.46946716 C232.89519102 131.46573576 234.88344723 131.46288939 236.8717041 131.46089172 C242.09793702 131.4532653 247.3240583 131.43362525 252.55024719 131.41148376 C257.88592519 131.39100404 263.22162127 131.38188545 268.55732727 131.37181091 C279.02156895 131.35037847 289.48572788 131.31625443 299.9499054 131.27415466 C295.9184869 126.44078559 291.70230344 121.8819276 287.24531555 117.44017029 C286.60380051 116.79690292 285.96228546 116.15363556 285.30133057 115.49087524 C283.19970171 113.38487889 281.09447584 111.28252229 278.9889679 109.18040466 C277.51440586 107.70516804 276.03999221 106.22978307 274.5657196 104.7542572 C271.48251337 101.66958083 268.39751663 98.58670949 265.31123352 95.50511169 C261.37178484 91.57135483 257.43683637 87.63313191 253.50322914 83.69353485 C250.46114918 80.64782652 247.41667308 77.60452229 244.37148666 74.56192017 C242.92040658 73.11150332 241.4700583 71.66035392 240.02048111 70.20843506 C237.98717108 68.17256154 235.95064152 66.13996139 233.9132843 64.10813904 C233.3249733 63.5178038 232.73666229 62.92746857 232.13052368 62.31924438 C228.46121548 58.66821434 224.66441983 55.21490138 220.73946095 51.8399725 C218.1704455 49.5921461 215.78951441 47.20811878 213.39131165 44.77806091 C212.91668991 44.29965256 212.44206818 43.8212442 211.95306396 43.32833862 C210.47031619 41.83358765 208.99095316 40.33555942 207.5124054 38.83665466 C205.53738729 36.83511353 203.55910585 34.8368804 201.57881165 32.84056091 C200.71328674 31.96343445 199.84776184 31.08630798 198.95600891 30.18260193 C197.29062957 28.1592793 197.29062957 28.1592793 195.9499054 28.27415466 Z M331.4655304 232.75071716 C329.14849363 235.07969742 327.96809083 237.15596176 326.9499054 240.27415466 C327.12259888 244.92048883 328.37133556 247.25206942 331.69673157 250.48486328 C332.21340393 250.963181 332.73007629 251.44149872 333.2624054 251.93431091 C334.05578308 252.70284645 334.05578308 252.70284645 334.8651886 253.48690796 C336.54855798 255.11603468 338.24725184 256.72770969 339.9499054 258.33665466 C341.65162226 259.9500113 343.34905381 261.56688383 345.03462219 263.19711304 C346.08112214 264.20895216 347.13696391 265.21124239 348.20307922 266.20239258 C351.17711432 269.07396456 352.72477256 271.09116907 352.9499054 275.27415466 C352.19647888 278.21936742 351.60255343 279.76135978 349.1999054 281.64915466 C345.88543072 282.56984207 344.29122558 282.30433075 340.9499054 281.27415466 C337.89545451 278.83690108 335.25480045 276.04904807 332.5749054 273.21165466 C331.83885071 272.45304138 331.10279602 271.6944281 330.34443665 270.91282654 C328.53443835 269.04406206 326.73715247 267.16464655 324.9499054 265.27415466 C320.73397609 266.91808842 317.91967926 270.03770852 314.80439758 273.19261169 C314.1990921 273.79762512 313.59378662 274.40263855 312.97013855 275.02598572 C310.9742409 277.02327466 308.9855174 279.02755025 306.9967804 281.03196716 C305.61287871 282.41959968 304.22853427 283.80679076 302.84376526 285.19355774 C299.2028732 288.84208066 295.56802762 292.49657019 291.93440247 296.15232849 C288.22444852 299.88275255 284.50881613 303.60751109 280.7936554 307.33274841 C273.50683196 314.64101213 266.22638275 321.95559082 258.9499054 329.27415466 C262.74689049 333.80935772 266.66701894 338.13429463 270.86347961 342.30125427 C271.4203093 342.85822998 271.97713898 343.41520569 272.55084229 343.98905945 C274.3663954 345.80392366 276.18544933 347.61523378 278.0045929 349.42649841 C279.27419071 350.6942284 280.54356588 351.96218139 281.81272888 353.23034668 C285.13458114 356.54840243 288.45942673 359.86344255 291.78492737 363.17784119 C295.18550049 366.56813821 298.58320276 369.96130972 301.9811554 373.35423279 C308.63461559 379.99700628 315.29124498 386.63659412 321.9499054 393.27415466 C326.51955432 389.45015454 330.87080283 385.49596604 335.06880188 381.26878357 C335.9188958 380.41890869 335.9188958 380.41890869 336.78616333 379.55186462 C338.63349286 377.70384599 340.47726841 375.85232564 342.32099915 374.00071716 C343.61114942 372.70869914 344.90152264 371.4169037 346.19210815 370.12532043 C349.56934728 366.74428423 352.94357102 363.36025452 356.31715393 359.97557068 C359.76777468 356.51467507 363.22126878 353.05664923 366.67451477 349.59837341 C373.43577725 342.82642322 380.19385439 336.05130383 386.9499054 329.27415466 C385.22642221 325.57960169 383.16466668 323.32387537 380.19599915 320.50071716 C379.25949524 319.59321716 378.32299133 318.68571716 377.35810852 317.75071716 C375.87302831 316.32138579 374.38441723 314.89632556 372.88764954 313.47923279 C371.43770812 312.10211076 370.00412837 310.70782672 368.57099915 309.31321716 C367.7091803 308.49031189 366.84736145 307.66740662 365.95942688 306.81956482 C363.63463489 303.87480947 363.16038641 301.98720637 362.9499054 298.27415466 C363.91596114 295.52461139 364.33006054 294.58407709 366.9499054 293.27415466 C370.25519886 292.74530771 372.77556708 292.48672053 375.6542511 294.41697693 C379.84116737 298.19820869 383.81961978 302.14728146 387.73506165 306.20774841 C388.24434204 306.73409882 388.75362244 307.26044922 389.27833557 307.80274963 C393.56418324 312.23585171 393.56418324 312.23585171 395.6073761 314.4047699 C397.15466427 316.043005 398.72347165 317.65780397 400.29756165 319.27024841 C400.76130692 319.77325974 401.22505219 320.27627106 401.70285034 320.79452515 C404.4072166 323.52126012 405.7965523 324.25823952 409.66914368 324.66014099 C413.08433891 324.25833837 414.31214284 323.84243586 416.7624054 321.52415466 C417.32572571 321.01368591 417.88904602 320.50321716 418.46943665 319.97727966 C421.10629653 316.94384719 421.95352884 315.23045736 421.93797302 311.12495422 C420.57173452 305.80030792 417.73205025 303.2135947 413.87910461 299.42698669 C413.1391777 298.67654587 412.39925079 297.92610504 411.63690186 297.15292358 C409.19099566 294.68064609 406.72383473 292.2309218 404.2545929 289.78196716 C402.54555322 288.06888517 400.83740501 286.3549134 399.13011169 284.64009094 C395.550099 281.05123546 391.95946623 277.47344887 388.36103821 273.90306091 C383.75040372 269.32661017 379.16722914 264.72375123 374.5916729 260.11226082 C371.06975302 256.56865521 367.53366119 253.0394707 363.9931221 249.51447678 C362.29744612 247.82280204 360.60621249 246.12666231 358.91953659 244.42601395 C356.55960126 242.05083287 354.18126994 239.69574866 351.79707336 237.34495544 C351.10380447 236.63954117 350.41053558 235.93412689 349.69625854 235.20733643 C343.79371105 229.45700635 338.294041 227.18332789 331.4655304 232.75071716 Z M226.1999054 339.21165466 C223.62539713 342.45471599 223.62539713 342.45471599 222.9499054 346.27415466 C225.41214522 351.32376531 229.32744205 354.98261897 233.23188782 358.92601013 C234.33980682 360.05605217 234.33980682 360.05605217 235.47010803 361.20892334 C237.90917549 363.69241077 240.35624626 366.16777723 242.80537415 368.64134216 C244.06053046 369.91059729 244.06053046 369.91059729 245.34104347 371.20549393 C249.76602041 375.6779772 254.19786293 380.14353634 258.63471985 384.60423279 C263.21899037 389.21628862 267.77692749 393.85349843 272.32963085 398.49668694 C275.83463444 402.06139519 279.35934467 405.60611263 282.88968849 409.14570999 C284.57941419 410.84703879 286.26148152 412.55600913 287.93567467 414.27262497 C290.27682068 416.66956495 292.64459339 419.03670298 295.02095032 421.39866638 C296.0507476 422.47228676 296.0507476 422.47228676 297.10134888 423.56759644 C300.57556745 427.06906707 300.57556745 427.06906707 305.12134743 428.5471077 C308.76958233 428.1964085 310.86989909 427.33638179 313.7624054 425.08665466 C316.0255534 422.17689295 317.7167557 419.7559891 318.9499054 416.27415466 C317.7677009 410.80876171 313.45697641 407.3456523 309.64204407 403.54637146 C308.88900497 402.78486282 308.13596588 402.02335419 307.36010742 401.23876953 C304.87048612 398.72576215 302.36982827 396.22409847 299.86787415 393.72337341 C298.13363515 391.98203538 296.39969654 390.24039815 294.66604614 388.49847412 C291.03204183 384.85102233 287.39215004 381.20956646 283.74848938 377.57176208 C279.07400097 372.90317877 274.41804153 368.21658449 269.76674938 363.5249052 C266.19207547 359.92442216 262.60603576 356.3354309 259.0166111 352.74965858 C257.29462743 351.02597824 255.57663997 349.2982962 253.86270714 347.56661034 C251.46882512 345.15066837 249.05969159 342.75104335 246.64595032 340.35496521 C245.93771118 339.63346283 245.22947205 338.91196045 244.49977112 338.16859436 C243.8394841 337.51951614 243.17919708 336.87043793 242.49890137 336.20169067 C241.93090915 335.63298594 241.36291693 335.06428122 240.77771282 334.47834301 C235.15841693 330.77626229 229.98593974 334.91428809 226.1999054 339.21165466 Z M371.2323761 366.65110779 C370.31331482 367.59373474 370.31331482 367.59373474 369.37568665 368.55540466 C368.37505188 369.57054138 368.37505188 369.57054138 367.35420227 370.60618591 C366.31876282 371.67933044 366.31876282 371.67933044 365.2624054 372.77415466 C364.56051086 373.48958435 363.85861633 374.20501404 363.13545227 374.94212341 C361.40004179 376.71295044 359.6719981 378.49038922 357.9499054 380.27415466 C360.76781369 384.61543334 363.78756183 388.72456662 367.0124054 392.77415466 C367.99293392 394.01369072 368.97340094 395.25327542 369.95381165 396.49290466 C370.4515509 397.1206781 370.94929016 397.74845154 371.46211243 398.39524841 C373.80019157 401.34796536 376.12465683 404.31133121 378.4499054 407.27415466 C379.3665001 408.44087787 380.28316693 409.60754441 381.1999054 410.77415466 C386.6999054 417.77415466 386.6999054 417.77415466 388.07563782 419.52513123 C388.98980554 420.68858789 389.90403055 421.85199955 390.8183136 423.0153656 C393.62371465 426.58523969 396.4269453 430.15680402 399.22846985 433.72972107 C400.60961167 435.48875632 401.99442262 437.24485345 403.3795929 439.00071716 C405.00755316 441.06618419 406.61279592 443.14348168 408.2077179 445.23509216 C412.55333317 450.8695211 416.04711924 454.97322595 422.9499054 457.27415466 C430.59546578 458.02371941 435.75919926 455.16425987 441.6374054 450.58665466 C446.8383755 445.82705128 450.16974846 440.34022672 450.5749054 433.21165466 C450.66318692 428.04718566 448.02919554 424.22437907 444.9499054 420.27415466 C442.44123415 417.76855526 439.74085073 415.58171272 436.9499054 413.39915466 C435.81996155 412.49254089 435.81996155 412.49254089 434.66719055 411.56761169 C429.2322567 407.22496474 423.72440886 402.97492878 418.18818665 398.76243591 C413.94036706 395.51810001 409.78338117 392.16103932 405.61665344 388.81370544 C400.73551838 384.8949502 395.82644307 381.01363847 390.89228821 377.16184998 C386.50704297 373.73375189 382.20328884 370.21438717 377.93818665 366.63743591 C375.28727218 364.8198148 373.79389303 364.59752492 371.2323761 366.65110779 Z M117.39131165 450.85227966 C117.10127258 451.40399841 116.81123352 451.95571716 116.5124054 452.52415466 C116.05027649 453.33626404 116.05027649 453.33626404 115.57881165 454.16477966 C114.61656616 457.02533141 114.61656616 457.02533141 114.9499054 463.27415466 C153.5599054 463.27415466 192.1699054 463.27415466 231.9499054 463.27415466 C231.23880887 454.21409661 231.23880887 454.21409661 225.9499054 448.27415466 C221.35745601 445.77254315 216.86440515 445.98481742 211.7726593 445.99949646 C210.85658401 445.99438553 209.94050873 445.9892746 208.99667358 445.98400879 C205.97320492 445.97012712 202.94996461 445.97106862 199.9264679 445.97337341 C197.82045914 445.96948548 195.71445117 445.96515061 193.60844421 445.96038818 C189.19522052 445.95292887 184.78207683 445.95321502 180.36885071 445.95848083 C174.72082295 445.96427264 169.07312342 445.94734989 163.42514992 445.92413616 C159.0756286 445.90938442 154.72618604 445.90852914 150.37664413 445.91164589 C148.2946902 445.91113333 146.21273178 445.90590778 144.13080215 445.89583397 C141.21563316 445.88346022 138.30109982 445.89026724 135.38594055 445.90184021 C134.10299355 445.8903746 134.10299355 445.8903746 132.79412842 445.87867737 C127.06302352 445.92881792 121.62994109 446.56053456 117.39131165 450.85227966 Z " fill="#000000" transform="translate(46.05009460449219,-0.2741546630859375)"/>
<path d="M0 0 C1.12182828 -0.0083016 1.12182828 -0.0083016 2.26631975 -0.0167709 C4.77387188 -0.0303908 7.28043095 -0.01540165 9.78796387 -0.00050354 C11.58500085 -0.00428624 13.38203492 -0.00978588 15.17906189 -0.01687622 C20.06129295 -0.03085448 24.94317254 -0.01964443 29.82538414 -0.00316501 C34.93111838 0.01067043 40.03683191 0.00422713 45.14257812 0.0007019 C53.71730219 -0.00200141 62.29188637 0.01148583 70.86657715 0.03465271 C80.78458124 0.06126319 90.70235142 0.06300999 100.62037897 0.05126435 C110.15543267 0.0404906 119.69040164 0.04667047 129.22544861 0.06081963 C133.2859853 0.06658292 137.34646006 0.06649404 141.40699768 0.06175423 C146.1873634 0.05698703 150.9674725 0.06707546 155.74778938 0.08870888 C157.50379127 0.09428043 159.2598178 0.09473868 161.01582146 0.08975601 C163.40984097 0.08381416 165.80307299 0.09628652 168.19702148 0.11352539 C168.89468518 0.10751535 169.59234887 0.1015053 170.31115389 0.09531313 C173.30158989 0.13456775 175.3593157 0.37113444 178.00641632 1.8105917 C180.51115153 4.47032074 180.47358557 6.94083812 180.59851074 10.50120544 C179.82777762 13.0936714 179.2095137 14.09173198 176.97390652 15.5899601 C173.74618833 16.82817194 170.68684841 16.78394251 167.27967834 16.76863098 C166.5406655 16.77316209 165.80165265 16.77769321 165.04024547 16.78236163 C162.56294033 16.79502604 160.08585445 16.79338397 157.60852051 16.79173279 C155.83281165 16.79771671 154.05710541 16.80452194 152.28140259 16.81208801 C147.45706353 16.82976761 142.63279541 16.83444418 137.8084271 16.83571959 C133.78245828 16.837618 129.75650601 16.84497476 125.73054355 16.85206378 C116.23364324 16.86835224 106.73678084 16.87323225 97.23986816 16.87181091 C87.4388779 16.87060886 77.63810762 16.89172243 67.83717304 16.92329824 C59.42518373 16.94943484 51.01326638 16.96017933 42.60123676 16.95890009 C37.57586654 16.95838976 32.55069184 16.96411272 27.52536201 16.9852562 C22.79996377 17.00459493 18.0749485 17.00479305 13.3495369 16.99022293 C11.61490381 16.9881284 9.88024703 16.99287394 8.14565468 17.00494385 C5.77809302 17.02035177 3.41185928 17.01111902 1.04432678 16.99568176 C0.01387335 17.01111245 0.01387335 17.01111245 -1.03739733 17.02685487 C-5.72728506 16.95924231 -8.11463268 15.81999975 -11.40148926 12.50120544 C-12.03039551 10.50120544 -12.03039551 10.50120544 -11.96398926 8.50120544 C-11.96527832 7.84120544 -11.96656738 7.18120544 -11.96789551 6.50120544 C-10.24014794 0.4004692 -5.55410267 -0.07646549 0 0 Z " fill="#000000" transform="translate(77.4014892578125,251.49879455566406)"/>
<path d="M0 0 C1.28708359 -0.00983414 2.57416718 -0.01966827 3.9002533 -0.02980042 C5.32449605 -0.02042862 6.74873618 -0.01064931 8.17297363 -0.00050354 C9.67444871 -0.00428698 11.17592031 -0.00978723 12.67738342 -0.01687622 C16.75387967 -0.03084504 20.82995452 -0.01965128 24.90642738 -0.00316501 C29.17134564 0.01067928 33.43623927 0.00422613 37.70117188 0.0007019 C44.86355383 -0.00200072 52.02576826 0.01147978 59.18811035 0.03465271 C67.47018108 0.06126283 75.75197167 0.06300977 84.03407049 0.05126435 C91.99935842 0.04048714 99.96454495 0.04667317 107.92982483 0.06081963 C111.32050471 0.06657994 114.71111041 0.0664964 118.10179138 0.06175423 C122.09423227 0.05698376 126.08636621 0.06708877 130.0787487 0.08870888 C131.54448855 0.09427601 133.0102579 0.0947427 134.47599983 0.08975601 C136.47562457 0.08380587 138.47527913 0.09813785 140.47485352 0.11352539 C141.59424568 0.11595529 142.71363785 0.11838518 143.86695099 0.12088871 C147.09444369 0.54850754 148.46699109 1.19345364 150.73742676 3.50120544 C151.61023824 6.93010771 152.06665504 9.39380121 151.04992676 12.81370544 C149.41421268 14.91676641 148.21978461 15.51950951 145.73742676 16.50120544 C142.90097904 16.75847435 142.90097904 16.75847435 139.55751038 16.76863098 C137.6542952 16.78142593 137.6542952 16.78142593 135.71263123 16.79447937 C134.30886828 16.79378037 132.90510544 16.79285732 131.50134277 16.79173279 C130.02119609 16.79771791 128.54105254 16.80452342 127.06091309 16.81208801 C123.04233066 16.82975535 119.0238334 16.83444365 115.00521588 16.83571959 C111.65028418 16.83761915 108.2953723 16.8449772 104.94044822 16.85206378 C97.02567759 16.86834755 89.11095245 16.87323268 81.19616699 16.87181091 C73.03110553 16.87060895 64.86630817 16.89172163 56.70131356 16.92329824 C49.69058442 16.94944495 42.67994165 16.96017891 35.66916412 16.95890009 C31.48214841 16.95839005 27.29536749 16.96409645 23.10840034 16.9852562 C19.17092234 17.00461212 15.23390376 17.00478154 11.29640961 16.99022293 C9.8520357 16.98813052 8.40763322 16.99286151 6.96330833 17.00494385 C4.99037244 17.02037832 3.01728012 17.00869739 1.04432678 16.99568176 C-0.0593949 16.9967713 -1.16311659 16.99786083 -2.30028439 16.99898338 C-5.95531123 16.38479894 -7.63568344 15.06560444 -10.26257324 12.50120544 C-10.89147949 10.50120544 -10.89147949 10.50120544 -10.82507324 8.50120544 C-10.8263623 7.84120544 -10.82765137 7.18120544 -10.82897949 6.50120544 C-9.24210036 0.89788049 -5.27955816 0.00098708 0 0 Z " fill="#000000" transform="translate(76.2625732421875,371.49879455566406)"/>
<path d="M0 0 C1.10894119 -0.01272446 2.21788239 -0.02544891 3.36042786 -0.03855896 C4.57248901 -0.03203308 5.78455017 -0.0255072 7.03334045 -0.01878357 C8.95337639 -0.03170692 8.95337639 -0.03170692 10.91220093 -0.04489136 C14.42058777 -0.06739337 17.92852368 -0.0644439 21.43695521 -0.05556989 C24.36691778 -0.05045937 27.29679564 -0.0577531 30.22674948 -0.06504196 C37.13956866 -0.08204376 44.05216711 -0.07847273 50.96498108 -0.06175232 C58.09405872 -0.04483165 65.22252403 -0.06066351 72.35153478 -0.0929752 C78.47483121 -0.11967603 84.59793709 -0.12694581 90.72128588 -0.11846012 C94.37737749 -0.11353208 98.03310071 -0.11573914 101.68914604 -0.13624763 C105.76650557 -0.15802448 109.84270518 -0.13920097 113.9200592 -0.11643982 C115.13009613 -0.12813202 116.34013306 -0.13982422 117.58683777 -0.15187073 C126.68969665 -0.04826283 126.68969665 -0.04826283 129.80459595 2.92080688 C131.59349272 5.59246684 132.1467722 6.52880635 131.60389709 9.6396637 C131.46661194 10.63353088 131.46661194 10.63353088 131.32655334 11.6474762 C130.2400182 14.2313757 128.9193586 15.05245106 126.54139709 16.5146637 C124.01729679 16.89777374 124.01729679 16.89777374 121.12075806 16.90907288 C120.02023102 16.92042267 118.91970398 16.93177246 117.78582764 16.94346619 C116.58311722 16.94053558 115.3804068 16.93760498 114.14125061 16.93458557 C112.23584503 16.94728989 112.23584503 16.94728989 110.29194641 16.96025085 C106.81049511 16.98246461 103.32928051 16.98539766 99.84776807 16.98350334 C96.94018323 16.98338364 94.03264854 16.99194768 91.12507766 17.00028086 C84.26503747 17.01951426 77.40511897 17.02239894 70.5450592 17.01564026 C63.47053055 17.0089985 56.39652315 17.03186883 49.32210022 17.06895399 C43.24552803 17.09965118 37.16912353 17.11101106 31.09247535 17.10711718 C27.46430793 17.10504973 23.83654616 17.1105275 20.20845222 17.13500977 C16.16226313 17.16141161 12.11717475 17.14754918 8.07093811 17.12989807 C6.87025192 17.14316132 5.66956573 17.15642456 4.43249512 17.17008972 C-3.65458255 17.08793383 -3.65458255 17.08793383 -7.70654297 14.1988678 C-10.01179298 10.66716126 -10.13596352 8.65408965 -9.45860291 4.5146637 C-6.56748228 0.78951185 -4.65686413 0.0135704 0 0 Z " fill="#000000" transform="translate(77.45860290527344,311.48533630371094)"/>
<path d="M0 0 C1.02479965 -0.01272446 2.0495993 -0.02544891 3.10545349 -0.03855896 C4.22400726 -0.03203308 5.34256104 -0.0255072 6.49501038 -0.01878357 C8.26874275 -0.03170692 8.26874275 -0.03170692 10.07830811 -0.04489136 C13.31817956 -0.06370311 16.55740676 -0.06444613 19.79730296 -0.05556989 C22.50358853 -0.05045761 25.20978247 -0.05775452 27.9160586 -0.06504196 C34.30150688 -0.08204102 40.68671619 -0.07847561 47.07215881 -0.06175232 C53.65593948 -0.04483234 60.23905706 -0.06066295 66.82276529 -0.0929752 C72.47897808 -0.11968191 78.1349846 -0.12694424 83.7912541 -0.11846012 C87.1679004 -0.1135337 90.5441478 -0.11573011 93.92074394 -0.13624763 C97.68687858 -0.15363659 101.45158968 -0.13919485 105.21766663 -0.11643982 C106.33419617 -0.12813202 107.45072571 -0.13982422 108.60108948 -0.15187073 C117.01503769 -0.04826256 117.01503769 -0.04826256 120.12686157 2.92080688 C121.97730486 5.59601253 122.5319892 6.49684063 121.98353577 9.6396637 C121.84625061 10.63353088 121.84625061 10.63353088 121.70619202 11.6474762 C120.62427277 14.22039858 119.27954788 15.04922477 116.92103577 16.5146637 C114.55310917 16.89777374 114.55310917 16.89777374 111.8800354 16.90907288 C110.35545715 16.92609756 110.35545715 16.92609756 108.80007935 16.94346619 C107.69087631 16.94053558 106.58167328 16.93760498 105.43885803 16.93458557 C103.67975601 16.94728989 103.67975601 16.94728989 101.88511658 16.96025085 C98.67220748 16.97963852 95.45965478 16.98539813 92.24669766 16.98350334 C89.56279061 16.9833836 86.87893783 16.99194934 84.19504589 17.00028086 C77.86237999 17.01951109 71.52984591 17.02240012 65.19715881 17.01564026 C58.66792843 17.00899877 52.13926288 17.03186822 45.61014706 17.06895399 C40.00065977 17.09965805 34.39135411 17.11101033 28.78178447 17.10711718 C25.43306044 17.10505041 22.084776 17.11051656 18.73613167 17.13500977 C15.00116585 17.15710323 11.26756851 17.14754436 7.53260803 17.12989807 C6.42542923 17.14316132 5.31825043 17.15642456 4.17752075 17.17008972 C-3.28908972 17.08797501 -3.28908972 17.08797501 -7.26953125 14.1988678 C-9.64698356 10.67203519 -9.76160959 8.68638531 -9.07896423 4.5146637 C-6.27996386 0.95802409 -4.49113081 0.01417247 0 0 Z " fill="#000000" transform="translate(77.07896423339844,131.48533630371094)"/>
<path d="M0 0 C1.68595024 -0.01292336 1.68595024 -0.01292336 3.40596008 -0.02610779 C7.12642353 -0.04883587 10.84613791 -0.04201566 14.56665039 -0.03295898 C17.14970627 -0.03819166 19.73276023 -0.04446682 22.31581116 -0.05174255 C27.73212676 -0.0621596 33.14815555 -0.0578952 38.56445312 -0.04296875 C44.82105717 -0.02604924 51.07696344 -0.04187898 57.33349127 -0.07419163 C63.35743825 -0.10412191 69.38103029 -0.10606934 75.40506172 -0.09669304 C77.96594716 -0.09587199 80.52684697 -0.10276445 83.08769035 -0.11746407 C86.66705229 -0.13485862 90.2449174 -0.12040703 93.82421875 -0.09765625 C94.88464386 -0.10934845 95.94506897 -0.12104065 97.03762817 -0.13308716 C104.20649897 -0.04024978 104.20649897 -0.04024978 108.13478088 2.88539124 C109.97680664 5.53344727 109.97680664 5.53344727 110.60180664 8.53344727 C109.7259807 12.73741179 108.42571062 13.95934446 104.97680664 16.53344727 C101.29861269 17.2764438 97.67380734 17.20623841 93.93188477 17.16455078 C92.26034584 17.17528374 92.26034584 17.17528374 90.55503845 17.18623352 C86.87229391 17.20313912 83.19076339 17.18370525 79.50805664 17.16235352 C76.94885151 17.16318203 74.38964644 17.16564076 71.83044434 17.16966248 C66.46710792 17.17252179 61.10420101 17.15833533 55.7409668 17.13037109 C49.54632098 17.09832021 43.35230475 17.09833571 37.15761423 17.11558586 C31.19082377 17.13146722 25.22422598 17.12460927 19.25743103 17.10764885 C16.72167985 17.1024632 14.18591055 17.10295344 11.65016174 17.1091938 C8.10695312 17.11464003 4.56481518 17.09428759 1.02172852 17.06689453 C-0.55252647 17.07668335 -0.55252647 17.07668335 -2.15858459 17.08666992 C-6.6398561 17.02771902 -9.27973848 16.98370578 -13.17419434 14.62510681 C-15.17148626 12.36569257 -15.68432959 11.50413842 -15.58569336 8.53344727 C-15.58698242 7.87344727 -15.58827148 7.21344727 -15.58959961 6.53344727 C-13.4326843 -1.08269507 -6.50567555 -0.03995979 0 0 Z " fill="#000000" transform="translate(81.023193359375,191.466552734375)"/>
<path d="M0 0 C1.29355911 -0.01073296 1.29355911 -0.01073296 2.61325073 -0.02168274 C5.45682133 -0.03855806 8.29881292 -0.01917599 11.14233398 0.00219727 C13.12100861 0.00136853 15.09968317 -0.001091 17.07835388 -0.00511169 C21.22188072 -0.0079688 25.36486673 0.00672445 29.50830078 0.03417969 C34.82050224 0.06828447 40.13173807 0.06223596 45.44398594 0.04351711 C49.52837683 0.0329518 53.61254279 0.04188033 57.69691277 0.05690193 C59.65573395 0.06208614 61.61457859 0.06159906 63.57339668 0.05535698 C66.30986231 0.04990957 69.04494226 0.07026339 71.78125 0.09765625 C72.5912294 0.09113037 73.4012088 0.08460449 74.23573303 0.07788086 C77.85025856 0.13944005 79.90952931 0.31307877 82.8245697 2.53944397 C84.44161873 4.79228171 84.89378845 5.88641576 84.88842773 8.63110352 C84.9103418 9.29110352 84.93225586 9.95110352 84.95483398 10.63110352 C83.94273181 13.84971416 82.13943825 14.83905814 79.32592773 16.63110352 C76.34559963 17.02355263 73.73656308 17.18892594 70.75952148 17.16455078 C69.90850861 17.17316635 69.05749573 17.18178192 68.18069458 17.19065857 C65.3746274 17.21331541 62.56955906 17.20658077 59.76342773 17.19750977 C57.80956729 17.20274521 55.85570939 17.20902139 53.90185547 17.21629333 C49.80969335 17.22669681 45.71787898 17.22213637 41.62573242 17.20751953 C36.38303228 17.19032535 31.14142743 17.21383515 25.89884949 17.24900913 C21.8650385 17.27097367 17.83149003 17.26954405 13.79763794 17.26124382 C11.86474404 17.26042391 9.93183094 17.26729492 7.99899292 17.28201485 C5.29608888 17.29944497 2.59515875 17.28493234 -0.10766602 17.26220703 C-0.9046994 17.27389923 -1.70173279 17.28559143 -2.5229187 17.29763794 C-6.56531453 17.22852188 -8.45176684 16.80559982 -11.67041016 14.27915955 C-13.67407227 11.63110352 -13.67407227 11.63110352 -14.29907227 8.63110352 C-12.64239879 0.67907081 -6.93365609 -0.10033934 0 0 Z " fill="#000000" transform="translate(223.674072265625,191.368896484375)"/>
</svg>
