<?xml version="1.0" encoding="UTF-8"?>
<svg version="1.1" xmlns="http://www.w3.org/2000/svg" width="512" height="512">
<path d="M0 0 C1.18988525 -0.00953201 1.18988525 -0.00953201 2.40380859 -0.01925659 C17.26781811 -0.0933227 31.75010341 1.77300348 46.125 5.625 C46.89811523 5.8314917 47.67123047 6.0379834 48.46777344 6.25073242 C71.78875271 12.79651798 92.99755528 24.94396819 111.34765625 40.58984375 C113.49666135 42.28680437 115.14030516 43.47275068 117.6875 44.4375 C119.89716065 44.12663887 119.89716065 44.12663887 122.14453125 43.20703125 C123.00272461 42.89975098 123.86091797 42.5924707 124.74511719 42.27587891 C125.65422852 41.93733887 126.56333984 41.59879883 127.5 41.25 C161.9731723 29.068688 199.54560054 30.86720537 232.75 46.375 C266.11483703 62.6063357 290.98222908 90.65712299 303.6875 125.4375 C304.70447819 128.47917128 305.6266018 131.53921193 306.5 134.625 C306.6949707 135.31255371 306.88994141 136.00010742 307.09082031 136.70849609 C310.06669822 147.91133807 311.0534111 159.06111074 311 170.625 C310.99508545 171.8936792 310.9901709 173.1623584 310.98510742 174.46948242 C310.58725633 206.51995855 298.88187216 237.31593308 277.6875 261.4375 C276.99140625 262.26636719 276.2953125 263.09523438 275.578125 263.94921875 C265.26272691 275.93992784 253.19026251 284.43959904 239.6875 292.4375 C238.0204111 293.43679593 236.35366255 294.43666028 234.6875 295.4375 C234.96013672 296.45175049 235.23277344 297.46600098 235.51367188 298.51098633 C236.52378323 302.27268009 237.52898919 306.03567007 238.53271484 309.79907227 C238.96789909 311.42801136 239.40441456 313.05659541 239.84228516 314.68481445 C240.47127626 317.02463285 241.09547593 319.36568441 241.71875 321.70703125 C242.01404602 322.79936821 242.01404602 322.79936821 242.31530762 323.91377258 C243.0912779 326.84424004 243.6875 329.39129453 243.6875 332.4375 C244.5125 332.210625 245.3375 331.98375 246.1875 331.75 C250.59096782 331.35683323 253.93264636 332.07172516 257.6875 334.4375 C262.47617617 339.28676798 264.08750019 343.80991472 265.81640625 350.32421875 C266.24440269 351.86320076 266.24440269 351.86320076 266.68104553 353.43327332 C267.50886795 356.42123175 268.32209387 359.41284502 269.13291168 362.40544891 C270.14302462 366.10657463 271.18117252 369.79989139 272.21435547 373.49462891 C274.33545994 381.09491543 276.41784365 388.70516132 278.4758358 396.32277107 C279.67034634 400.74238485 280.87400371 405.15903357 282.09985352 409.57006836 C283.30942439 413.92340374 284.4947442 418.28271514 285.66424751 422.64697838 C286.10530733 424.27749399 286.55432573 425.90588348 287.01234245 427.5317173 C291.11892203 442.14821639 294.37677605 459.44828751 286.6875 473.4375 C280.32417928 484.113953 270.36864888 491.97406341 258.27734375 495.05078125 C244.48442939 497.1103567 232.9460422 494.53995906 221.6875 486.4375 C210.13300478 477.24735879 206.54405139 463.70164839 202.97265625 449.9921875 C202.5507371 448.41222132 202.12765046 446.83256652 201.70347595 445.25320435 C200.5949508 441.11359622 199.50187908 436.97006658 198.41229248 432.82543945 C197.32370186 428.69499497 196.22100553 424.56832557 195.11914062 420.44140625 C193.83175571 415.61727768 192.54692997 410.79253849 191.27505493 405.96429443 C189.39415838 398.82668783 187.49444438 391.69751854 185.49951172 384.59082031 C185.16906357 383.40384552 184.83861542 382.21687073 184.49815369 380.993927 C183.89647353 378.84151946 183.28592905 376.69155813 182.66407776 374.54489136 C180.73641335 367.61539994 179.40878895 361.13155414 181.8125 354.1875 C184.42443874 350.35665651 187.49073629 347.53588185 191.6875 345.4375 C191.41486328 344.4587793 191.14222656 343.48005859 190.86132812 342.47167969 C189.84980605 338.83524313 188.845038 335.19696898 187.84228516 331.55810547 C187.40759928 329.98435457 186.97109083 328.4111059 186.53271484 326.83837891 C185.90240711 324.57584571 185.27870627 322.31157903 184.65625 320.046875 C184.36095398 318.99509064 184.36095398 318.99509064 184.05969238 317.92205811 C183.15093978 314.59148897 182.6875 311.92454496 182.6875 308.4375 C182.07003906 308.60636719 181.45257813 308.77523438 180.81640625 308.94921875 C163.9890941 311.57520379 144.49207387 307.75119919 128.6262207 302.01904297 C126.54592568 301.29384266 126.54592568 301.29384266 123.6875 301.4375 C121.98812622 303.9259797 120.48661392 306.38679864 119 309 C112.17365377 320.57561618 104.466639 331.48857643 96.6875 342.4375 C96.10677734 343.25814941 95.52605469 344.07879883 94.92773438 344.92431641 C84.78373989 359.23736151 74.14968954 373.18599126 62.9453125 386.6875 C61.49295465 388.34898319 61.49295465 388.34898319 61.6875 390.4375 C62.47697021 390.59307373 63.26644043 390.74864746 64.07983398 390.90893555 C135.34343425 405.04545085 135.34343425 405.04545085 154.5078125 432.546875 C159.45510348 440.47564598 160.57247272 448.29791006 158.75 457.375 C154.52319737 472.04670157 142.39759945 480.76882588 129.72802734 487.98071289 C108.92602674 499.29937749 85.21581153 504.89823594 62 508.6875 C61.07678955 508.83856201 60.1535791 508.98962402 59.20239258 509.14526367 C56.03549889 509.6280999 52.86689666 510.04465785 49.6875 510.4375 C48.98519257 510.52470306 48.28288513 510.61190613 47.55929565 510.70175171 C32.99733414 512.44992535 18.51767801 512.77907057 3.86108398 512.75317383 C0.15383142 512.75002449 -3.55261143 512.77353924 -7.25976562 512.79882812 C-28.73533355 512.85595936 -50.14710801 511.25873666 -71.25 507.125 C-72.89899292 506.80970337 -72.89899292 506.80970337 -74.58129883 506.48803711 C-99.02189918 501.64805145 -126.24890642 494.36206832 -145.3125 477.4375 C-146.35664063 476.54998047 -146.35664063 476.54998047 -147.421875 475.64453125 C-154.62155109 469.08091677 -159.37675997 461.39008484 -160.02368164 451.49633789 C-160.22631679 440.74902818 -156.56133583 432.608551 -149.3125 424.75 C-137.13492198 413.45248224 -121.48741148 406.10412142 -105.875 400.9375 C-104.16606567 400.36721069 -104.16606567 400.36721069 -102.42260742 399.78540039 C-89.28646854 395.55895946 -75.87150059 392.91395535 -62.3125 390.4375 C-64.00194824 386.9222376 -66.02575427 384.07804158 -68.4375 381 C-69.34027243 379.83757238 -70.24258306 378.67478603 -71.14453125 377.51171875 C-71.89597412 376.54564697 -71.89597412 376.54564697 -72.66259766 375.56005859 C-82.8405564 362.46636618 -92.6888043 349.25654333 -101.9296875 335.48291016 C-103.14363428 333.68728054 -104.37518402 331.90747475 -105.625 330.13671875 C-117.55806617 313.22422975 -128.3324817 295.5631499 -138.3125 277.4375 C-138.78284668 276.58865234 -139.25319336 275.73980469 -139.73779297 274.86523438 C-163.27141696 232.13590673 -178.84298272 184.42082807 -168.3125 135.4375 C-168.14621094 134.65793945 -167.97992188 133.87837891 -167.80859375 133.07519531 C-162.54361114 109.31452381 -152.44451166 86.57062011 -137.3125 67.4375 C-136.35537109 66.17679688 -136.35537109 66.17679688 -135.37890625 64.890625 C-108.68853931 30.78346422 -69.10322962 7.29734474 -26.11328125 1.09375 C-17.43344014 0.10131081 -8.72691179 0.03568744 0 0 Z M-111.3125 63.4375 C-139.14424465 91.59812789 -154.3620734 130.45583319 -154.75 169.8125 C-154.55748765 200.2611846 -143.70818411 228.44097685 -130.3125 255.4375 C-129.86116699 256.34725586 -129.40983398 257.25701172 -128.94482422 258.19433594 C-110.93168963 294.14271049 -87.59177228 327.29984515 -63.11474609 359.09619141 C-61.55878157 361.11755416 -60.00663858 363.14173211 -58.45703125 365.16796875 C-56.085869 368.26585895 -53.70183352 371.35359279 -51.3125 374.4375 C-50.88163086 374.99453613 -50.45076172 375.55157227 -50.00683594 376.12548828 C-44.56037901 383.15576392 -39.0033972 390.06216827 -33.22680664 396.82421875 C-30.52948892 399.98469272 -27.89200299 403.18028645 -25.3125 406.4375 C-21.79141931 410.88025416 -18.14649326 415.20547117 -14.47338867 419.5222168 C-10.01441847 424.76921148 -5.65182453 430.0910236 -1.3125 435.4375 C3.04468719 433.85400917 5.5105194 430.45817433 8.375 427 C8.90391846 426.37182373 9.43283691 425.74364746 9.9777832 425.09643555 C11.55598473 423.21685213 13.12372637 421.32909597 14.6875 419.4375 C15.5021875 418.45265625 16.316875 417.4678125 17.15625 416.453125 C19.34300824 413.78897588 21.51658461 411.11456688 23.6875 408.4375 C25.186645 406.60346746 26.68665322 404.77014019 28.1875 402.9375 C28.93257812 402.02613281 29.67765625 401.11476563 30.4453125 400.17578125 C31.91642613 398.37917732 33.39029528 396.58482543 34.8671875 394.79296875 C40.3949715 388.07503908 45.79511863 381.26583246 51.14697266 374.40771484 C52.77419948 372.3266181 54.40838808 370.25110575 56.04296875 368.17578125 C63.65003918 358.49115403 70.99891959 348.65486756 78.13476562 338.61816406 C79.62957226 336.51885387 81.13406278 334.42682058 82.640625 332.3359375 C88.57117303 324.06563387 94.24557531 315.64440436 99.8125 307.125 C100.46460449 306.12766846 101.11670898 305.13033691 101.78857422 304.1027832 C105.49733771 298.41880677 105.49733771 298.41880677 108.6875 292.4375 C107.80449219 291.96441406 106.92148437 291.49132812 106.01171875 291.00390625 C97.84340854 286.53982974 90.67952923 281.63589373 83.6875 275.4375 C83.19507813 275.01065918 82.70265625 274.58381836 82.1953125 274.14404297 C74.87516146 267.79232562 68.59638623 261.15187925 62.6875 253.4375 C59.02035382 254.75068758 55.80578315 256.50331484 52.47363281 258.50952148 C29.31605777 272.33130521 1.78522126 276.36811243 -24.56274414 270.34643555 C-50.62310036 263.69932635 -73.40565712 247.60116237 -87.3125 224.4375 C-100.82907116 200.79541984 -105.76028439 173.15791332 -99.07861328 146.44018555 C-94.61275581 130.11912698 -87.03566998 113.62814235 -74.58203125 101.79296875 C-73.08463626 100.50373659 -73.08463626 100.50373659 -73.3125 98.4375 C-72.73242188 98.18226562 -72.15234375 97.92703125 -71.5546875 97.6640625 C-69.08903057 96.31525365 -67.44580997 94.77392336 -65.4375 92.8125 C-44.10821079 73.54283119 -16.38848123 69.06216086 11.27783203 70.20996094 C18.43194473 70.68737989 24.91940744 72.12626839 31.6875 74.4375 C32.32107422 74.64648926 32.95464844 74.85547852 33.60742188 75.07080078 C41.89345643 77.85575953 49.08728311 81.58732062 56.2097168 86.62963867 C57.65591822 87.6357942 59.16815816 88.54562115 60.6875 89.4375 C64.29883872 88.23372043 64.94545377 87.0740621 67.1875 84.0625 C75.59296898 73.31452327 86.91866332 61.12963201 99.6875 55.4375 C95.17989693 43.94955161 74.46520383 34.94828514 63.8203125 30.203125 C52.74051978 25.50007427 41.42645188 22.05558031 29.6875 19.4375 C28.1096875 19.08558594 28.1096875 19.08558594 26.5 18.7265625 C-23.99998718 9.04739829 -75.35566203 27.89101111 -111.3125 63.4375 Z M83.6875 89.4375 C70.21208212 104.78331057 61.09060101 121.77921749 55.6875 141.4375 C55.17703125 143.28988281 55.17703125 143.28988281 54.65625 145.1796875 C47.66414437 175.80252051 54.38498869 207.49600234 69.6875 234.4375 C74.60509652 242.08597492 80.45516918 248.83982565 86.6875 255.4375 C87.37328125 256.18773437 88.0590625 256.93796875 88.765625 257.7109375 C109.14906903 279.22679509 139.32308019 291.23131278 168.6875 292.4375 C191.33921475 292.88400015 213.02919972 287.81670165 232.6875 276.4375 C233.29674316 276.08816406 233.90598633 275.73882812 234.53369141 275.37890625 C243.61785641 270.08405267 251.18121733 263.76372192 258.6875 256.4375 C259.33074219 255.85613281 259.97398437 255.27476562 260.63671875 254.67578125 C280.16881216 236.60062721 292.03175033 207.5572845 293.90722656 181.36938477 C295.14105428 148.58222763 286.99410395 117.22713833 264.6875 92.4375 C264.04296875 91.66277344 263.3984375 90.88804688 262.734375 90.08984375 C244.25013622 68.18677218 214.92274482 53.6619786 186.58203125 50.68359375 C147.60345036 48.22055404 110.69534967 60.42696679 83.6875 89.4375 Z M-61.9375 111.5625 C-78.38465002 128.75589095 -85.89449715 150.54990169 -85.72998047 174.11791992 C-85.09966304 197.23154095 -74.78141239 218.29949312 -58.3125 234.4375 C-38.7137825 251.61133979 -15.02871652 258.07347513 10.6875 256.4375 C26.12374302 254.68294567 40.60067103 248.03073089 52.6875 238.4375 C52.41075439 237.82044189 52.13400879 237.20338379 51.84887695 236.56762695 C45.57553704 222.43988268 40.50085064 208.66279558 37.6875 193.4375 C37.48898438 192.37789063 37.29046875 191.31828125 37.0859375 190.2265625 C33.88419863 159.77865367 39.32252378 131.84493972 52.6875 104.4375 C18.04092546 75.56535455 -30.23259381 81.92287819 -61.9375 111.5625 Z M212.7734375 302.43359375 C212.01289063 302.66240234 211.25234375 302.89121094 210.46875 303.12695312 C209.6746875 303.37380859 208.880625 303.62066406 208.0625 303.875 C206.85980469 304.23948242 206.85980469 304.23948242 205.6328125 304.61132812 C203.64905332 305.21354073 201.66801018 305.82468689 199.6875 306.4375 C201.07349134 313.85681118 202.82516999 321.14094245 204.75 328.4375 C205.01876953 329.47261719 205.28753906 330.50773437 205.56445312 331.57421875 C206.78635772 336.62912126 206.78635772 336.62912126 208.6875 341.4375 C210.16812542 341.17475854 211.64692285 340.90171764 213.125 340.625 C213.94871094 340.47417969 214.77242188 340.32335937 215.62109375 340.16796875 C219.73587178 339.18776048 223.69335697 337.82167431 227.6875 336.4375 C226.45269159 331.61097014 225.20738696 326.7873215 223.95214844 321.96606445 C223.5263763 320.32456662 223.10351433 318.68231113 222.68359375 317.03930664 C222.08050567 314.68171584 221.46710256 312.32702222 220.8515625 309.97265625 C220.66502106 309.23410904 220.47847961 308.49556183 220.2862854 307.7346344 C219.81464232 305.95157452 219.25853987 304.19125688 218.6875 302.4375 C216.14385984 301.16567992 215.44286947 301.61682725 212.7734375 302.43359375 Z M239.22607422 350.50732422 C238.35191864 350.74111786 237.47776306 350.9749115 236.57711792 351.21578979 C235.64159088 351.47200104 234.70606384 351.72821228 233.7421875 351.9921875 C232.77596466 352.25379669 231.80974182 352.51540588 230.8142395 352.78494263 C228.77438848 353.33893172 226.73524866 353.89554527 224.69677734 354.45458984 C221.56969362 355.31053097 218.43937147 356.15377834 215.30859375 356.99609375 C213.3279162 357.5356925 211.34744025 358.07603188 209.3671875 358.6171875 C208.427612 358.86935028 207.4880365 359.12151306 206.51998901 359.38131714 C205.65213776 359.6214151 204.7842865 359.86151306 203.89013672 360.10888672 C203.12498749 360.31762421 202.35983826 360.52636169 201.57150269 360.74142456 C199.48201243 361.36417245 199.48201243 361.36417245 197.6875 363.4375 C200.97676766 375.93311636 204.27923019 388.42516363 207.59837627 400.91287899 C209.13933639 406.71213015 210.67580171 412.51249351 212.2019043 418.31567383 C213.67605878 423.92063548 215.16213749 429.52231213 216.65638161 435.12195015 C217.22313132 437.25413896 217.78564462 439.38745868 218.34375572 441.52192497 C219.12888405 444.52158571 219.92926258 447.51679613 220.7331543 450.51147461 C221.07086853 451.82347084 221.07086853 451.82347084 221.41540527 453.16197205 C223.87957721 462.21030185 227.62973082 470.19995003 235.6875 475.4375 C241.39389418 478.5760168 247.260536 479.33428567 253.6875 478.4375 C260.29389936 476.45877169 266.35116475 473.10345693 270.12890625 467.17578125 C274.66509591 458.73665918 275.28423588 451.90952555 272.88671875 442.8046875 C272.66650558 441.92585907 272.44629242 441.04703064 272.21940613 440.14157104 C271.39667561 436.90101371 270.54469655 433.66911386 269.6875 430.4375 C269.51355965 429.77972061 269.33961929 429.12194122 269.16040802 428.44422913 C266.21691878 417.31676756 263.20991359 406.20676527 260.18951416 395.09997559 C259.2630105 391.69035683 258.33930862 388.27998195 257.41573048 384.86956978 C255.5037438 377.80956541 253.59002521 370.75002793 251.67114258 363.69189453 C251.33536697 362.45617706 250.99959137 361.22045959 250.65364075 359.94729614 C249.68738638 356.43708724 248.69359245 352.9364537 247.6875 349.4375 C244.38560189 349.4375 242.32204898 349.6709007 239.22607422 350.50732422 Z M-139.0390625 439.40625 C-141.92791886 443.47324331 -143.1696369 447.19974889 -142.859375 452.20703125 C-140.69056346 461.05268401 -131.44893083 467.24316213 -124.1875 471.8125 C-101.11271429 484.79744153 -74.24662251 489.92424586 -48.3125 493.4375 C-47.4992627 493.55077637 -46.68602539 493.66405273 -45.84814453 493.78076172 C7.16846145 500.9623392 85.60551946 500.35058229 130.8125 466.875 C136.29529823 462.24135408 141.26193906 457.72413536 142.62890625 450.41015625 C142.79177354 444.92695735 139.34147927 440.2174134 135.78515625 436.3203125 C113.21870811 416.06513931 78.67658869 409.77935418 49.7734375 405.9140625 C45.20162382 406.68953469 43.54520196 409.18226746 40.8125 412.75 C40.2956665 413.3886499 39.77883301 414.0272998 39.24633789 414.68530273 C38.19883276 415.98297769 37.16004842 417.28774357 36.13037109 418.59960938 C34.16807759 421.09912638 32.14569878 423.54758999 30.125 426 C29.41085938 426.87914062 28.69671875 427.75828125 27.9609375 428.6640625 C24.9685462 432.31457423 21.92414468 435.91939048 18.85449219 439.50512695 C16.50227319 442.25913528 14.20104815 445.03597833 11.9765625 447.89453125 C11.31998657 448.72416382 11.31998657 448.72416382 10.65014648 449.57055664 C9.44730055 451.09581963 8.26022913 452.63348463 7.07421875 454.171875 C4.15906474 456.9391243 2.68953533 457.45778915 -1.3125 457.4375 C-5.96741779 455.74002998 -8.45987107 453.51927156 -11.4375 449.625 C-12.20320312 448.64917969 -12.96890625 447.67335938 -13.7578125 446.66796875 C-14.16676758 446.14509277 -14.57572266 445.6222168 -14.99707031 445.08349609 C-17.35499069 442.13303225 -19.84028244 439.29219244 -22.3125 436.4375 C-25.90521707 432.26915735 -29.45918148 428.07743472 -32.9375 423.8125 C-33.64777344 422.94753906 -34.35804688 422.08257812 -35.08984375 421.19140625 C-36.71688056 419.1754819 -38.30578737 417.14681853 -39.87890625 415.08984375 C-40.75251087 413.97648929 -41.62620687 412.86320652 -42.5 411.75 C-43.27730469 410.73550781 -44.05460937 409.72101563 -44.85546875 408.67578125 C-47.09602885 406.22634564 -47.09602885 406.22634564 -49.95703125 406.00390625 C-79.00654776 409.75768545 -118.62880474 416.1330149 -139.0390625 439.40625 Z " fill="#000000" transform="translate(186.3125,-0.4375)"/>
<path d="M0 0 C1.88327864 1.46861179 3.75931303 2.94660391 5.625 4.4375 C6.28113281 4.93894531 6.93726563 5.44039062 7.61328125 5.95703125 C13.12329603 10.35237637 17.34146959 15.88110557 21.625 21.4375 C22.24632812 22.24316406 22.86765625 23.04882812 23.5078125 23.87890625 C40.65631553 47.21778818 46.69472763 76.63698934 42.43359375 105.0703125 C37.54211392 133.45778507 22.28364677 158.59065661 -1.0625 175.625 C-13.48766031 184.32996034 -26.67604327 189.86404068 -41.375 193.4375 C-42.82519531 193.80681641 -42.82519531 193.80681641 -44.3046875 194.18359375 C-71.29203886 199.85484875 -100.88332895 193.53697199 -123.90625 178.7890625 C-147.23479731 163.26660602 -164.24495894 140.36967282 -170.66796875 112.9765625 C-176.55697109 83.4990149 -172.83502074 53.30712925 -156.24755859 27.69677734 C-153.79056093 24.13891027 -151.12139236 20.77419163 -148.375 17.4375 C-147.80136719 16.71175781 -147.22773438 15.98601562 -146.63671875 15.23828125 C-141.90260559 9.48729414 -136.25900193 4.96744291 -130.375 0.4375 C-129.60542969 -0.1709375 -128.83585937 -0.779375 -128.04296875 -1.40625 C-90.93971869 -29.21788548 -36.64824113 -27.15529698 0 0 Z M-134.5 27.6875 C-150.54322414 46.35068614 -157.69056196 70.09960374 -156.375 94.4375 C-153.89023033 119.49526176 -142.22776171 141.77693432 -123.09375 158.3125 C-102.80172452 174.1729337 -78.60458239 180.57414677 -53.17724609 178.23535156 C-28.56650265 175.16118375 -6.86464553 161.71611467 8.4140625 142.45703125 C22.94119896 122.61696679 28.70293474 99.16677793 26 74.8125 C22.34982314 51.60045984 10.44956665 29.67431065 -8.26953125 15.19921875 C-49.11315639 -14.18646077 -100.16340958 -8.85357969 -134.5 27.6875 Z " fill="#000000" transform="translate(424.375,83.5625)"/>
<path d="M0 0 C2.74034714 1.99969932 4.69070432 3.57421599 5.43325806 6.9972229 C5.57882455 9.42636166 5.56220407 11.8058958 5.48828125 14.23828125 C5.48120651 15.11904831 5.47413177 15.99981537 5.46684265 16.90727234 C5.43893848 19.70989285 5.37620943 22.51048735 5.3125 25.3125 C5.2874119 27.21676794 5.26459962 29.12106732 5.24414062 31.02539062 C5.18912503 35.68436984 5.10288151 40.34184189 5 45 C6.73286255 44.97643433 6.73286255 44.97643433 8.50073242 44.95239258 C12.79639687 44.89799631 17.092031 44.86361467 21.38793945 44.83520508 C23.24541345 44.82014054 25.10285201 44.79968491 26.96020508 44.77368164 C29.63371539 44.73719541 32.30675444 44.7202503 34.98046875 44.70703125 C36.2213752 44.68380547 36.2213752 44.68380547 37.48735046 44.66011047 C42.15144877 44.65875628 45.21513472 44.9575915 49 48 C50.56471233 51.12942465 50.69701958 54.61082223 50 58 C47.96330987 60.51249642 46.74911911 61.84324005 43.5405426 62.5146637 C42.62296677 62.52086227 41.70539093 62.52706085 40.76000977 62.53344727 C39.71535049 62.5492836 38.67069122 62.56511993 37.59437561 62.58143616 C36.47139572 62.57647629 35.34841583 62.57151642 34.19140625 62.56640625 C33.03253403 62.57260483 31.8736618 62.57880341 30.67967224 62.58518982 C28.22940918 62.59229233 25.77909791 62.58910657 23.32885742 62.57641602 C19.57966221 62.56256341 15.83296824 62.59660364 12.08398438 62.63476562 C9.70312439 62.63571692 7.32226128 62.63385743 4.94140625 62.62890625 C3.82045059 62.64216446 2.69949493 62.65542267 1.54457092 62.66908264 C-3.07163515 62.61386715 -6.14266425 62.48388821 -10.20483398 60.19116211 C-12.94495955 55.32020043 -12.71487567 50.8146814 -12.6640625 45.3125 C-12.66884613 44.17723877 -12.67362976 43.04197754 -12.67855835 41.87231445 C-12.68195672 39.47508354 -12.67275891 37.07780625 -12.65185547 34.68066406 C-12.62509208 31.01262006 -12.65160868 27.34763639 -12.68359375 23.6796875 C-12.68028964 21.34895158 -12.6738834 19.01821757 -12.6640625 16.6875 C-12.67418365 15.59155518 -12.68430481 14.49561035 -12.69473267 13.36645508 C-12.57825374 5.7945063 -12.57825374 5.7945063 -9.67724609 1.80859375 C-6.1175487 -0.59613343 -4.21371581 -0.75244925 0 0 Z " fill="#000000" transform="translate(363,117)"/>
</svg>
