<?xml version="1.0" encoding="UTF-8"?>
<svg version="1.1" xmlns="http://www.w3.org/2000/svg" width="512" height="512">
<path d="M0 0 C1.34578125 -0.01546875 1.34578125 -0.01546875 2.71875 -0.03125 C9.43865822 1.25232798 14.20437567 6.91222124 18.85058594 11.57592773 C19.56026016 12.28049103 20.26993439 12.98505432 21.00111389 13.71096802 C23.33403965 16.03004814 25.65951709 18.35642768 27.984375 20.68359375 C29.60746668 22.30279694 31.23078136 23.92177662 32.85430908 25.5405426 C36.25020126 28.92898427 39.64220614 32.32126118 43.03173828 35.71606445 C47.37675844 40.06689033 51.73306273 44.40621984 56.092556 48.7425375 C59.44518669 52.0804455 62.79087462 55.42524489 66.13459015 58.77208138 C67.73822672 60.37520442 69.34422973 61.97596386 70.95262909 63.5743084 C73.19798366 65.8073392 75.43360462 68.0496867 77.66699219 70.29467773 C78.33297928 70.95302109 78.99896637 71.61136444 79.68513489 72.28965759 C83.9518239 76.60554489 86.24832253 79.73154783 86.8125 85.9375 C86.25585013 92.28330856 83.18491115 96.19565359 78.7890625 100.609375 C77.87382812 101.52847656 76.95859375 102.44757813 76.015625 103.39453125 C75.54060547 103.8632666 75.06558594 104.33200195 74.57617188 104.81494141 C73.1252506 106.24975219 71.69109245 107.69993378 70.2578125 109.15234375 C69.34 110.06628906 68.4221875 110.98023438 67.4765625 111.921875 C66.64205566 112.75299805 65.80754883 113.58412109 64.94775391 114.44042969 C61.45080486 117.38280573 58.6351879 118.37386801 54.125 118.875 C50.66719071 118.51729559 49.59768862 118.1403444 46.8125 116.375 C45.719375 115.75625 44.62625 115.1375 43.5 114.5 C40.15685055 115.60967293 38.04688304 117.71848981 35.609375 120.1953125 C34.90039062 120.91074219 34.19140625 121.62617188 33.4609375 122.36328125 C32.73132813 123.10964844 32.00171875 123.85601562 31.25 124.625 C30.50492188 125.37910156 29.75984375 126.13320312 28.9921875 126.91015625 C27.1568658 128.76900772 25.3263809 130.63237005 23.5 132.5 C24.96874721 135.94507263 26.87239925 138.03665133 29.59765625 140.58203125 C30.39880859 141.34966797 31.19996094 142.11730469 32.02539062 142.90820312 C33.71302355 144.50749191 35.40834137 146.09871117 37.11132812 147.68164062 C43.95214114 154.27991071 43.95214114 154.27991071 44.7734375 158.296875 C44.45197466 162.06258259 43.70642974 163.29357026 41.0625 165.9375 C40.40378906 166.61683594 39.74507812 167.29617188 39.06640625 167.99609375 C38.54949219 168.49238281 38.03257812 168.98867188 37.5 169.5 C45.1849874 177.26762167 53.31696528 184.42532375 61.81640625 191.28515625 C64.44708557 193.45632827 66.97942424 195.70241357 69.5 198 C72.91739372 201.11458668 76.4052235 204.0918662 80 207 C84.46276213 210.61032442 88.72719533 214.38427929 92.96875 218.25 C95.5884481 220.57862053 98.2751531 222.79562947 101 225 C104.5947765 227.9081338 108.08260628 230.88541332 111.5 234 C114.81989486 237.02282421 118.19764112 239.92512161 121.6875 242.75 C126.13852192 246.35470085 130.49198605 250.05370267 134.8125 253.8125 C135.44599365 254.36357422 136.0794873 254.91464844 136.73217773 255.48242188 C138.01831655 256.60162485 139.30436788 257.72092837 140.59033203 258.84033203 C143.63522393 261.48660858 146.69044119 264.12070485 149.75 266.75 C150.3260498 267.24717529 150.90209961 267.74435059 151.49560547 268.2565918 C155.06472445 271.32216461 158.72255733 274.23616327 162.4375 277.125 C170.35237434 283.5944481 175.81921863 291.29417436 177.5 301.5 C178.62170949 313.41223883 176.0645194 323.17879126 168.5 332.5 C162.62112043 339.13258208 154.34524284 343.19272919 145.51953125 343.94921875 C134.11985636 344.46401669 124.56490261 341.772255 115.8984375 334.078125 C111.46517856 329.82705478 107.66652661 325.10265085 103.8203125 320.32421875 C101.61671594 317.64206334 99.33956175 315.06373579 97 312.5 C93.08108748 308.20008209 89.40829131 303.74080453 85.75 299.21875 C83.56498431 296.57852271 81.30828609 294.0327028 79 291.5 C75.08108748 287.20008209 71.40829131 282.74080453 67.75 278.21875 C65.56498431 275.57852271 63.30828609 273.0327028 61 270.5 C57.08108748 266.20008209 53.40829131 261.74080453 49.75 257.21875 C47.56498431 254.57852271 45.30828609 252.0327028 43 249.5 C39.08108748 245.20008209 35.40829131 240.74080453 31.75 236.21875 C29.56498431 233.57852271 27.30828609 231.0327028 25 228.5 C21.05310182 224.16803858 17.3386551 219.68334716 13.65234375 215.12890625 C10.68823137 211.50849313 7.61260732 207.9929259 4.5 204.5 C1.93907843 205.67706954 0.54968469 206.44174898 -1.3125 208.625 C-3.5 210.5 -3.5 210.5 -6.75 211.1875 C-12.21616038 210.1853706 -14.66262163 207.37487718 -18.5 203.5 C-19.63209244 202.37948037 -20.76496557 201.25974918 -21.8984375 200.140625 C-25.11995752 196.94753273 -28.31459846 193.7291037 -31.5 190.5 C-34.7586636 191.9264578 -36.9024854 193.66704162 -39.390625 196.1953125 C-40.09960938 196.91074219 -40.80859375 197.62617188 -41.5390625 198.36328125 C-42.26867187 199.10964844 -42.99828125 199.85601562 -43.75 200.625 C-44.49507813 201.37910156 -45.24015625 202.13320313 -46.0078125 202.91015625 C-47.8431342 204.76900772 -49.6736191 206.63237005 -51.5 208.5 C-51.18450195 209.28391113 -50.86900391 210.06782227 -50.54394531 210.87548828 C-49.68484669 213.03528954 -48.89774175 215.14491769 -48.25 217.375 C-48.05921875 217.99117187 -47.8684375 218.60734375 -47.671875 219.2421875 C-47.30901192 224.00888892 -48.86764958 227.70219927 -51.79077148 231.39013672 C-52.72477783 232.31068848 -53.65878418 233.23124023 -54.62109375 234.1796875 C-55.37193993 234.92703659 -55.37193993 234.92703659 -56.13795471 235.68948364 C-57.19035878 236.73220423 -58.2487396 237.76892405 -59.31274414 238.79980469 C-60.94174909 240.37911948 -62.55104971 241.97660729 -64.15820312 243.578125 C-73.28494204 252.57991066 -73.28494204 252.57991066 -80.1875 252.9375 C-80.99574219 252.99808594 -81.80398437 253.05867187 -82.63671875 253.12109375 C-89.81527777 251.56394384 -95.63451797 244.66350242 -100.67871094 239.61181641 C-101.34645035 238.95079422 -102.01418976 238.28977203 -102.7021637 237.60871887 C-104.88482931 235.4448895 -107.06002903 233.27374965 -109.234375 231.1015625 C-110.76021142 229.58216108 -112.28619448 228.06290689 -113.81231689 226.54379272 C-116.9996931 223.3683512 -120.18294977 220.1888443 -123.36376953 217.00683594 C-127.43106657 212.93933526 -131.51197472 208.88579328 -135.59652328 204.8356266 C-138.74843553 201.7059898 -141.89117692 198.56726596 -145.03144073 195.42594528 C-146.5320598 193.92767871 -148.03590561 192.43263644 -149.54308319 190.94096756 C-151.65134461 188.85238964 -153.74645266 186.75141063 -155.83886719 184.64697266 C-156.45711868 184.03996017 -157.07537018 183.43294769 -157.71235657 182.80754089 C-162.13996908 178.31527697 -165.8426737 173.38252541 -166.91796875 167.03125 C-166.42405281 162.67809256 -165.40934503 159.99365282 -162.43359375 156.7421875 C-161.80396729 156.05157227 -161.17434082 155.36095703 -160.52563477 154.64941406 C-157.18109241 151.10049868 -153.81031813 147.58629407 -150.375 144.125 C-149.68535156 143.41472656 -148.99570313 142.70445312 -148.28515625 141.97265625 C-147.61097656 141.29332031 -146.93679687 140.61398437 -146.2421875 139.9140625 C-145.6426123 139.3051416 -145.04303711 138.6962207 -144.42529297 138.06884766 C-140.12015442 134.56075479 -135.94051319 134.022762 -130.5 134.5 C-128.4697411 135.43704257 -126.46303418 136.42925408 -124.5 137.5 C-121.50265334 137.81171482 -121.50265334 137.81171482 -119.67844105 136.04758453 C-118.99539245 135.36177055 -118.31234385 134.67595657 -117.6085968 133.96936035 C-116.82195648 133.18684402 -116.03531616 132.4043277 -115.22483826 131.59809875 C-114.3660054 130.72848007 -113.50717255 129.85886139 -112.62231445 128.96289062 C-111.71479431 128.05580856 -110.80727417 127.1487265 -109.87225342 126.2141571 C-107.38021055 123.7229769 -104.89754157 121.22263831 -102.41641259 118.72059441 C-99.8232605 116.10872066 -97.22164127 113.50530941 -94.62089539 110.90100098 C-89.69568567 105.96645752 -84.77817472 101.02431479 -79.86336154 96.07941866 C-74.26834179 90.45089626 -68.66482685 84.83086436 -63.06057036 79.21154118 C-51.53087886 67.65047054 -40.01194101 56.07874638 -28.5 44.5 C-29.89759905 40.95481116 -29.89759905 40.95481116 -31.5 37.5 C-32.19044646 32.91010021 -32.46429565 28.47970237 -30.39453125 24.23046875 C-28.57284432 21.80605084 -26.61619117 19.67478278 -24.5 17.5 C-24.00145508 16.9755127 -23.50291016 16.45102539 -22.98925781 15.91064453 C-7.74841248 -0.08906221 -7.74841248 -0.08906221 0 0 Z M-2.19580078 16.96875 C-2.85563965 17.6390625 -3.51547852 18.309375 -4.1953125 19 C-5.26845703 20.0828125 -5.26845703 20.0828125 -6.36328125 21.1875 C-7.48283203 22.3321875 -7.48283203 22.3321875 -8.625 23.5 C-9.37910156 24.263125 -10.13320312 25.02625 -10.91015625 25.8125 C-12.77796966 27.70395662 -14.64097267 29.59991362 -16.5 31.5 C-11.72311824 37.29723535 -6.51946727 42.60030377 -1.1901722 47.8849926 C0.37311046 49.4353351 1.9330932 50.98893413 3.49232483 52.54335022 C7.36399364 56.40175602 11.24111104 60.25467146 15.11810303 64.10772705 C18.40265548 67.37241881 21.68506226 70.63924051 24.9647541 73.90881538 C26.48858712 75.42624986 28.01544012 76.94059761 29.54246521 78.45481873 C34.23176212 83.11966985 38.80724445 87.82962185 43.0954895 92.86940002 C45.09797917 95.19423818 47.25198805 97.34811131 49.4375 99.5 C50.20964844 100.263125 50.98179687 101.02625 51.77734375 101.8125 C52.34582031 102.369375 52.91429687 102.92625 53.5 103.5 C59.91069287 98.22898586 65.68590512 92.40871848 71.5 86.5 C67.51834718 81.73297919 63.36827517 77.21954176 58.97558594 72.83032227 C58.35369385 72.20507156 57.73180176 71.57982086 57.09106445 70.93562317 C55.05811452 68.89326056 53.02149624 66.8546077 50.984375 64.81640625 C49.56277277 63.39158803 48.14124478 61.96669572 46.7197876 60.54173279 C43.75278957 57.56877024 40.78375544 54.59785831 37.81347656 51.62817383 C33.99947933 47.81427883 30.19244292 43.9935148 26.38708115 40.1710062 C23.46008014 37.23292387 20.52858328 34.29936003 17.59577179 31.36707878 C16.1890849 29.95920883 14.78402617 28.54971019 13.3806076 27.13858223 C11.42736836 25.17560809 9.46797142 23.21899682 7.50683594 21.26391602 C6.92500549 20.67646606 6.34317505 20.08901611 5.74371338 19.48376465 C2.14510619 15.28196259 2.14510619 15.28196259 -2.19580078 16.96875 Z M-18.10669804 55.98365021 C-18.80633891 56.68421288 -19.50597979 57.38477554 -20.2268219 58.10656738 C-21.0275412 58.90591202 -21.8282605 59.70525665 -22.65324402 60.52882385 C-23.98033134 61.86130409 -23.98033134 61.86130409 -25.33422852 63.22070312 C-26.26096375 64.14729233 -27.18769897 65.07388153 -28.14251709 66.02854919 C-30.69214179 68.57788582 -33.23866165 71.13030396 -35.78465772 73.68326378 C-38.44278916 76.34762717 -41.10373418 79.00917745 -43.76438904 81.67102051 C-48.80605183 86.71579708 -53.84515911 91.76311839 -58.88336557 96.81134653 C-64.61771158 102.55685221 -70.3548819 108.29953408 -76.09229767 114.04197407 C-87.89802281 125.85816467 -99.70017508 137.67791729 -111.5 149.5 C-109.83584511 153.03064237 -107.92323107 155.31935682 -105.14208984 158.08496094 C-104.24130707 158.98559265 -103.34052429 159.88622437 -102.41244507 160.81414795 C-101.42871592 161.78766481 -100.4448775 162.76107125 -99.4609375 163.734375 C-98.45444872 164.73713161 -97.44840211 165.74033222 -96.44277954 166.74395752 C-93.80037853 169.37873813 -91.15202572 172.00745611 -88.50238037 174.63494873 C-85.79743948 177.31939688 -83.09818179 180.00954622 -80.3984375 182.69921875 C-75.10449826 187.97173618 -69.80425717 193.23786057 -64.5 198.5 C-61.19972125 197.05802042 -59.02444486 195.27180823 -56.48834229 192.72885132 C-55.30631981 191.55095284 -55.30631981 191.55095284 -54.10041809 190.34925842 C-52.81756172 189.05561623 -52.81756172 189.05561623 -51.50878906 187.73583984 C-50.14728981 186.37477867 -50.14728981 186.37477867 -48.75828552 184.98622131 C-46.27269862 182.50120797 -43.79332422 180.01007876 -41.31501865 177.51780653 C-38.72276884 174.91304986 -36.12484996 172.31396002 -33.52752686 169.71426392 C-28.61144568 164.79196785 -23.70048477 159.86459597 -18.7913425 154.93538058 C-13.2015946 149.32327399 -7.60616312 143.71684885 -2.01024675 138.11089396 C9.49950528 126.58023972 21.00209796 115.04247086 32.5 103.5 C29.11376962 99.484995 25.69377056 95.56842551 21.97924805 91.84985352 C21.14205734 91.00951065 20.30486664 90.16916779 19.44230652 89.30335999 C18.55771255 88.42079025 17.67311859 87.53822052 16.76171875 86.62890625 C15.84034622 85.706577 14.91897369 84.78424774 13.96968079 83.83396912 C12.03405783 81.89688239 10.0966639 79.96158992 8.15795898 78.02758789 C5.66836848 75.54374205 3.18335917 73.05536843 0.69961834 70.56567478 C-1.67309644 68.1884958 -4.04959349 65.81511377 -6.42578125 63.44140625 C-7.76785393 62.09629723 -7.76785393 62.09629723 -9.13703918 60.72401428 C-9.95846909 59.90573654 -10.77989899 59.0874588 -11.6262207 58.24438477 C-12.35202835 57.51937271 -13.077836 56.79436066 -13.82563782 56.04737854 C-15.97179442 53.98290348 -15.97179442 53.98290348 -18.10669804 55.98365021 Z M10.12693787 145.75280762 C9.54291702 146.33904907 8.95889618 146.92529053 8.35717773 147.52929688 C7.69656845 148.18998169 7.03595917 148.8506665 6.35533142 149.53137207 C5.63865799 150.25320679 4.92198456 150.9750415 4.18359375 151.71875 C3.45253922 152.45121948 2.72148468 153.18368896 1.96827698 153.93835449 C-0.3776603 156.28991174 -2.72010621 158.64491355 -5.0625 161 C-6.64755855 162.59007097 -8.23284201 164.17991778 -9.81835938 165.76953125 C-13.71485791 169.67708527 -17.60849167 173.58747658 -21.5 177.5 C-20.54957913 178.61674511 -19.59802392 179.73252489 -18.64599609 180.84790039 C-18.11622162 181.4693544 -17.58644714 182.09080841 -17.0406189 182.73109436 C-15.15646139 184.89444368 -13.17078197 186.92699013 -11.125 188.9375 C-10.09246094 189.95650391 -10.09246094 189.95650391 -9.0390625 190.99609375 C-8.53117188 191.49238281 -8.02328125 191.98867188 -7.5 192.5 C-2.74914133 188.53627475 1.73613112 184.40205218 6.08984375 180.0078125 C6.67923233 179.41700897 7.26862091 178.82620544 7.87586975 178.21749878 C9.73213727 176.35569596 11.58487085 174.49042255 13.4375 172.625 C14.70614672 171.35132989 15.9750249 170.07789029 17.24414062 168.8046875 C20.33210554 165.70577957 23.41690929 162.60375699 26.5 159.5 C25.54871758 158.38336428 24.59646128 157.26755818 23.64379883 156.15209961 C23.11361649 155.5306456 22.58343414 154.90919159 22.03718567 154.26890564 C20.1662707 152.11596334 18.20806191 150.07521506 16.1875 148.0625 C15.51074219 147.38316406 14.83398438 146.70382812 14.13671875 146.00390625 C12.11669623 144.03356967 12.11669623 144.03356967 10.12693787 145.75280762 Z M-136.08227539 150.96875 C-137.07988892 151.97421875 -137.07988892 151.97421875 -138.09765625 153 C-138.81630859 153.721875 -139.53496094 154.44375 -140.27539062 155.1875 C-141.03013672 155.950625 -141.78488281 156.71375 -142.5625 157.5 C-143.32111328 158.263125 -144.07972656 159.02625 -144.86132812 159.8125 C-146.74312505 161.70613213 -148.62255805 163.60205162 -150.5 165.5 C-148.87114209 169.63337217 -145.87286412 172.38743232 -142.76855469 175.44262695 C-141.89012154 176.31908875 -141.89012154 176.31908875 -140.99394226 177.21325684 C-139.05780864 179.14290287 -137.11479809 181.06547368 -135.171875 182.98828125 C-133.82096325 184.33291887 -132.47056784 185.67807543 -131.1206665 187.02372742 C-127.56303559 190.56805287 -123.99988948 194.1067772 -120.43511963 197.6439209 C-114.74271779 203.29323341 -109.05691566 208.94916679 -103.37448883 214.60851097 C-101.39502615 216.5778131 -99.41214891 218.54362747 -97.42889404 220.5091095 C-96.20215147 221.72901646 -94.97552211 222.94903727 -93.74902344 224.16918945 C-93.20334213 224.70813339 -92.65766083 225.24707733 -92.09544373 225.80235291 C-88.35374278 229.53311883 -84.88632551 233.44473534 -81.5 237.5 C-78.48590694 236.05695686 -76.39527984 234.63408132 -74.046875 232.2421875 C-73.428125 231.61699219 -72.809375 230.99179687 -72.171875 230.34765625 C-71.53765625 229.69667969 -70.9034375 229.04570312 -70.25 228.375 C-69.6003125 227.71628906 -68.950625 227.05757813 -68.28125 226.37890625 C-66.68288273 224.75703357 -65.08938103 223.1306719 -63.5 221.5 C-64.78512906 218.67942704 -66.12550911 216.62485878 -68.31532288 214.43743896 C-68.88878952 213.85977783 -69.46225616 213.2821167 -70.05310059 212.68695068 C-70.99373352 211.75474701 -70.99373352 211.75474701 -71.95336914 210.80371094 C-72.6152977 210.13988403 -73.27722626 209.47605713 -73.95921326 208.79211426 C-76.1463394 206.601286 -78.34057772 204.4177361 -80.53515625 202.234375 C-82.0548434 200.71587978 -83.57416128 199.1970149 -85.09312439 197.67779541 C-88.27522549 194.49725805 -91.46065825 191.32010871 -94.64868164 188.14550781 C-98.74536446 184.06585075 -102.83539729 179.97960542 -106.92319584 175.89104843 C-110.05831004 172.7562054 -113.19601784 169.62396959 -116.33462334 166.49262238 C-117.8443883 164.98605004 -119.35353914 163.47886203 -120.86207771 161.97106171 C-122.96421863 159.87107602 -125.06961109 157.77440896 -127.17602539 155.67871094 C-127.80513824 155.0491449 -128.4342511 154.41957886 -129.08242798 153.77093506 C-132.28370731 149.57581332 -132.28370731 149.57581332 -136.08227539 150.96875 Z M22.99609375 182.90625 C21.9740319 183.934992 20.95462036 184.96637207 19.9375 186 C19.41736328 186.52464844 18.89722656 187.04929687 18.36132812 187.58984375 C17.07198309 188.89101763 15.7857063 190.19523051 14.5 191.5 C16.00006391 194.94779086 18.00409262 197.32360533 20.5625 200.0625 C23.83018473 203.62296928 26.96479193 207.2393292 30 211 C32.9081338 214.5947765 35.88541332 218.08260628 39 221.5 C42.91891252 225.79991791 46.59170869 230.25919547 50.25 234.78125 C52.43501569 237.42147729 54.69171391 239.9672972 57 242.5 C60.91891252 246.79991791 64.59170869 251.25919547 68.25 255.78125 C70.43501569 258.42147729 72.69171391 260.9672972 75 263.5 C78.91891252 267.79991791 82.59170869 272.25919547 86.25 276.78125 C88.43501569 279.42147729 90.69171391 281.9672972 93 284.5 C96.02282421 287.81989486 98.92512161 291.19764112 101.75 294.6875 C107.0047452 301.17325195 112.46793931 307.46807913 117.96923828 313.74462891 C119.36482137 315.34498654 120.74517344 316.95696512 122.12109375 318.57421875 C122.88550781 319.45722656 123.64992188 320.34023438 124.4375 321.25 C125.08589844 322.00796875 125.73429687 322.7659375 126.40234375 323.546875 C131.61119722 328.39683167 137.57807986 329.67144075 144.5 329.5 C150.77693146 328.25792169 155.8992966 324.97298901 159.7578125 319.8203125 C163.17264368 314.06524737 163.5049005 308.03185327 162.5 301.5 C158.93432697 292.20716189 149.79566973 285.834168 142.32421875 279.8203125 C139.64206334 277.61671594 137.06373579 275.33956175 134.5 273 C131.08260628 269.88541332 127.5947765 266.9081338 124 264 C119.53723787 260.38967558 115.27280467 256.61572071 111.03125 252.75 C108.4115519 250.42137947 105.7248469 248.20437053 103 246 C98.53723787 242.38967558 94.27280467 238.61572071 90.03125 234.75 C87.4115519 232.42137947 84.7248469 230.20437053 82 228 C77.53723787 224.38967558 73.27280467 220.61572071 69.03125 216.75 C66.4115519 214.42137947 63.7248469 212.20437053 61 210 C57.4052235 207.0918662 53.91739372 204.11458668 50.5 201 C46.16724004 197.05237425 41.68288492 193.33620244 37.125 189.65234375 C33.99591365 187.08667919 30.96827852 184.42145067 27.9609375 181.71484375 C25.41963635 179.60162274 25.63249301 180.37267443 22.99609375 182.90625 Z " fill="#000000" transform="translate(173.5,124.5)"/>
<path d="M0 0 C1.18300574 -0.09639255 1.18300574 -0.09639255 2.38991058 -0.19473243 C3.25096346 -0.26072961 4.11201633 -0.32672679 4.99916172 -0.39472389 C5.91943657 -0.46698385 6.83971142 -0.53924382 7.78787339 -0.61369348 C41.43145845 -3.21225033 75.10427365 -4.90084511 108.82979947 -5.90639985 C110.94272228 -5.96966873 113.05558187 -6.03481286 115.16844416 -6.10006809 C241.20613121 -9.93334635 241.20613121 -9.93334635 284.09849644 29.51744652 C291.10710076 36.15904711 297.42727195 43.34352532 303.57302952 50.78017235 C304.07291055 51.38154801 304.57279159 51.98292368 305.08782053 52.60252285 C340.12515195 94.89359042 340.12515195 94.89359042 340.14195728 109.05538654 C340.14579843 110.26480661 340.14963957 111.47422668 340.15359712 112.72029585 C340.15281677 114.07455955 340.15193797 115.4288232 340.15097141 116.78308678 C340.15355363 118.21240461 340.15656639 119.64172172 340.15997481 121.07103783 C340.16806553 125.01303367 340.16983554 128.95501133 340.17057228 132.8970145 C340.17241935 137.14331483 340.17996513 141.38960564 340.1867075 145.6359005 C340.20030806 154.92961138 340.20631878 164.22331797 340.21071815 173.51703715 C340.21347879 179.32000619 340.21771593 185.12297356 340.22222233 190.92594147 C340.23441937 206.99069267 340.24471644 223.05544252 340.24809742 239.12019825 C340.24831699 240.14908954 340.24853655 241.17798083 340.24876277 242.23805064 C340.24898105 243.26942629 340.24919933 244.30080194 340.24942422 245.36343139 C340.24986769 247.45343554 340.25031425 249.54343969 340.25076389 251.63344383 C340.25098532 252.67016136 340.25120675 253.70687888 340.25143489 254.77501208 C340.25538005 271.56104301 340.27282349 288.34703045 340.29612342 305.13304459 C340.31984882 322.36472186 340.33229989 339.59637732 340.33346534 356.82807118 C340.33438166 366.50376855 340.34012274 376.17940933 340.35828495 385.85509109 C340.37370226 394.09767184 340.37879694 402.34017851 340.37054685 410.58277094 C340.36664554 414.78663154 340.36754433 418.99034308 340.38160419 423.19418526 C340.39437496 427.04796531 340.39311791 430.90148479 340.38101348 434.75526465 C340.37906191 436.14435755 340.38210984 437.53346911 340.39085785 438.92253583 C340.47588308 453.34461702 337.71281801 465.22531002 327.88552952 476.15517235 C321.49864579 482.18484782 312.48097034 486.52196668 303.63799286 486.53660011 C302.76451326 486.54044126 301.89103367 486.5442824 300.99108499 486.54823995 C299.55836239 486.54694022 299.55836239 486.54694022 298.0966959 486.54561424 C297.07859036 486.54858536 296.06048482 486.55155649 295.0115276 486.55461764 C291.5898813 486.56331002 288.16826997 486.56481333 284.7466135 486.56630516 C282.29771951 486.5709328 279.84882624 486.57595739 277.39993382 486.58135033 C270.74108937 486.59447798 264.08225863 486.60095608 257.42340446 486.60536098 C253.26710714 486.60812396 249.11081215 486.61236129 244.95451641 486.61686516 C233.44992405 486.62905406 221.94533354 486.63935567 210.44073486 486.64274025 C209.33667481 486.6430696 209.33667481 486.6430696 208.21031052 486.6434056 C207.47250725 486.64362388 206.73470398 486.64384216 205.97454304 486.64406705 C204.47945845 486.64451052 202.98437387 486.64495708 201.48928928 486.64540672 C200.74767514 486.64562815 200.006061 486.64584958 199.24197371 486.64607772 C187.2132543 486.65002952 175.18459532 486.66749685 163.15589928 486.69076625 C150.81037026 486.71445624 138.46487162 486.72694094 126.1193195 486.72810817 C119.1859273 486.729026 112.25261395 486.7348059 105.31924343 486.75292778 C98.80300885 486.76989947 92.28689793 486.77159914 85.77063847 486.76278877 C83.37401841 486.76201463 80.97739051 486.76641028 78.58079052 486.77624702 C75.31947156 486.78885229 72.05869371 486.78315222 68.79737949 486.77266502 C67.36131081 486.78474963 67.36131081 486.78474963 65.89623064 486.79707837 C65.02535879 486.79048853 64.15448694 486.78389868 63.25722504 486.77710915 C62.50412959 486.77770623 61.75103414 486.77830332 60.97511762 486.7789185 C58.42724997 486.29420838 57.54899727 485.46747236 56.01052952 483.40517235 C55.53769364 479.6900333 55.36184235 477.4031344 57.43501854 474.21369076 C61.35539039 471.46081386 64.97294568 471.85687129 69.65620518 471.90637779 C70.64557601 471.90099324 71.63494684 471.89560868 72.6542986 471.89006096 C75.97926534 471.87675559 79.30349838 471.891956 82.62844944 471.90688133 C85.00849847 471.90305952 87.3885452 471.89744167 89.76858616 471.8901577 C95.56908714 471.8766257 101.36937845 471.88112502 107.16987851 471.89279299 C113.92835575 471.9050778 120.68671464 471.8922832 127.44517783 471.8772328 C139.50969146 471.85076397 151.57416227 471.83991305 163.63870335 471.84096336 C164.72184823 471.84105085 164.72184823 471.84105085 165.82687483 471.8411401 C168.75229814 471.84140592 171.67772145 471.84172319 174.60314475 471.84210336 C182.64559715 471.84306863 190.68804826 471.84174323 198.73050022 471.83901024 C199.81005083 471.8386504 199.81005083 471.8386504 200.91141053 471.83828329 C212.92476349 471.83387196 224.93807675 471.81761806 236.9514063 471.79378945 C243.69384308 471.78099681 250.4361664 471.77507672 257.1786108 471.78529739 C263.52252011 471.79484709 269.86628239 471.79127874 276.21018314 471.77772331 C278.536552 471.77531862 280.86293279 471.77804736 283.18928814 471.78633118 C286.36969126 471.79697721 289.5495498 471.78918136 292.72993565 471.77698326 C293.64649203 471.78455932 294.56304841 471.79213537 295.50737923 471.799941 C303.79111085 471.73276386 311.30336333 470.07649671 317.45345622 464.23457563 C324.14536978 456.37225556 324.73205044 448.26929439 324.64976597 438.29491234 C324.6560872 436.88383858 324.66459591 435.47277323 324.6750862 434.06172431 C324.69747793 430.20758779 324.68906987 426.35405396 324.67540061 422.49989963 C324.66610608 418.33502202 324.68570369 414.17026582 324.70172215 410.00542259 C324.72552382 402.79732195 324.73118054 395.58939226 324.72437572 388.38125801 C324.71456369 377.95965417 324.7323302 367.53823949 324.75674304 357.11666627 C324.79560974 340.20680863 324.81229422 323.2970052 324.81497288 306.38710594 C324.81762197 289.96455163 324.83075286 273.54206063 324.85794163 257.11952782 C324.85961501 256.10657656 324.86128838 255.09362529 324.86301247 254.04997854 C324.87147218 248.96810036 324.88013755 243.88622255 324.88890517 238.80434489 C324.96133017 196.67129808 324.9977319 154.53827677 325.01052952 112.40517235 C324.20810322 112.41405479 323.40567692 112.42293724 322.57893467 112.43208885 C314.97414842 112.51262075 307.36957228 112.57333109 299.76446915 112.61242104 C295.8556612 112.63319403 291.94720898 112.66132003 288.03860569 112.70693016 C284.2584327 112.75075977 280.47859935 112.77438657 276.69819164 112.78468132 C275.26423714 112.79200682 273.8302988 112.80630968 272.39649105 112.82809258 C259.8821077 113.01045463 249.46005384 111.09392988 240.01052952 102.40517235 C231.08401204 93.58840713 226.96379949 84.20114489 226.78347874 71.62196922 C226.78379326 68.95538289 226.79454583 66.29028606 226.81521702 63.62392235 C226.81895346 62.20046247 226.82179745 60.77699999 226.82379246 59.35353661 C226.83137926 55.63157951 226.85098433 51.90978187 226.87320042 48.18788719 C226.89376638 44.38012918 226.90281702 40.57234506 226.91287327 36.76454735 C226.93423562 29.31135015 226.96831067 21.85828371 227.01052952 14.40517235 C198.37260332 14.46431684 169.73475383 14.53866715 141.0969244 14.63415863 C137.71371567 14.6454264 134.33050652 14.65656491 130.9472971 14.66762352 C130.27377895 14.6698272 129.60026081 14.67203089 128.90633302 14.67430135 C118.00986149 14.70964548 107.11339003 14.73452588 96.21688247 14.75551937 C85.03080388 14.77730442 73.84479207 14.81060195 62.65877384 14.85387391 C56.37796293 14.87780722 50.09723406 14.89653537 43.81637859 14.90278625 C37.90256481 14.90883649 31.98896094 14.92883464 26.07522488 14.95944786 C23.90690538 14.96822897 21.73855845 14.97195052 19.5702219 14.97018051 C16.60412445 14.96852402 13.63866405 14.98525953 10.67265415 15.00644493 C9.81951541 15.00159736 8.96637667 14.99674978 8.08738524 14.99175531 C-0.20967938 15.08920285 -7.32186622 16.97651361 -13.48556423 22.72548485 C-18.97146713 28.85259717 -20.13528518 34.87984689 -20.14718533 42.86415672 C-20.15226604 43.60934059 -20.15734676 44.35452446 -20.16258144 45.12228966 C-20.1732627 46.73682044 -20.18189164 48.35136583 -20.18870068 49.96591759 C-20.20051183 52.52139026 -20.2199686 55.07669563 -20.24182034 57.63210106 C-20.30337449 64.8964082 -20.35753274 72.16069583 -20.39083767 79.42519188 C-20.41176935 83.87142417 -20.44705493 88.31734722 -20.49159527 92.76340294 C-20.50576157 94.45704068 -20.51447913 96.15073309 -20.51764965 97.84442711 C-20.52255247 100.21201082 -20.54569127 102.57877127 -20.57296658 104.94618797 C-20.56996044 105.64552956 -20.56695431 106.34487114 -20.56385708 107.06540489 C-20.61565739 110.08950402 -20.84766867 112.15159597 -22.33581448 114.81276512 C-24.7858363 117.17204205 -26.63263046 117.33803555 -29.98947048 117.40517235 C-34.55468787 115.27473757 -34.55468787 115.27473757 -35.98947048 112.40517235 C-36.10296278 110.03289505 -36.15725609 107.68926952 -36.16647243 105.31606102 C-36.17304363 104.58562584 -36.17961483 103.85519066 -36.18638515 103.10262108 C-36.20614931 100.67612668 -36.21779509 98.24969465 -36.22775173 95.8231411 C-36.23182726 94.9916939 -36.23590279 94.1602467 -36.24010181 93.30360413 C-36.26098782 88.89255712 -36.27527173 84.48154135 -36.2846365 80.07045555 C-36.2956335 75.54271696 -36.32994714 71.01547905 -36.3698082 66.48791599 C-36.39615016 62.98484032 -36.40434437 59.48187995 -36.40791798 55.97871399 C-36.41274827 54.31198161 -36.4242589 52.64525313 -36.44295597 50.97861862 C-36.59907471 36.12443289 -34.77461722 22.75832426 -24.17697048 11.47548485 C-17.43853564 5.14461663 -9.28364395 0.74351189 0 0 Z M242.01052952 26.40517235 C241.88309348 33.62747281 241.79591232 40.8494802 241.73587132 48.07265282 C241.71082506 50.52653908 241.67677818 52.98035147 241.63333225 55.43398094 C241.57224713 58.97404334 241.5442194 62.51311405 241.52224827 66.05360985 C241.49644184 67.13943352 241.47063541 68.22525719 241.44404697 69.3439846 C241.44103001 77.65479322 243.29836718 84.27536059 248.94221592 90.55418968 C255.73766478 97.2381536 263.5008429 98.74712824 272.80595493 98.74506187 C273.87506611 98.72957802 274.94417728 98.71409416 276.04568577 98.6981411 C277.16494953 98.69389626 278.28421329 98.68965141 279.43739414 98.68527794 C282.98285934 98.66859766 286.52773854 98.63096467 290.07302952 98.59267235 C292.48903689 98.57761178 294.90505324 98.56392578 297.32107639 98.55165672 C303.21775788 98.51872908 309.11410181 98.46863669 315.01052952 98.40517235 C311.8690938 94.69123502 308.74201731 91.0073189 305.28396702 87.5809536 C304.64459202 86.94480125 304.00521702 86.30864891 303.34646702 85.65321922 C302.69935764 85.01448875 302.05224827 84.37575829 301.38552952 83.71767235 C300.73068577 83.06734032 300.07584202 82.41700829 299.40115452 81.74696922 C298.15053864 80.50521398 296.89774073 79.26565095 295.64236546 78.0287075 C294.29742742 76.69061087 292.9818032 75.32311741 291.67459202 73.9481411 C290.14432319 72.17853144 290.14432319 72.17853144 288.01052952 72.40517235 C288.01052952 71.74517235 288.01052952 71.08517235 288.01052952 70.40517235 C286.52173116 68.89694597 286.52173116 68.89694597 284.56301975 67.32875633 C279.85464972 63.32239319 275.51650445 59.02079457 271.17068577 54.6278286 C270.36312336 53.81647957 269.55556095 53.00513054 268.72352695 52.16919518 C266.17090246 49.60445118 263.62157498 47.03646924 261.07302952 44.46767235 C257.69174057 41.05990057 254.30722597 37.65538092 250.92068577 34.2528286 C250.14161366 33.46545815 249.36254154 32.67808769 248.55986118 31.86685753 C247.84499043 31.14868355 247.13011967 30.43050957 246.39358616 29.69057274 C245.76263538 29.05438515 245.13168461 28.41819756 244.48161411 27.76273155 C243.22167437 26.29214208 243.22167437 26.29214208 242.01052952 26.40517235 Z " fill="#000000" transform="translate(164.98947048187256,12.594827651977539)"/>
<path d="M0 0 C1.65484657 -0.0129007 1.65484657 -0.0129007 3.34312439 -0.02606201 C4.55406769 -0.03032196 5.76501099 -0.03458191 7.01264954 -0.03897095 C8.28770859 -0.04714844 9.56276764 -0.05532593 10.87646484 -0.06375122 C15.10714104 -0.08994552 19.33782699 -0.10527808 23.56855774 -0.11953735 C25.02670103 -0.12489845 26.48484427 -0.13027596 27.94298744 -0.13566971 C34.01055768 -0.15729627 40.07812528 -0.17603115 46.1457243 -0.1872921 C54.83138235 -0.20351961 63.51659225 -0.23667022 72.20208138 -0.29369295 C78.31431823 -0.33244815 84.4264355 -0.35193146 90.53879195 -0.35721266 C94.18667604 -0.36085908 97.83408185 -0.37280316 101.4818325 -0.4053154 C105.55617596 -0.44110921 109.62956174 -0.43701112 113.70405579 -0.42959595 C115.505289 -0.45420395 115.505289 -0.45420395 117.34291077 -0.47930908 C124.3477022 -0.42715867 129.35888866 0.36392588 134.68183899 5.15390015 C138.94215982 10.61584993 139.80736803 14.39928493 139.77949524 21.2281189 C139.77737282 22.25386772 139.77737282 22.25386772 139.77520752 23.30033875 C139.76961775 25.48073736 139.75706721 27.66103265 139.74433899 29.84140015 C139.73932266 31.32121637 139.73475999 32.80103421 139.73066711 34.28085327 C139.7196517 37.90523571 139.70239411 41.52955784 139.68183899 45.15390015 C140.89420227 45.10169312 140.89420227 45.10169312 142.13105774 45.0484314 C143.19969055 45.02136108 144.26832336 44.99429077 145.36933899 44.96640015 C146.42508118 44.93159546 147.48082336 44.89679077 148.56855774 44.8609314 C152.34467126 45.21627458 154.98234841 46.45440957 157.68183899 49.15390015 C157.80775973 52.00314315 157.87051641 54.82681623 157.88496399 57.67733765 C157.89066406 58.53445343 157.89636414 59.39156921 157.90223694 60.2746582 C157.91170181 62.0921403 157.9182268 63.90963967 157.92207336 65.72714233 C157.93177424 68.5103244 157.96278113 71.29276676 157.99433899 74.07577515 C158.0008692 75.83879158 158.0061196 77.60181331 158.00996399 79.36483765 C158.02231079 80.19929413 158.03465759 81.03375061 158.04737854 81.89349365 C158.0248777 87.72174102 158.0248777 87.72174102 156.34706116 89.83544922 C152.74929035 92.68400862 148.7949825 92.29729093 144.44529724 92.28761292 C143.70305527 92.28987847 142.96081329 92.29214403 142.19607913 92.29447824 C139.70189615 92.30082268 137.20776744 92.29998859 134.71357727 92.29916382 C132.92816599 92.30215504 131.14275536 92.30555748 129.35734558 92.30934143 C124.50196701 92.31818954 119.64660604 92.32051989 114.79122019 92.32115722 C110.740454 92.32210581 106.68969194 92.32578355 102.63892734 92.32932931 C93.08307937 92.337477 83.52724082 92.33991327 73.97138977 92.33920288 C64.10857336 92.33860203 54.24581164 92.34915455 44.38300908 92.36494654 C35.92009286 92.37801505 27.45719453 92.38338707 18.9942683 92.38274747 C13.93764314 92.38249228 8.88106657 92.38535532 3.82445145 92.39592552 C-0.93120965 92.40559487 -5.68677561 92.40569367 -10.44244003 92.39840889 C-12.1883559 92.39736159 -13.93427766 92.39973452 -15.68018341 92.40576935 C-18.06278534 92.4134718 -20.4450573 92.40885613 -22.82765198 92.40113831 C-23.519194 92.40628187 -24.21073602 92.41142543 -24.92323387 92.41672486 C-28.81406254 92.38885756 -31.87710313 92.02380136 -35.31816101 90.15390015 C-37.84519063 86.36335571 -37.6240669 83.30087229 -37.61894226 78.9078064 C-37.62322739 78.10028427 -37.62751251 77.29276215 -37.63192749 76.46076965 C-37.637668 74.75359026 -37.63817309 73.04638641 -37.63383484 71.33920288 C-37.63067684 68.72948385 -37.65412952 66.12090072 -37.67948914 63.51132202 C-37.68176239 61.85181824 -37.6824655 60.19231142 -37.68144226 58.5328064 C-37.69065201 57.75353287 -37.69986176 56.97425934 -37.70935059 56.17137146 C-37.6820595 52.96948982 -37.52898121 50.56158832 -36.04545593 47.69271851 C-32.62600875 44.6463898 -28.9773297 45.03891004 -24.56816101 45.09140015 C-23.58331726 45.10042358 -22.59847351 45.10944702 -21.58378601 45.1187439 C-20.46230164 45.13614624 -20.46230164 45.13614624 -19.31816101 45.15390015 C-19.33387146 44.35282837 -19.34958191 43.55175659 -19.36576843 42.72640991 C-19.42857249 39.05648 -19.46729589 35.38666365 -19.50566101 31.71640015 C-19.53079773 30.45634155 -19.55593445 29.19628296 -19.58183289 27.89804077 C-19.64518499 19.81008837 -19.68651118 12.28284552 -14.38066101 5.77890015 C-13.70003601 5.24265015 -13.01941101 4.70640015 -12.31816101 4.15390015 C-11.29722351 3.31858765 -11.29722351 3.31858765 -10.25566101 2.46640015 C-6.85686009 0.16398662 -3.98983562 0.02315271 0 0 Z M-4.31816101 17.15390015 C-4.31816101 26.39390015 -4.31816101 35.63390015 -4.31816101 45.15390015 C38.58183899 45.15390015 81.48183899 45.15390015 125.68183899 45.15390015 C125.68183899 36.24390015 125.68183899 27.33390015 125.68183899 18.15390015 C121.65776754 13.88277934 121.65776754 13.88277934 116.59614563 13.6526947 C115.56990082 13.64286057 114.54365601 13.63302643 113.48631287 13.62289429 C111.80612564 13.63739624 111.80612564 13.63739624 110.09199524 13.65219116 C108.9079007 13.64678818 107.72380615 13.64138519 106.50382996 13.63581848 C103.25986476 13.62545538 100.01656209 13.63303253 96.77264023 13.6495297 C93.37656495 13.66338775 89.98052023 13.65691927 86.58442688 13.65339661 C80.88145914 13.65069506 75.17870194 13.66416506 69.4757843 13.68734741 C62.88417083 13.71395699 56.29290935 13.71570415 49.70126057 13.70395905 C43.35806084 13.69317646 37.01498834 13.69937205 30.67179871 13.71351433 C27.9733021 13.71927002 25.27489872 13.71919477 22.57640076 13.71444893 C18.80794405 13.71154513 15.04006637 13.7280051 11.27168274 13.74984741 C10.15155792 13.74534576 9.03143311 13.74084412 7.87736511 13.73620605 C6.33799789 13.751063 6.33799789 13.751063 4.76753235 13.76622009 C3.87674484 13.76864999 2.98595734 13.77107988 2.06817627 13.77358341 C-0.81891483 14.0434101 -0.81891483 14.0434101 -4.31816101 17.15390015 Z M-22.31816101 60.15390015 C-22.31816101 65.76390015 -22.31816101 71.37390015 -22.31816101 77.15390015 C32.46183899 77.15390015 87.24183899 77.15390015 143.68183899 77.15390015 C143.68183899 71.54390015 143.68183899 65.93390015 143.68183899 60.15390015 C88.90183899 60.15390015 34.12183899 60.15390015 -22.31816101 60.15390015 Z " fill="#000000" transform="translate(46.31816101074219,382.8460998535156)"/>
<path d="M0 0 C1.16826763 -0.00551503 1.16826763 -0.00551503 2.36013663 -0.01114148 C4.98412638 -0.0222025 7.60807657 -0.02602621 10.23208618 -0.02983093 C12.10764187 -0.03609366 13.98319632 -0.04274029 15.85874939 -0.04974365 C20.96410429 -0.06716889 26.06944982 -0.07770915 31.1748271 -0.08594918 C34.36191058 -0.09109516 37.54899113 -0.09717101 40.73607254 -0.10346031 C50.70038469 -0.12251497 60.66468941 -0.13674662 70.62901628 -0.14507228 C82.14516613 -0.15485258 93.66112417 -0.18119166 105.1772064 -0.22157317 C114.06980633 -0.25168949 122.96235113 -0.26653681 131.85500109 -0.26985329 C137.17045315 -0.27220854 142.48570035 -0.28123067 147.80109787 -0.30631447 C152.79976196 -0.32952242 157.79808526 -0.33385786 162.79678917 -0.32355309 C164.63343753 -0.32305587 166.47010226 -0.32943078 168.30669975 -0.34310913 C170.81042954 -0.36071577 173.31292131 -0.35377822 175.81665039 -0.34057617 C176.54680591 -0.35154542 177.27696143 -0.36251466 178.02924287 -0.37381631 C181.44272037 -0.33023283 183.23607172 -0.08074088 185.98639965 2.0140276 C187.97905247 4.75829066 188.0364523 6.39532209 188.03701782 9.7702179 C188.04639877 10.89818787 188.05577972 12.02615784 188.06544495 13.18830872 C188.04859398 15.00872681 188.04859398 15.00872681 188.03140259 16.86592102 C188.03285782 18.1159491 188.03431305 19.36597717 188.03581238 20.65388489 C188.03415209 23.29722546 188.02466196 25.93912779 188.00186157 28.58222961 C187.97347612 31.96518593 187.97621529 35.34723963 187.98895168 38.73026276 C187.99759025 41.96304014 187.98245876 45.19567187 187.96890259 48.42842102 C187.97183823 49.64203308 187.97477386 50.85564514 187.97779846 52.10603333 C187.96511429 53.2340033 187.95243011 54.36197327 187.93936157 55.52412415 C187.93395859 56.51577576 187.9285556 57.50742737 187.92298889 58.52912903 C187.4472728 61.74168716 186.88655292 62.8971977 184.53530884 65.14717102 C181.85968382 65.54842609 179.59037692 65.68758989 176.91239929 65.65510559 C176.12861623 65.66134555 175.34483316 65.66758552 174.5372991 65.67401457 C171.90229943 65.69001143 169.26821629 65.67731458 166.63320923 65.66474915 C164.74764972 65.67016735 162.86209445 65.67728831 160.97654724 65.68598938 C155.8484156 65.70426281 150.72060498 65.6971383 145.59246755 65.68447304 C140.23180716 65.67436468 134.87117474 65.68373282 129.51051331 65.6900177 C120.50611422 65.69730105 111.50184623 65.68768901 102.49746704 65.6686554 C92.08127837 65.64689198 81.66540292 65.65393146 71.24922186 65.67596102 C62.31411367 65.69410329 53.37909986 65.69667887 44.4439792 65.68620634 C39.10398406 65.67996412 33.7641362 65.67915567 28.42415047 65.69235229 C23.40326313 65.70389285 18.38278015 65.69591783 13.36193657 65.67277527 C11.51724291 65.6674783 9.67251532 65.66901878 7.82783508 65.67782593 C5.31316199 65.68872641 2.79979167 65.67508532 0.28520203 65.65510559 C-0.44816232 65.66402848 -1.18152667 65.67295136 -1.93711418 65.68214464 C-5.35707949 65.62928904 -7.16352695 65.37677498 -9.91815472 63.27667999 C-11.89480336 60.55492647 -11.96032496 58.96261552 -11.95053101 55.61592102 C-11.95668427 54.5079718 -11.96283752 53.40002258 -11.96917725 52.25849915 C-11.95480621 51.06676086 -11.94043518 49.87502258 -11.92562866 48.64717102 C-11.92471222 47.41933899 -11.92379578 46.19150696 -11.92285156 44.9264679 C-11.91681006 42.33072544 -11.90104785 39.73499014 -11.87631226 37.13935852 C-11.8398321 33.16253515 -11.83529271 29.18664414 -11.83578491 25.20967102 C-11.82595289 22.68882962 -11.81429553 20.16799454 -11.80062866 17.64717102 C-11.79840302 16.45543274 -11.79617737 15.26369446 -11.79388428 14.0358429 C-11.78112457 12.92789368 -11.76836487 11.81994446 -11.75521851 10.67842102 C-11.74759491 9.7045343 -11.73997131 8.73064758 -11.7321167 7.72724915 C-11.45379883 5.04208358 -10.9212632 3.40642593 -9.46469116 1.14717102 C-6.44231532 -0.3640169 -3.31561704 -0.0008321 0 0 Z M3.53530884 14.14717102 C3.53530884 26.35717102 3.53530884 38.56717102 3.53530884 51.14717102 C59.63530884 51.14717102 115.73530884 51.14717102 173.53530884 51.14717102 C173.53530884 38.93717102 173.53530884 26.72717102 173.53530884 14.14717102 C117.43530884 14.14717102 61.33530884 14.14717102 3.53530884 14.14717102 Z " fill="#000000" transform="translate(171.46469116210938,43.85282897949219)"/>
<path d="M0 0 C18.14104453 -0.78725288 34.9823609 6.50917814 48.3828125 18.3984375 C56.14528879 26.3752845 61.44965072 35.6342661 65.0703125 46.16015625 C65.30363281 46.83175781 65.53695312 47.50335938 65.77734375 48.1953125 C70.43988007 63.9942665 67.92356953 81.43896093 61.0703125 96.16015625 C51.73683322 112.77207937 37.50770818 124.5450032 19.04516602 129.72875977 C0.43406636 134.30967125 -17.61525051 130.72313221 -33.9296875 121.16015625 C-48.25819783 111.38627471 -58.33125664 97.2900863 -62.30859375 80.35546875 C-65.37223914 62.49506796 -62.90844818 44.48858076 -52.9296875 29.16015625 C-41.48943574 13.81314658 -26.58068174 4.27277405 -7.77734375 0.7578125 C-5.19440451 0.38443712 -2.59977952 0.21577117 0 0 Z M-36.9296875 33.16015625 C-45.63238888 43.49698933 -49.58092121 56.789467 -48.9296875 70.16015625 C-47.31298762 79.72721556 -44.84179044 88.31393147 -38.9296875 96.16015625 C-38.34316406 96.93875 -37.75664062 97.71734375 -37.15234375 98.51953125 C-28.129177 109.51709236 -15.8583587 115.17304962 -1.9296875 117.16015625 C12.5949321 117.89869623 25.5183393 113.27489565 36.5703125 103.78515625 C46.98145205 93.68072785 53.03007371 80.7152728 53.3828125 66.16015625 C53.21729566 51.62777795 47.62023068 39.80251651 37.7578125 29.34765625 C26.6908527 18.84437861 13.87858639 14.75292725 -1.16015625 14.87890625 C-15.50694556 15.94934027 -27.1396955 23.00262189 -36.9296875 33.16015625 Z " fill="#000000" transform="translate(397.9296875,280.83984375)"/>
<path d="M0 0 C1.13536057 -0.00724325 1.13536057 -0.00724325 2.29365772 -0.01463282 C4.82575829 -0.02588982 7.35684579 -0.008596 9.88890076 0.00863647 C11.7057879 0.00649027 13.52267369 0.00261207 15.33955383 -0.00286865 C20.27132249 -0.01256218 25.20272913 0.00274099 30.13445401 0.02303743 C35.29356046 0.0406032 40.45265564 0.03708346 45.61178589 0.03631592 C54.27469441 0.03818892 62.9374628 0.05555365 71.60032654 0.08285522 C81.61999588 0.11431591 91.63951179 0.12485107 101.65922695 0.12338412 C111.29411994 0.12216395 120.9289629 0.13237061 130.56384087 0.14896774 C134.6662275 0.15603376 138.76859643 0.15969429 142.87098885 0.16075516 C147.699749 0.16276244 152.52838006 0.17495906 157.35709763 0.19508743 C159.13083926 0.20093482 160.90459574 0.20338869 162.67834663 0.20223236 C165.09624905 0.20125248 167.5137887 0.21254677 169.93164062 0.22705078 C170.6364041 0.22395358 171.34116757 0.22085637 172.0672875 0.21766531 C175.65380933 0.25328641 178.40846085 0.41494591 181.40232849 2.49447632 C182.95693154 5.60368241 183.12953542 9.1253066 182.40232849 12.49447632 C179.95976248 15.00701639 178.52053524 15.48125966 175.00086212 15.87479305 C173.61701471 15.89257312 172.23289626 15.89381798 170.84898376 15.88215637 C169.70265417 15.89023468 169.70265417 15.89023468 168.53316641 15.89847618 C165.97051011 15.91279222 163.40836771 15.90564323 160.84568787 15.89852905 C159.00924259 15.90423068 157.17280086 15.91119413 155.33636475 15.91932678 C150.34677179 15.93729509 145.35735434 15.93608305 140.36773872 15.9303844 C136.20497729 15.92729822 132.04224984 15.93337854 127.87949324 15.93942314 C118.06139274 15.95347848 108.24337924 15.95189835 98.42527771 15.94052124 C88.28911771 15.92903529 78.15322215 15.94312145 68.017097 15.96991771 C59.31976692 15.99205127 50.62252 15.9987175 41.92516375 15.9928413 C36.72825318 15.98946535 31.53151219 15.99192921 26.33462524 16.00909233 C21.44916584 16.02452235 16.56409929 16.0206499 11.67865562 16.00178719 C9.88394434 15.99809052 8.0892042 16.00124099 6.29451942 16.01167297 C3.84778012 16.02481128 1.40235521 16.01340037 -1.04432678 15.99568176 C-2.11416801 16.01008927 -2.11416801 16.01008927 -3.2056222 16.02478784 C-6.54262178 15.97493145 -8.32607912 15.69648545 -11.0345993 13.68190098 C-13.33975108 10.45598101 -13.21805423 8.35463548 -12.59767151 4.49447632 C-8.74997539 0.4085877 -5.37160439 -0.07865594 0 0 Z " fill="#000000" transform="translate(282.59767150878906,150.50552368164063)"/>
<path d="M0 0 C0.76900885 -0.00467997 1.53801769 -0.00935994 2.33032984 -0.01418173 C4.90915122 -0.02615529 7.48744351 -0.01666549 10.06626892 -0.00723267 C11.91418773 -0.01129729 13.76210411 -0.01663855 15.61001587 -0.02316284 C20.63054195 -0.03685428 25.65088335 -0.03153049 30.67141271 -0.02202559 C35.92042244 -0.01443961 41.16941617 -0.02147154 46.41842651 -0.02618408 C55.23271021 -0.03164425 64.04691854 -0.02444266 72.8611908 -0.01016235 C83.05981643 0.0061697 93.2582622 0.00087265 103.45688349 -0.01564157 C112.20599887 -0.02924296 120.95506003 -0.03118285 129.70418257 -0.02332556 C134.93288494 -0.01864228 140.16150268 -0.01804226 145.39019966 -0.02793503 C150.30433284 -0.036583 155.21823341 -0.03062259 160.13234138 -0.01325226 C161.93875746 -0.00927601 163.74519302 -0.01044082 165.55160141 -0.01704025 C168.01163714 -0.02520095 170.47092079 -0.01500122 172.9309082 0 C174.01095512 -0.01003825 174.01095512 -0.01003825 175.11282116 -0.02027929 C178.0275794 0.01435526 179.93969532 0.04705997 182.34400082 1.78366661 C183.66260188 3.77445821 183.80397431 5.00389229 183.77696228 7.38095093 C183.78469666 8.06157593 183.79243103 8.74220093 183.80039978 9.44345093 C183.25588499 12.09128755 182.60732105 12.79032944 180.40196228 14.38095093 C177.81673259 14.67559259 175.4720674 14.78578378 172.88621521 14.76190186 C171.72785825 14.76892181 171.72785825 14.76892181 170.54610014 14.77608359 C167.95035506 14.78807957 165.35513345 14.77855859 162.75938416 14.76913452 C160.90176077 14.77319818 159.0441398 14.77853891 157.18652344 14.7850647 C152.13494785 14.79876853 147.08355559 14.793427 142.0319767 14.78392744 C136.75226462 14.77634671 131.47256852 14.78337203 126.19285583 14.78808594 C117.32551751 14.79354812 108.45825408 14.78633973 99.59092712 14.77206421 C89.33040665 14.75573683 79.07006499 14.76102501 68.80954885 14.77754343 C60.00949873 14.7911451 51.20950252 14.79308441 42.40944529 14.78522742 C37.14942906 14.78054364 31.88949695 14.77994536 26.62948608 14.78983688 C21.68499798 14.7984851 16.74074105 14.79252397 11.796278 14.77515411 C9.97857485 14.77117778 8.16085234 14.77234282 6.34315681 14.77894211 C3.8677425 14.78710259 1.39307564 14.77690325 -1.08229065 14.76190186 C-1.80689499 14.76859402 -2.53149934 14.77528619 -3.27806139 14.78218114 C-6.20147731 14.74765871 -8.12850391 14.71998661 -10.5406723 12.97823524 C-11.85282949 10.9960557 -12.03105228 9.74926354 -12.03553772 7.38095093 C-12.05487366 6.70032593 -12.07420959 6.01970093 -12.09413147 5.31845093 C-11.59803772 3.38095093 -11.59803772 3.38095093 -10.04190922 1.78366661 C-6.72216453 -0.12177643 -3.72293671 -0.03470951 0 0 Z " fill="#000000" transform="translate(281.59803771972656,182.61904907226563)"/>
<path d="M0 0 C0.85086685 -0.00700928 1.7017337 -0.01401855 2.5783844 -0.02124023 C5.38990965 -0.03883937 8.20042747 -0.02718979 11.01196289 -0.01367188 C12.96725152 -0.01636649 14.92253884 -0.02024866 16.87782288 -0.02526855 C20.97597002 -0.03116641 25.0737684 -0.02259227 29.171875 -0.00390625 C34.42232796 0.01886832 39.67196238 0.00577142 44.92238522 -0.01819611 C48.9604762 -0.03265914 52.99837356 -0.02804549 57.03647041 -0.01768494 C58.97214416 -0.01501827 60.90783554 -0.01828529 62.84348869 -0.02760315 C65.55107962 -0.03777534 68.25735097 -0.02225797 70.96484375 0 C71.76344818 -0.00809692 72.56205261 -0.01619385 73.38485718 -0.02453613 C77.11408333 0.03218791 79.34222092 0.39119677 82.54444885 2.36633301 C84.54711914 4.51757812 84.54711914 4.51757812 85.17211914 7.45507812 C84.32338692 11.61386603 82.87200956 12.90707636 79.54711914 15.51757812 C76.53075875 16.00714092 74.08299327 16.19336864 71.07250977 16.14868164 C70.23125046 16.15583694 69.38999115 16.16299225 68.52323914 16.17036438 C65.74939249 16.18723848 62.97716501 16.16785698 60.20336914 16.14648438 C58.27193061 16.14731319 56.34049214 16.14977307 54.40905762 16.15379333 C50.36387872 16.15665045 46.31925377 16.1419585 42.27416992 16.11450195 C37.09209541 16.0804194 31.91101138 16.08643824 26.72888947 16.10516453 C22.74139163 16.11573912 18.75412379 16.1067925 14.76664734 16.09177971 C12.85610131 16.08660082 10.94553123 16.08707615 9.0349884 16.09332466 C6.36337742 16.09878242 3.69317854 16.07838445 1.02172852 16.05102539 C-0.15979546 16.06081421 -0.15979546 16.06081421 -1.3651886 16.07080078 C-5.04626926 16.00678397 -7.27323972 15.62643581 -10.4473877 13.70298767 C-12.45288086 11.51757812 -12.45288086 11.51757812 -13.01538086 8.01757812 C-11.77588601 0.30516573 -6.90233321 -0.06980473 0 0 Z " fill="#000000" transform="translate(282.452880859375,213.482421875)"/>
<path d="M0 0 C0.88319412 -0.00686325 1.76638824 -0.0137265 2.67634583 -0.02079773 C5.60014858 -0.03912192 8.52341769 -0.03522059 11.44726562 -0.02954102 C13.47603532 -0.03409981 15.50480346 -0.03940447 17.53356934 -0.04542542 C21.78725454 -0.05436734 26.04075211 -0.05192071 30.29443359 -0.04199219 C35.75245881 -0.03049561 41.20983774 -0.05071922 46.66777802 -0.07990932 C50.85760631 -0.09823124 55.04727855 -0.09798697 59.23713684 -0.0922718 C61.24983121 -0.09211813 63.26253585 -0.09820053 65.27519226 -0.11056328 C68.08622119 -0.12539753 70.89604086 -0.11485263 73.70703125 -0.09765625 C74.54244949 -0.10732422 75.37786774 -0.11699219 76.23860168 -0.12695312 C81.85252201 -0.05483065 81.85252201 -0.05483065 84.36657715 2.24790955 C85.72500179 5.21563053 85.8241595 7.17678047 85.35351562 10.40405273 C83.86120605 12.5592041 83.86120605 12.5592041 81.35351562 14.40405273 C78.37629743 14.79859412 75.76942331 14.95132726 72.79296875 14.92163086 C71.93074203 14.92864014 71.06851532 14.93564941 70.18016052 14.94287109 C67.3313675 14.96046962 64.48356867 14.94882186 61.63476562 14.93530273 C59.65466115 14.93799712 57.67455796 14.94187909 55.69445801 14.94689941 C51.54503784 14.95279698 47.39596215 14.94422311 43.24658203 14.92553711 C37.9265323 14.90274751 32.60728971 14.91586919 27.28726959 14.93982697 C23.19860752 14.9542779 19.11013695 14.94968217 15.02146912 14.9393158 C13.05984909 14.93664657 11.0982117 14.93992515 9.13661194 14.94923401 C6.39529332 14.95938796 3.65528357 14.943915 0.9140625 14.92163086 C-0.30326317 14.93377625 -0.30326317 14.93377625 -1.54518127 14.94616699 C-5.10029265 14.89259987 -7.23335933 14.70218732 -10.1541748 12.59436035 C-12.3194417 9.41633303 -12.12392113 7.15534152 -11.64648438 3.40405273 C-8.5615713 -0.63845703 -4.71052153 -0.02538263 0 0 Z " fill="#000000" transform="translate(281.646484375,245.595947265625)"/>
</svg>
