<svg width="130" height="57" viewBox="0 0 130 57" fill="none" xmlns="http://www.w3.org/2000/svg">
<path fill-rule="evenodd" clip-rule="evenodd" d="M12.1152 42.3493C12.1152 43.2039 11.7131 44.0082 11.1098 44.6117C10.2552 43.8574 8.54602 43.1536 6.98755 43.1536C5.3286 43.1536 4.72529 43.7569 4.72529 44.5109C4.72529 45.7677 6.28383 45.7677 9.3503 46.8235C11.5623 47.5776 12.8191 48.8845 12.8191 51.2975C12.8191 54.8668 10.0038 56.6765 5.8817 56.6765C1.80961 56.6765 0 55.4197 0 53.9116C0 52.9062 0.603203 52.2023 1.25683 51.6494C2.06111 52.504 4.17254 53.4089 5.78124 53.4089C7.38967 53.4089 8.3449 52.8056 8.3449 51.6996C8.3449 50.0911 6.23348 50.3424 3.56908 49.1861C1.45783 48.2812 0.301562 47.1251 0.301562 44.9635C0.301562 41.9974 3.11683 40.0872 6.93742 40.0872C10.1546 40.0872 12.0145 41.0423 12.1152 42.3493Z" fill="#004A89"/>
<path fill-rule="evenodd" clip-rule="evenodd" d="M61.1297 40.1374C59.0182 40.1374 57.7614 40.992 57.1079 41.6455V34.4569C57.1079 32.0943 53.9911 32.245 52.5332 32.7979V56.375H55.3986C56.3035 56.375 56.7056 55.8219 56.7056 54.9673C57.3592 55.7214 58.8674 56.6766 61.029 56.6766C64.4475 56.6766 67.7652 54.7663 67.7652 48.03C67.7652 41.4445 64.0955 40.1374 61.1297 40.1374ZM59.8225 53.3084C58.4651 53.3084 57.4096 52.6549 57.0074 52.2528V44.7624C57.0074 44.3602 57.862 43.3046 59.6215 43.3046C62.336 43.3046 62.9895 45.5668 62.9895 48.0803C62.9895 51.4483 62.0847 53.3084 59.8225 53.3084Z" fill="#004A89"/>
<path fill-rule="evenodd" clip-rule="evenodd" d="M102.703 52.4537V46.1699C102.703 41.9974 100.793 40.0872 95.9166 40.0872C92.3977 40.0872 89.7836 40.9418 89.5322 42.4499C89.3814 43.2542 89.7332 44.2597 90.4874 44.7623C91.8448 43.9076 93.5539 43.3548 95.062 43.3548C97.1232 43.3548 98.2291 44.0082 98.2291 45.7175V46.3208C95.2631 46.3208 88.4766 46.5217 88.4766 51.8506C88.4766 55.5203 91.1911 56.7771 93.6043 56.7771C95.9668 56.7771 97.5253 55.9726 98.5307 54.9672C98.6816 56.2744 99.5362 56.7771 101.145 56.7771C101.899 56.7771 102.603 56.6263 103.407 56.3246C102.854 55.5203 102.703 54.2132 102.703 52.4537ZM98.2794 52.0014C98.2794 52.7051 97.1232 53.7608 95.2128 53.7608C93.5539 53.7608 92.8502 52.8056 92.8502 51.5488C92.8502 49.0857 95.5145 48.8845 98.2794 48.8845V52.0014Z" fill="#004A89"/>
<path fill-rule="evenodd" clip-rule="evenodd" d="M44.2885 54.565C43.082 55.8217 41.5236 56.6764 39.3117 56.6764C35.5918 56.6764 34.1338 54.4642 34.1338 51.046V40.5897C35.5918 40.0368 38.7084 39.8859 38.7084 42.2486V50.4931C38.7084 52.0012 39.4122 53.0568 41.0712 53.0568C42.9312 53.0568 44.0874 51.7499 44.0874 51.046V40.5897C45.5452 40.0368 48.6619 39.8859 48.6619 42.2486V56.3747H45.9977C44.8414 56.3747 44.2885 55.671 44.2885 54.565Z" fill="#004A89"/>
<path fill-rule="evenodd" clip-rule="evenodd" d="M20.5102 42.0478C21.6664 40.8915 23.2247 40.1374 25.2859 40.1374C29.0058 40.1374 30.4639 42.3494 30.4639 45.7678V56.3749H25.889V46.2705C25.889 44.7624 25.1854 43.757 23.5264 43.757C21.6664 43.757 20.5102 45.0641 20.5102 45.7678V56.3749H15.9355V32.7979C17.3934 32.245 20.5102 32.0943 20.5102 34.4569V42.0478Z" fill="#004A89"/>
<path fill-rule="evenodd" clip-rule="evenodd" d="M75.5064 42.0478C76.6626 40.8915 78.2209 40.1374 80.2821 40.1374C84.0021 40.1374 85.46 42.3494 85.46 45.7678V56.3749H80.8852V46.2705C80.8852 44.7624 80.1815 43.757 78.5227 43.757C76.6626 43.757 75.5064 45.0641 75.5064 45.7678V56.3749H70.9316V32.7979C72.3896 32.245 75.5064 32.0943 75.5064 34.4569V42.0478Z" fill="#004A89"/>
<path fill-rule="evenodd" clip-rule="evenodd" d="M120.499 45.2148C120.549 45.8181 120.549 46.4715 120.549 47.0748V56.3748H115.975V46.0694C115.975 44.6617 115.321 43.7067 113.763 43.7067C112.003 43.7067 110.948 44.9131 110.948 45.5667V56.3748H106.373V40.5396C107.781 39.9865 110.847 39.8358 110.847 42.1482C111.601 41.0926 113.059 40.0872 115.673 40.0872C118.086 40.0872 119.242 41.1428 119.846 42.2991C120.851 41.0926 122.409 40.0872 124.923 40.0872C128.542 40.0872 130 42.2991 130 45.9689V56.3748H125.426V46.0694C125.426 44.6617 124.772 43.7067 123.214 43.7067C121.756 43.7067 120.801 44.5613 120.499 45.2148Z" fill="#004A89"/>
<path fill-rule="evenodd" clip-rule="evenodd" d="M109.842 26.8153H81.4893L64.2217 11.3846L76.7138 0.2229L109.842 26.8153Z" fill="#004A89"/>
<path fill-rule="evenodd" clip-rule="evenodd" d="M76.7133 0.2229L64.2212 11.3846L64.218 11.3878H37.8203L51.7289 0.2229H76.7133Z" fill="#F07C0D"/>
<path fill-rule="evenodd" clip-rule="evenodd" d="M49.2532 24.7588L48.1034 25.7871L46.952 26.8154H18.6006L19.8813 25.7871L21.162 24.7588H49.2532Z" fill="#F07C0D"/>
<path fill-rule="evenodd" clip-rule="evenodd" d="M55.0102 19.6157L53.8588 20.6441L52.7074 21.6723L51.5576 22.7006H23.7266L25.0072 21.6723L26.2895 20.6441L27.5702 19.6157H55.0102Z" fill="#F07C0D"/>
<path fill-rule="evenodd" clip-rule="evenodd" d="M61.9172 13.4443L60.7658 14.4726L59.6129 15.5025L58.4631 16.5307L57.3117 17.5591H30.1318L31.4126 16.5307L32.6949 15.5025L33.9771 14.4726L35.2578 13.4443H61.9172Z" fill="#F07C0D"/>
</svg>
